<mxfile host="app.diagrams.net" modified="2021-11-27T00:04:36.380Z" agent="5.0 (Windows NT 10.0; Win64; x64) AppleWebKit/537.36 (KHTML, like Gecko) Chrome/96.0.4664.45 Safari/537.36" etag="VVEJ_USj0jZ9kx1hepD4" version="15.5.8" type="github">
  <diagram id="OtvslSrVMosFSR0YyGfK" name="Page-1">
    <mxGraphModel dx="1422" dy="705" grid="1" gridSize="10" guides="1" tooltips="1" connect="1" arrows="1" fold="1" page="1" pageScale="1" pageWidth="827" pageHeight="1169" math="0" shadow="0">
      <root>
        <mxCell id="0" />
        <mxCell id="1" parent="0" />
        <mxCell id="Qz6fXgYHEP6Uw-YGUnhL-28" value="" style="rounded=1;whiteSpace=wrap;html=1;" vertex="1" parent="1">
          <mxGeometry x="771" y="373" width="170" height="207" as="geometry" />
        </mxCell>
        <mxCell id="Qz6fXgYHEP6Uw-YGUnhL-29" value="&lt;font style=&quot;font-size: 17px&quot;&gt;Data Modelling&lt;/font&gt;" style="rounded=1;whiteSpace=wrap;html=1;fontStyle=1" vertex="1" parent="1">
          <mxGeometry x="806" y="360.00000000000006" width="100" height="40" as="geometry" />
        </mxCell>
        <mxCell id="Qz6fXgYHEP6Uw-YGUnhL-25" value="" style="rounded=1;whiteSpace=wrap;html=1;" vertex="1" parent="1">
          <mxGeometry x="530" y="373" width="170" height="207" as="geometry" />
        </mxCell>
        <mxCell id="Qz6fXgYHEP6Uw-YGUnhL-26" value="&lt;font style=&quot;font-size: 17px&quot;&gt;Staging&lt;/font&gt;" style="rounded=1;whiteSpace=wrap;html=1;fontStyle=1" vertex="1" parent="1">
          <mxGeometry x="565" y="360.00000000000006" width="100" height="40" as="geometry" />
        </mxCell>
        <mxCell id="Qz6fXgYHEP6Uw-YGUnhL-20" value="" style="rounded=1;whiteSpace=wrap;html=1;" vertex="1" parent="1">
          <mxGeometry x="290" y="373" width="170" height="207" as="geometry" />
        </mxCell>
        <mxCell id="Qz6fXgYHEP6Uw-YGUnhL-22" value="&lt;font style=&quot;font-size: 17px&quot;&gt;Extract and Load&lt;/font&gt;" style="rounded=1;whiteSpace=wrap;html=1;fontStyle=1" vertex="1" parent="1">
          <mxGeometry x="325" y="360.00000000000006" width="100" height="40" as="geometry" />
        </mxCell>
        <mxCell id="Qz6fXgYHEP6Uw-YGUnhL-16" value="" style="rounded=1;whiteSpace=wrap;html=1;" vertex="1" parent="1">
          <mxGeometry x="50" y="373" width="170" height="207" as="geometry" />
        </mxCell>
        <mxCell id="Qz6fXgYHEP6Uw-YGUnhL-2" value="" style="shape=image;verticalLabelPosition=bottom;labelBackgroundColor=#ffffff;verticalAlign=top;aspect=fixed;imageAspect=0;image=data:image/png,iVBORw0KGgoAAAANSUhEUgAABLAAAAJYCAYAAABy5h8aAAAACXBIWXMAAAsSAAALEgHS3X78AAAgAElEQVR4nO3dT3LbVrYHYKCr58pbgdQrsLICK3NWRVmB5SknVlYQeQWRJ5xGXkHLVZxHWkFLK2hrBW2tAK9AXNqyrD8kBYDnAt9XxUr3ex0JBAiK98dzzymrqioAAAAAIKp/uDIAAAAARCbAAgAAACA0ARYAAAAAoQmwAAAAAAhNgAUAAABAaAIsAAAAAEITYAEAAAAQmgALAAAAgNAEWAAAAACEJsACAAAAIDQBFgAAAAChCbAAAAAACE2ABQAAAEBoAiwAAAAAQhNgAQAAABCaAAsAAACA0ARYAAAAAIQmwAIAAAAgNAEWAAAAAKEJsAAAAAAITYAFAAAAQGgCLAAAAABCE2ABAAAAEJoACwAAAIDQBFgAAAAAhCbAAgAAACA0ARYAAAAAoQmwAAAAAAhNgAUAAABAaAIsAAAAAEITYAEAAAAQmgALAAAAgNAEWAAAAACEJsACAAAAIDQBFgAAAAChCbAAAAAACE2ABQAAAEBoAiwAAAAAQhNgAQAAABCaAAsAAACA0ARYAAAAAIQmwAIAAAAgNAEWAAAAAKEJsAAAAAAITYAFAAAAQGgCLAAAAABCE2ABAAAAEJoACwAAAIDQBFgAAAAAhCbAAgAAACA0ARYAAAAAoQmwAAAAAAhNgAUAAABAaAIsAAAAAEITYAEAAAAQmgALAAAAgNAEWAAAAACEJsACAAAAIDQBFgAAAAChCbAAAAAACE2ABQAAAEBoAiwAAAAAQhNgAQAAABCaAAsAAACA0ARYAAAAAIQmwAIAAAAgNAEWAAAAAKEJsAAAAAAITYAFAAAAQGgCLAAAAABCE2ABAAAAEJoACwAAAIDQBFgAAAAAhCbAAgAAACA0ARYAAAAAoQmwAAAAAAhNgAUAAABAaAIsAAAAAEITYAEAAAAQmgALAAAAgNAEWAAAAACEJsACAAAAIDQBFgAAAAChCbAAAAAACE2ABQAAAEBoAiwAAAAAQhNgAQAAABCaAAsAAACA0ARYAAAAAIQmwAIAAAAgNAEWAAAAAKEJsAAAAAAITYAFAAAAQGgCLAAAAABCE2ABAAAAEJoACwAAAIDQBFgAAAAAhCbAAgAAACA0ARYAAAAAoQmwAAAAAAhNgAUAAABAaAIsAAAAAEITYAEAAAAQmgALAAAAgNAEWAAAAACEJsACAAAAIDQBFgAAAAChCbAAAAAACE2ABQAAAEBoAiwAAAAAQhNgAQAAABCaAAsAAACA0ARYAAAAAIQmwAIAAAAgNAEWAAAAAKEJsAAAAAAITYAFAAAAQGgCLAAAAABCE2ABAAAAEJoACwAAAIDQBFgAAAAAhCbAAgAAACA0ARYAAAAAoQmwAAAAAAhNgAUAAABAaAIsAAAAAEITYAEAAAAQmgALAAAAgNAEWAAAAACEJsACAAAAIDQBFgAAAAChCbAAAAAACE2ABQAAAEBoAiwAAAAAQhNgAQAAABCaAAsAAACA0ARYAAAAAIQmwAIAAAAgNAEWAAAAAKEJsAAAAAAITYAFAAAAQGgCLAAAAABCE2ABAAAAEJoACwAAAIDQBFgAAAAAhCbAAgAAACA0ARYAAAAAoQmwAAAAAAhNgAUAAABAaAIsAAAAAEITYAEAAAAQmgALAAAAgNAEWAAAAACEJsACAAAAIDQBFgAAAAChCbAAAAAACE2ABQAAAEBoAiwAAAAAQhNgAQAAABCaAAsAAACA0ARYAAAAAIQmwAIAAAAgtH+6PABkbTrZL4ripyeewudiNv/sIgMAQL7KqqpcPgDy0IRVB+mxVxTFqzWO+7ooiquiKC6KojgvZvMvrjoAAORBgAV9+7YA308L8NdPHMFtWnBffV14qyRhbJp75qgoisOiKHZbfPZ1oHUqzAIAgPgEWNCHZgF+nIKrly7ArxcL7qI4E2YxWNPJTymwOmk5tHrI7eJ+qsMs9xQAAIQkwIIuTSdHHS/ALxc/fza/cB0ZjOnkJAW+Oz0/pdtUkXWqIgsAAGIRYEEXmuDqtMcFuCCL/HUf+K7qZrFl0f0EAABhCLCgTdPJQdqKtK0F+KdF5YptUOSkuW9O12zI3ocPxWx+7LUEAADbJ8CCNjT9eurKkXdBzueHVJFlGxRxTSd7KfB9apDBtl0vete5lwAAYKsEWPBSTYP2s4DVI/r5EFMTXNWB75tMrpAQCwAAtkyABS/RbH0630Kz6XXcpGqsM9earWoqFY+31KD9pYRYAACwRQIs2FTTcPqvjM7fTeqPdR7gWBib/gcbdEGIBQAAWyLAgk3kF17dZWIh/ZlODlNwte3Jgm25LGbzg2E8FQAAyIcAC9aVd3h1l4mFdKfZXnsSvEH7pt4Xs/lJnocOAAB5EmDBOpqG7ReZb4O672MKsmyL4uXya9C+qZ+L2fwqz0MHAID8CLBgVU0D6qsBbYW6y8RCXqa5P+rg6t1IzmTdU27f/QIAAP34h/MMKzsbaHhVpIqyP4qi+Jy2SMLqppOTxWtnPOFVkd4LbCMEAICeqMCCVQyn79WqTCzkec19cTLgYHcVvxiIAAAA3RNgwXOarVGfB9b3alUmFvKjpkF7veX0lbNTXBez+X6A4wAAgEETYMFzppPTkW2NeoiJhSwbtJ8NdLLgS7wtZvOzfA8fAADiE2DBU5oF+3+do69MLByj8UwW3JQqLAAA6JgAC54ynZxZtP/AxMKxaLbPHqdH1C209evxIj2u7v3/flpMCiyKwx62O/5czOb3fz8AANASARY8plm8/6+H81M3TD9PC/DP3y2Cp5N68V1XvxykRXikZtm3qRrL1qkhahq0nwYOrm5Sf7bVXn/dV5F9LGZzEzwBAKAjAix4zHRSV5382eH5WX/SX8ypb+sFCcQ2nRym4CryZMEP6TW3fgVgEwqfdVCRdVvM5j+1/DMBAIBEgAWPmU6uOtx29L6YzU82+jebyrDTgFsbTSzMWTNZ8CSDBu0vb5je3EMXHdzfv3j9AwBANwRY8JBum7e3M7Gsqcb6q5UjalcdZB2ZWJiJvBq0/17M5qet/KRuQqzNg2kAAOBJ/3B64EEHHZ2W961ttWt+zsdWfla7Xi/Cv7oBfhOOEFEd4EwnpymozSG8umwtvCoW98+X1FeuTV29bwAAwOgJsOBhbS9si7QAb7c6o2kafdPqz2zPm8VUuOnkJFW7EEV9TeqBAUXxLqNr0n6D9KZK8H2LP3G/xZ8FAADcIcCCh3WxEO1qa1HkLUv1BLs/FmFJ0xSfbaq3nU4nn9M1iTpd8CGfOtyS2ubwgZzOKQNVluVBWZZVLo9croLzCgDbJ8CCh7U9ge26s+bOzVbCqFVYSzuLiY51eNL07qJPdYP2ZijBX8GnCz5m9Umd62qCscvWfl7TDB8AAGiZAAvu62YB2maVx0O6W+C3a3cRokwnFxb6Pah7kNXnuij+7nCiZh+6fn2bHAgAAMEJsKAfXS+Qc1uAv16EKk2QpdF725rg6iw1aH+d+bO5TQ3XuyTAAgCA4P7pAkEPZvOrjn9J1z+/K8uJhR8Xvby663M0Dk2z/OP0GEo/plxf2wAAQItUYMGP8qsIyj/4MbHwpZreYjk2aN++rvrTAQAArRFgQfeiN1iP4u7EwsiTFWOZTg7TZMG/BFcbso0VAADCE2DBj9quZspx6ts2NUGWiYVPayYL1pVD/x74a6yPijwBFgAABKcHFgzBMLfdLScWNj2dbPNqNNVCJ2nb5Rj0MT2xzQBLHzcAAOiACizow3Sy3/Fv6frnb9OrOxMLh/w8n1aHlNPJaZosOJbwqpHT/WMQAQAAdEKABfd1U+nT9QL8oOOfH0E9sfA/xXRyNrqeRU1PsDoYeRfgaLah662khy39nMuWfg4AAHCPAAse1nbj9bYWyNv6+ZG8WVQhjWFiYd0DrGnQPvbJgt0FWHUT/PZ6iF219HMAAIB7BFjwsLYXor92VjVUN/Pup09QNMOdWNg0aL9KkwUNAajDu6YXWhfafP0IsAAAoCMCLHhYF9sITzs618MLcFY3rImFdcjZTBb8e6Sh5FNOWu+F1YSfbZ7n8xZ/FgAAcIcACx7WxUL019ZDlqYq5XWrPzNPy4mFV6kiLS9Ng/az1KDd9XxYHVaetbZttLkX/2jx+K6L2fxLiz8PAAC4Q4AFD2kmiV13cG5OW6siaRbgf7bys4bj7sTC+EFWE1wtG7SPa7LgZl4tqiNfuh23uXf+avnYuqqwBACA0SsEWPCksw5Oz05agL+sEqupvGp7AT4kr0MHWd8HV2Nv0L6uV4teU5v0xGq2aJ53cO/c2j4IAADdKquqcorhIc1Wpf91eG4+FUVxnKq9VtNUnpzZZra261Qhc77VbV5NmHak2qo1N+l+qK/r4w3Um0mDhx2e9w/FbN5Vk3lYS1mWB6mPXhaqqipzOE7nFQC2T4AFT2n6EnUdNnxK1RsXD4ZZTWi1DD4EVy/38c757j7MaraMHqUAxUTBbl3e++k/9dQM/19rBdHQIUFLN5xXANg+ARY8pQmP/tvzOaqrhepgZU/g0bnLNHGyDrPamTz5LXBcPlzDYXtfzOZjngRKMIKWbjivALB9Aix4Tj9VWMRwnfpSXaUQ8fFtaY29e499/axG5XZx/U0fJBBBSzecVwDYvn+6BvCs47T9SzAxfK/S49exnwhWciy8IqD4E1gBADZgCiE8p1mgGpEP3HVTzOZdTCoFAAAeIMCC1Zym7UIARarMBAAAeiLAglU0VVgWrECxaP4/m587EwAA0B8BFqyq2S5043zB6Jk6CAAAPRNgwXqOnC8YtU/FbH4x9pMAAAB9E2DBOpqF66VzBqNlKzEAAGyBAAvWZ/sQjNPHYjb/7NoDAED/BFiwrqYK66PzBqNyq/oKAAC2R4AFm1GFBeNymqaRAgAAWyDAgk0024g+OHcwCreLAAsAANgaARZs7iQtbIFhO1Z9BQAA2yXAgk01C1pVGTBsN8VsfuYaA0AeyrL8qSzLg/qfLhkMiwALXuZ0scAFhkrjdgAIqizLvbIsD8uyPCnL8qIsy7rNx/+Kovi7KIp91w2G5Z+uJ7xAXYU1ndRbCf9yGmFwLovZ/NxlBYDtK8tyP4VSdx87Lg2MhwALXqreXtSEWLvOJQyKaaMA0LO09e9+UPXKdQAEWNCOo1SqDAzDp2I2v3AtAaA79RbAB8IqXwoDDxJgQRvqhe50clkUxWvnEwZB7ysAaNGdLYB1aHVQ2AIIrEmABe05UYUFg/ChmM0/u5QAsJl6CuCdiqo9X/ICbRBgQVuaKqyPRVG8cU4hW7d6XwHAau70qzqwBRDomgAL2nUiwIKsnS6miwIA30lh1cG9wMoWQKA3/3CqoUXNtqMPTilk6WYRYEHeDlw/oCN1YPXvoij+SFsChVdArwRY0L6TtA0JyMuJ6isAAIhJgAVtaxbAqjggLzfFbH7mmgEAQEwCLOjGadqOBF279VprxdEAngMAAAyWAAu60FRhmWRGH+r+E19S7zVB1mYuF1NEAQCAsARY0JVmO9K180sPXhVF8a4oivo198sikGEdwmYAAAhOgAXdOnZ+6dEfafvqkSBrZR9VXwEAQHwCLOhSszAWItCnuhrrqiiKn4rZ/ECQ9SzVVwAAkAEBFnRPFRZ9q/ti/buYTk4XIWoTZP1rUW3EXR+K2fyzMwIAAPEJsKBrs/mV4IAteVdMJ1fFdPLTIqiZzY9SkPXJBVlMb1R9BQAAmRBgQT8slNmWZkvhdLK/+P1NkHVoa2FxmqaFAgAAGRBgQR+abUrvnWu2ZLcoiotiOjn8+uu/bS0cY5B1k5rdAwAAmRBgQX9O07Yl2IZlX6yj737390HWzUiuzInqKwAAyIsAC/rSLJhVfbBtf/0QYhVfg6y9oijeDjzIuilm87MAxwEAAKxBgAV9ms1PRlTlQlx1iPVwiNOEO/tpy+sQKwZ/DO8AAIDwBFjQPw3dieDNEyHWlxS27g9sgublotIMAADIjgAL+tZUuFw77wTweIhVfJ1YeJT6Yw3hNSs8BgCATAmwYDuOnXeCqEOsp4Odpj9WXY31e8bbCj+qvgIAgHwJsGAbmoX0pXNPEH882Nj9vtn8NG0r/JThhVN9BQAAGRNgwfaowiKSh6cT3tdsKzwsiuK3jKqx3i+OGwAAyJYAC7ZlNr8aWINs8leHWAcrPYvZ/Lwoir2iKD4Ef9Z1yHYa4DgAAIAX+KeTB1t1suhBBHGcL0KsJmB9Wj2tsK4knE7qLbF1M/idgNfxNB0nPKssy3qL7E/psX/nf79asPu4+jV49566Sv+3xX+uqqrN1+j+Cv8b2JqyLJf31937bPnfi/TlyO6Kx3d7795a9jr8nB5t318AbFFZVZXzD9vUNND+wzUgkJvFYmKd4Gc6+SmFWL+Geh6z+V6A4yCQO4vng7RQ3kv/fdsB7E1acC/Dro0W4GVZZvXBrqqqMsBhPKssy/r18nfww/wqwnlNgfDy/loGVK+3dDiXd+6r+p4y1GMDud0H9RRl1xqGRQUWbN9p6ocVsXqFcdpdVGKtU3XShF2HxXRynCoLI7yeNW6nXnDtLV6bzet5f43Kjr7t3jm274LgslxkEZd3Qq16Qfa5qiq93QgjhRvLx7aCqse8vntMd+6p+l66EHIA5EEFFkSgCouYPhSz+frDBqaT/VSN9WqLz+q6mM1tpRqpVPlxlIKrqIFVG5bbpy7SP+vHf3N6AiqwutHXeS3L8uhOQJz7F3Gf0pc350PadphC/OeHtKxmL7PWFx9T6J+r+rX4fEsHGBEBFkQxnXwe+EKLPP2WGravp9lSeLrFD7q/FLO5b9RH5M4i7ch7aT4EWN3o8ryme+043WtDrB6/TUHWyRCqHDPc9sc3tkDCPaYQQhy2OxHRWTGdrN9Hqt5SOJvXi5u3W3hOl8Kr8agXZ2VZnqXKoz+EV9CNOri6c6+9G3Drg5305ct/6+ebAjvonfAKfiTAgihm87PFtieIZSd9E72Z5nX9c/pGuy/rb3skOym4ukiVBaa5QofKsjxOW1THdq8tg6yTNAAiRy+dosp23Djv8CMBFsRi4U1Er4rp5HTj45rNr1LfjD4C2o/p9zFQ94KraI2iYVBS1VV9v/058mEzdXXnVdqOB33wWQYeIMCCSJptT5euCQG9K6aTzT+4N1MKD1KT3C7ZijtQdxbSgivoQRqGcOV++6renvx3qkaDrgmw4AECLIinrUkx0Laz1Jx9M01frMM0FagL74vZPPuGu/yo3r6T+u5YSEMP0nTB/4y86uoxf6ZeYLkwkTdPAix4gAALomkW4F0t8OEldlupcGqau79v+UrcpqmHDEjaLvg5bd8BepDCq7+c6ye9KcvyKpO+WLn27ho7X8jBAwRYENNJz02vYVUv20q4NJuftDyh8DRtU2QgUtXV36YKQn/StkFfBqzmVVEUFxk3dyewqqpUYMEDBFgQUVOF5QMkUb1sK+FSM6GwjRDrJgViDEDqdXWl6gr6lYKYC9sG1/IqnbPI9vI4ldyhHy48QoAFcZ2qwiKodrYSFq2FWMKrgSjL8jD1/Xg19nMBfRJevcir4D2xVLHmx/ZBeIQAC6JqtkNZmBNVvZWwncawLwuxrtO/T+bSZK9/W0DDVpwJjl/kTdr2DG2wfRAeIcCCyGbz08X2KIipvW2um4dYxpkPQKpe+HPs5wG2Id1/vzr5L/ZHPXgi8+dADAIseIQAC+LzjV4Ml488xhwwvi6mk6PWfloTYv2+xr9xWczm0XuP8IR621JZlvU1fOM8Qf/SxEH3X3vOIzV1F6hlS4AFjyirqnJuILrp5GIRFtCX6/pDaOoHcrXSdLtmMl/92B/ZN9l1A/V2G8ROJ2crLqh+LmZzH/Iydafnjm1LI1ZVVZnDs09BwN8BDmUlq5zXFF79FeOIB+VTVVWHEZ5Qbq9bFm6rqjLZEh4hwIIcNOGIDyDduk49QM7TFMjNNRP6DtNjDGHW+9anAE4n58+cu4/FbN5e9Re9El6xJMDqxnPntSzLfU3bO/VbVVXn2z4IAVaWLquqUjkHjxBgQS5UYXXlcrFNs6utaNNJXZ10lHo1DXWhcLsY071KpdqqmhDwqYDjXy8OGtkK4RV3CbC68dR5LctyL21REl51p24vsF9VVXt/FzeQhmPoL5iX91VVaR8Cj9ADC/Kh2qRddXD1SzGbH3TaR6kOWZrqpL1FpVIT9gzNTuu92pow7PCR8/VeeJU14RVsSQqQz4VXndsNMmTEVrT8+HwDTxBgQS6aBftH1+vFbhfT7roOru6rA5lvQdYQr+O7VG3WnuY1f7+PyG2r0w/pVZp2JryC7REg9+c4UkN3sqG3JzxBgAV5ORloBU9fLtNWt7OtHUETZB0tqr+GN8Gw/ZL3JmR8/93vaHOrIr0py/LUtDPYHgFy79qvTl6fAC0zVVUJsOAJemBBbqaT+sPQH67b2tpvNP5STZ+ns4E1ev+lk8q2pgfcXusTD+mFaWc8Rg+sbtw/r2VZ+uywPf+3rV5YZVnqn5qX66qq9sd+EuApKrAgP6eqsNay3DIYryFmU41Vb5H7EOBo2tLVeT7UBy5PadqZbZ+wJSlAFl5tT4ReWORB/yt4hgosyNF0opphNXV4Vfe6il+OPaxr+lsxm299fDjbZ+Igz1GB1Y3lec3tuAdqMal3G1VYKrCyYwIhPEMFFuSo6eE0tP5JbcsnvCq+XtO3AY6kDaptWDoVXkH/6uAihRe+TNi+nQcGkvRFeJWX/oYLQaYEWJAv39A87TCb8GqpCbGGsJ1wN1WUMWJlWR5q2g5b8zo9dlyCEGwjZBW2EMIzbCGEnE0nnxdhAfe93eqkwZeaTs4H0Nj9NjVdNzFwhNLWwc8WzzzHFkJG5Oe+J8yVZWmhl4/bqqpMjYRnqMCCvKnC+tHHrMOrxtEAtoju+MZ51M6EVwDf6bUyuSxLU3vzkteuAdgSARbk7dxEwu/cDCI0aaqWhrAF77iYTnyAHpm0dTD3CkKAtvX9d93f37wIsGAFAizIWRN05F5t1KajwWxZm80vFtVkedtRJTguaeugJv4AP9pJAT88RP8rWIEAC/InwGp8TKHPkBwPoMLuTTGd7Ac4DvpxrC/fk+r7+XKFBzBMBz0+K/2U8qICC1agiTsMgWbusRuGNwHOT4sPJ+se43RSVzD90dmx9eOymM37/NDOFoyscftleq7148v9hUdVVa2H6WVZ7t9ZkC7vp+X/LdtR+Zq4Z+1mzaqRbF+nLbqpqqqXrX1lWQ7h88No5PJeCNv2T1cABqHuhfVuxJfyNER4NZ0cpIXlQeo98WOoOJ0s/9N1+uB/sXjM5o9983Y6gA+grxfnZngVcnzvZMDh1XV6n73oIpxaxb3pZT8cQwq49lMV3KttHCODcHMnnL0f0H5pY4peeq3updfrQfrnWIY+7NbPv+9phISX++Ae6I0KLBiCpsLnPyO+lv+3tQCrCa3qxqyHL/wAfpPCqrMfnst0crbYipe362I2t5VwoAZafXWbQqvTnBabuVVdqMDamusUTC2/SGklnNpUCrWWf0uHXlH+e1VVnfcKTFMI2672qq/Tny3/zC59zKS31OeqqrQEgRUIsGAoppMvIx1bX/e+6n9iXxNcnXSwJeJ28XNn828fbqeT+gP9v1v+PdvwtpjNfUAboAFuVflQ34dVVWU3FEKA1Y0BBFhfqwjr4Cryazud66MBfHHzmMuqqrLcVp/hffDLtqpmgW5o4g7DMdY/0P0GItPJXjGdXKQPcF3089hZfLs5nVwtflexmEh4PoBm7sUimJtONJUdpuOBPKt6kf9zVVXHOYZXcM/l4ouDovi/qqrqbWt1KHsR/bWdjrEOsP41gGm8D9ELDGBDAiwYjjH2U7jpta/SdFIv0v/b04fPV4tr+m2C3xACyt0BBR0kZVkeDaT680Na5OtNwxD8Vlf51NuScg1jq6r6nIKsX4bWIyhVMgGwJgEWDMcYK7D6ec511VDTh6rvvg87i+fYhFhDWVQfq8IanCGEkm/rqqsAxwFtGUwFYdoCtj+waiw9IQE2IMCC4Rhj1cB557+hCVsuttiLY2fZs2RLv79tO6l3GAOQmgTnPvHurea5EFtdRZaqsYYSYqnAAtiAAAuGYltT+Lar2wqsb+HVthfoQwt93n3t70Xucq9aEl5BRgYUYqnAAtiAAAuG5XJE1/O2h9AuQni1lHuVy32djxCnF4cZn+YPwivITwqxcv+8s1uWpe30AGsSYAG56nZLXdPzamihUSS/FtOJLRQZK8tyPzXmz9GlnleQtaMBXD5VWABrEmDBsIypD9bnzn7ydHK4xZ5XY6IXVt5yrb66HcjiF0arnlA4gK2EAiyANQmwYFjG1AermwCr6XtlW1E/XhfTiSAhX7kGWCdp8QvkLfcvQfSCBFiTAAvge6epaTr9UIWVodS7JccttjdVVem/BgOQguhPGT8TFVgAaxJgASw1k/FsHezXbjGd6EWUn2yrrwIcA9CenCumVWABrEmABfCNxe12nKStm+Qjxwb8N6YOwrBUVXWe+trlKNchGABbI8ACKFRfbVm9ZVMVVl5yDLAE1PFcjv0E0IrzXE9jmuYKwIoEWECu2i69z3VL1FD8kUJEgkv9r3KrHLjNeZELPCnne1v1McAaBFgwLGP6Jq/tsMM0vO1TIZOHHKuvzquqGtOUVhiNtI0wV764AViDAAuGZUzf5LUX1jX9l3KcqDY0b4rpxHaK+HK8RnpfwbDluh1VgAWwBgEWDMuYAqydFrec5VhRMlSnYz8BGcjtfrmtquoiwHEA3XGPA4yAAAuGZWxVRG0tpFX9xPG6mE4EirHldr/ofQXDl2uA5e8dwBoEWDAU49x6JcAaJtu9gkoN3HcyO2yVGTBwqiwBxkGABcMxxj4KbU0ONAUolt1iOtFUP6Ycw14LWxiHG9cZYNgEWDAcYyxDr/tgtRViEctpaq5PLLkFWHX/q88BjgPo3lWG51gFOCW7KzEAAB5RSURBVMAaBFgwHGPtoyDAGqZ6m9rx2E9CQLlVeua4oAU2k+P9ntuWbICtEmDBEDSVKmNr4L70RqXOYB27tuHkVi1g+yCMh2pLgIETYMEwjH2KjUqdYdpZbCUkEhVYQFQCLICBE2DBMIx9G51KneGqK+zGOKAgqt3MjvdLgGMA+iHAAhg4ARYMw9gDrJdW6ljkxnY29hMQQVmW2QWJRuvDeOQ6sKEsS1/AAaxIgAW5m06ONAFdqCt1Nt1KaZtRbK9fcG1pT24BlpH6QA5MIgRYkQAL8jf26qu7zjbcSijAik8vrO3LrUrAdiIYn0vXHGC4BFiQs6Y30K+u4Ve7GwYdAqz4XqVqQ7YntyoBARYAwIAIsCBvpu/96M3aQcds/tl2oyycjP0EsBYBFgDAgAiwIFfNVjkVKQ/7q5hO1t1aed7XwbGx3WI6EWJtT249sAxngPFx3wMMmAAL8nWsefuT6n5Y62x5MukuD8cb9jnj5XILsGwNhvFx3wMMmAALctQs4G0ffFod7l2sPL1uNr+yjTALO7YSAgDA+AiwIE8nqq9WUp+jv9foiSUYycO7NMAAnmIrEQDAgAiwIDfNwv2d67aWuifW2bNbz2bzM1VY2RA29u91TgdbVZWtREAOhO0AKxJgQX4s3DfzZtEb4/kthbZm5uHNyttDASAoYTvA6gRYkJNmwf7GNdvYbtpS+Hg11mxeTyP8lMWzQZgLAAAjIcCCvFiwt6MOAT8X08nJI72U6p5Ztzk+sZF5XUwnh2M/CQAAMAYCLMhFU32VVQ+a4OoG738URfHfVJH1LQiZzet+FLan5eF07CcAAADGQIAF+bBQ705dkfXvYjr5ksKs5dTCt0N8sgOzW0wn+pZ1rCzL/cwOWQUlAMDACLAgB02g8sq16txOCrP+KoriP+mfFsLxnTw7YZKXyu38aooM5MDkY4A1CLAgD3pfbc/OWJ94RnZMjwQgQ59dNIDVCbAgumZ71K7rBE86fqQhPwDj4e8AwIAJsCCyZluU6it43o57hTssYmGc3PsAAybAgtiObWGDlb0pppPcmo3TDVWrQA706wNYgwALomqqr/T1gfWY1glALr64UgCrE2BBXKeqr2Btr4vp5MBpAwCAYRFgQURNM+o3rg1sRBUWwDi9zuxZ20IIsAYBFsSkGTVs7lUxnRw5fwAEZwshwBoEWBBNs/0pl+qrmwDHAA85SX3kGKmyLDX0B6ITYAGsQYAF8eRUffW5KIrrAMcB9+0agjB6AkwYkRxD66qqbCEEWIMACyJpqq9y6t/wOgVutwGOBe47VoUFMBre7wEGToAFseTY+6pumG3qGxHtaOg+antjPwFAaCrYAdYkwIIomqbTuU3PKdJWrbps/22AY4H73qSpnrxAVVUXGZ4/1x3GJbcv0/S/AliTAAviyHny4Ekxm58JsQhKFdY42U4ERKb/FcCaBFgQQVN9tZvxtdhdPIcmxPoY4Hjgrl9TfznGxRRCGJfc7nkVWABrEmDBtjVNpodQIdJUkM3mR0IsAsq5wpHNqMCCccntns9xazbAVgmwYPuOU7Pp3O2mSjIhFhG9/vr6ZCxeudIwKiqwAAZOgAXb1FRfHQ/oGpyk5yTEIiJVWC9zm9sBl2WpkTuMR1ZfBlZVpQcWwJoEWLBdJwOpvlra/S6Qa0Isjd2Joq4SHFJg3LccF1sCLBiBsixzq766CXAMANkRYMG2NKP93w3w/B9/rcIqFiGW6YREcvLd65Oh07wfxiG39/XPAY4BIDsCLNieoW5n2vnhuTUh1i85bkFicHYGtm2Xp5lECOOQW1itgTvABgRYsA3TSb2oejPgc/8uVZh9M5tfpA+YQiy27Y8fXp+sIseKAdcZxiG3e13/K4ANCLBgO05HcN5/fI6z+VX6kHm9lSOCbzR0X1+OAdarsixtGYXhE2ABjIAAC/o2nRwsRvoP36/puX5vNv9SzOb7JhSyZW8efH0yRLYRwvDl9LnqtqoqPbAANiDAgv6NqfLj8UqzZkLh770eDXxPFdZ6vuR0sHcchjkSANVXABsTYEGfppOjkVRfLb1Kz/lhs3kdcP2sLxZb8loV1lpyXXS5xjBgZVlq4A4wEgIs6NcYKz5Oi+nk8R403/piXfZ6VNA4cx4GTx8sGLbcqiwFWAAbEmBBX5pKpN0Rnu+dZ4O7pi9W/Q3q+96OChq7T1YJclfOPVtsI4Thyur+rqpKgAWwIQEW9KGpQBrD5MHHvCumk+cbKc/mddD1iy2F9OzpKkEWMm86LMCCASrL8jCzLwdVm/fLEA8YGAEW9OM4VSKN2WpbtWbzi7Sl8JPXJj3ZSfcoz8s1XP61LMvcxuwDz8vtvVv1Vb98OQUDI8CCrjWVHRbHTUP31c5Ds6XwME0pVI1FH45VYa0k5+lZtorCgKTqq9wG45wHOIYx8cUFDIwAC7p3ovrqq5NiOln9w0QzpbAu/77u/MgYu52Rb/Nd1Zc8DvNBAiwYiDSYIbf37NuqqnL+EiBHAiwYGAEWdKkJa945x1+tHxLM5p+L2Xxfg3d68GatgHWccl587ZZlKcSCYTjJcDCO6qv+6YEFAyPAgm49PX1vnH4tppP1Gyo3Dd5/Vo1Fx1br1TZeOVdgFd6TIX9lWR5k+uWgAKt/O/ofwrAIsKArzdS9N87vg8426jc0m1+pxqJjr4vp5MBJflTu21/qKiw9CSFTKYzINQjSwH07/E2HARFgQXf003nczosqXVRj0S337uOG0L/lxDfykJ/U9+o8076in6qqyr2CNVfrV/0DYQmwoAtNBUduk3H6ttlWwqXvq7FMKqRN9cRMvZIekBZgN+EObD0vC9CB3qXw6mLx/pwn2we359f0+gEGQIAF3dBnZTVnL26a3VRj1UHWZX+HzQi4hx83hCqs17YSQh4GEF7V0weF5tulCgsGQoAFbWsqN1RfraadSohmUmFd9fZWNRYt2S2mEyHWw4bSx+VPUwkhtgGEV8WQqq+qqsr1/d/fcxgIARa0zx/J9bxuLSiYzeswrK7o+tjf4TNgxxsNGxi+ITUi/kuIBTENJLwq9FUMwQAPGAgBFrSpqb7adU7X9kea2vhys/mXYjavr8MvA+jVw3btCKR/VFXV1cAqHYVYEExZlvtpu3Lu4dV1es8cklzf/0/S6yqkerhIWZaHZVnWx3khcIOHCbCgLU2lhm/ZNnfearXLbH5RzOZ7mrzzQu9e3KdtmIY2Dr4Osc5zbfRbH3cdwtXPYfGFAGQqvZbrLw7+M5AvBIf4uTDXQK7+Uuo8whTaB8KqekDKf4ui+Hd6D389kH6T0DoBFrTnONPRzlHsdjIZ7FuT90+5nhi2ThXWj4Y4UevXoig+pwVF+CArLYCOU2j1vzqES88BspNez/V77ecBhbC3A32v/BLgGDZVf9a8KsvyoI9fll7XB+nvylkKq6oHwqqH1g85n2foTFlVlbMLL9VUDn0WYLXifQqd2jedHKSQzDZP1vXLoqqPhfQN9n8HfDaWC8/zqqpCLEBTqHaQHocDeR+7rKqql4XkS6UF7985HGvyKVVwXKWF8FVVVaEWxGk7V31ejwawVfAh76uqGtwXICloHELIeJk+E15UVfV50x9yJwyrX8/L9+mfXvqarqqqfMm/D0MlwII2TCeni61GtKXbsKBpGq9ijnVcpkmXJGVZDqE/zaqWYcBFH1O4Uli1f+dxMNDgXYDVv+sUaH1Oj+LuluAuXt8pqFq+pvfSP4c+rbkOwfeihYZtSD0D/8r/mXzn9s6WvasHqp+Wr9+lvY7fk2+rqjJEBh4gwIKXavrjDLkSYRtuFwu22by7/f/fepa9iXwiCOW3YjYf4naQjaQGs39meOhtuE6L/6s7QcCXdZo13/nWfu/eY39E4boAK7bbF/Th6XqBH93HqqoGORxipPdC37J5b4S+CbDgpaaTMyFIJ65TiNXtt5fNtsKTEXwbzMvdpMEAjGMbId0TYDFEdfC3/5JtadGlPk5051NVVYfOL/xIE3d4ielkX3jVmVe9ND9tphXWC5O3i4ACHrdbTCfGWidpcXYZ4mAA4jgdcniVXIc4iuEygRAeIcCClxnieORIXqcKt+7N5mdp68779O0pPOQkbT+l0c/9CZCH25F8NjTUpFsmEMIjBFiwqWbrmW1n3XuTmq53r96u2ExArIOsjwM+p2xuJw0AoKnCOhP4Anx1MsTG7Q9QIdQt5xceIcCCzQ1uNHJgfxTTSX/NUGfzz8VsXv++n22R4gHHaXgDDVVYAEVxU1XVWCrzDTQBtkKABZtowhTVV/36q9cQq1gEWVepP9Yv+mNxx44A+zu2UgMUxSCnDj4kVZnpg9WRqqps0YRHCLBgMxav29F/iFV8bfS+lxq92y5Fkba27jsTX5u523ILjNmHEYYOQhagdwIsWFcToOw6b1uznRCr+NrofU+jdxKVR9/YRrh9N2nLs23P0K+bkX6x6X2/G97D4QkCLFhHM33MonX7thliLRu976k6Gb3XaZjD6KXKAx+6t6feyrNfVdVB/RCwQ6+ORtK4/TtVVV1prwD0TYAF6zlO/W/Yvu2FWMXXIKv+/f8SZI2aQPsbW6u3ow6rDu8toG3tgX6McevgXaqw2uf9G54gwIJVNdVXxufHst0Qq/huYuEvKlBG6dXWX4NBpEWcMLdfdXh1kPqQ3WUBBN27rqpq7J8LBVhArwRYsLoT1Vch1SHW9j9ANo3eDwRZo3SaAm6a90nb1/pznLbx3CfAgm4twuOxn+MUnn8KcChD4v0bniDAglVMJ3W/o3fOVVh/FtNJjG8BvwVZb/WGGI2dMY1Pf0pazNhW2Y+3VVU9+L6XQi1BInRjWfk4ur5Xj/CeD/RGgAWr0dslvjfFdHIephKmnlg4m+8JskZj7NtIvqqq6iQ1Fac7Hx8Lr+7wLT5047HKx1EyxKNdI++pBs8qq6pyluApTfXVfzs+R5dpsVF/ILr7jd5BmnZX/3PXdVrJ9aIaZjaP9eGy2eZoG2q76mt9/vXeqRvrLzVB5n66d456un9+K2bz896efWBlWdbn/j9jPw8dqcOrZyv+yrI8XlSnxnaZpiaGV5ZlfZx/5/ZioXWPVj6OmfujPVVVlUN5LtAFARY8p9ma9qaD83STAo3z7xbej2nG9Z8sRvfznNsUYsUKE74NAjDN8mUuF/dCvV1zVc39c7pout6dj6mhP/kEKLm5XnXrUiYhogCLnAivnlCW5YXPqC+WzXsibIsAC57SBA7/6+AcfUgL8PX7J0wnh2nqiwDkeR+K2Tze1i5B1kv8Xszmm/fbmE5OO+1nN5v75vSOsizrEPnXMAeUt5XDq6WyLL8Ef48RYJEL4dUzyrLsY8fC0Amw4Bl6YMHTuqimeLsIVTYJr4rFAvk8bYvSoPd574rp5CrchLj62s/mJ2l76HvXcmVvXxReFYtzf5z6knWjCZj55kg/rFZs2jRaLxV4mVvh1WrSEI/3ORxrYN6z4RkCLHha2wHW20Vz75dq+jsJsZ53vahy2jQs7Nq3IGt/sf2Mp/zeyr1TpAb7TRVkF3xzekcKXA4MMniRl0w8sxiCzS3vPeHVigzxALomwILHNM3b2+yX86m1BXjxNcTSb+dhNyks3F+rT9K2zOafU++kfwmyHnT54sqr+5pKrC5Clf0OfmbWUvByKHDfyHIBvelQCgEWbKbutbhn2uBGjrzfb8x7NjxDgAWPa3Mr0G0nYVOzndDo4m9uU/n6fqthYV8EWY/pKqjtoj+aBrYPSItAVaPre9G4/vTvOuewuvp++b3uQ7Rh1ePopfedeP1HgUEQYMHj2twKtNqkwc20W5mSrw+LnlL1lryoWwZXJci663JxPrrQBMDtV2FF67kWRFrU7NlesrK2+u74Rh9WU/+93a+qyueqF0rvXV1t1R+sqqq8X8MzBFjwuDYDrO4+DHW1CM/Hx0XQ85LG+FEJsopF+Jvfz7eN8BF3emJ9CnmAcbTZNNqCCJ62bNR+lBqR04Kqqo59CQe0TYAFD2n6X7U1evw29avq0hgXKPXWyV8WAU9XFTpRjDvI6vq1bXHfszrEqqrq0LSqR/3ectNor3F43MfU60qj9g7UoaAQa2VagsAKBFjwsL0Wz0sfDUDH9I1hXW32WzGbH2TRoL1NYwyyug9/NejdkjSt6mcTCr/zse3tS/pghXSTqhBdl+1ZVG+nqiu9rjqUQixfWACtEGDBw9rcPtjHB6MxBDm3abLgXto2OV62FrZn6NV7wdXhSlVVe2lxM/bF/Me00OuCKqw4PqU+S4dVVf20qCRuegXpDde9m/Re83+2C/YrfWHxm/f5J3mfhhUIsKB7KjxeZjlZcC/LyYJdGn6QpZx+JNLiZsxB1tsOw6vCwiiE+nX9Wwquvn6xVTdtrnsFVVVV9877v7TIF2i15yb9ffy5Dsvr9xoVV9tRVdV56hHpbzuwMQEWENnHwUwW7NJwg6zXAY6BnqTeWMsgayzTq25SqNF1OC/A2q7L1GfpyerhdA+cPxJoWfSv7jqds2VodZS20rJlddVbVVUH6XVt+3hjGbL6khZW8E8nCR7U5hj8NrcjPmZoY/vrD+rDb87etuZ8HRXTSR0C1I83w3qCHZhOhnbvZC9VRxyXZVn3gjpevKbbG6oRRb2N7LyvxtH14r0sy9sBnsfo6nN+smlfs3QvnN+dllqW5UGqYlk+Xo3lZD7hJoW0i4etgfGlMPe8LMuj9Hlld0RPf/l6vUp/B7xeYQ0CLHhYm4vaPhbIQxnbf7n4IDO25uxtG1KQNZ3sd9zIvYt7R7VgC9KH+uMUZtVTC5ePHEOY27RgOU8Llm28Rurf/+sWfu9YLb6IaXtxWm85vF9Rdy/U2ht49eptWvgvA4ALWwLzlUL8s/QaPsr4Pf4pl3dfswIreBkBFjyszT8urxZVHt1ugcs9wLpJwZXy6TYNI8g66LiPXPsVkt1PThyd5bf1RbNYP0zX7SBw9cntvYqQCK8JAVZ/3qftsL14JNRahlnLYOunDIOt6/R57Gr5sPgfpruv4Tvv8YeZVWbdpNfrxfJ1a+sqtE+ABf047Gxve7MFKtdFyW0KrlodG889eQdZ9b3T5euj7cbZGi937F6Y9dOdMGt/Swv0+4uWqFuYVLZ27zpVXW190ZqO4eru9sPi2z2zDLf2UrC1DLi2EQjf3AmpvqTX6RcL//G68x5/fOc9/m6F4Ta/uFj2olu+Xq/S69X7K/REgAX9OOqwOeNhptfw/SKY0Jy9P3kGWa+L6WSvk35o08lBB9/uWnT16JEeQcvF+LK6brlQ38TVvS2hXxcpuS1YUh+saI3Ac7pfvjzTSP2iz6qrTaV75snXblmWd++Z+/fPT2tWfT92D31WTcVzHnqPL74PYos7AWzxyH9fxf3X6ec7uzEEqhBIWVWV6wH3NQvbv1s+L7+03tupqb66yqzE+mOquvLBddvqYCiPIOuymM3b3+o3nVx18E3u7yoKAQCgff9wTuFBXYQrpx1MPMtpckv9zfXPxWxuumAU9XWor0dR/CsFi1HVVVjtbvVrqtC62Ibw5Jh8AABgMyqw4DHTyZcOJqF8TIHByzUL+r8yuH43i21rJgvGF78i6+dWGqR3d+/cFLP5plvVAACAJ6jAgsd1Ebi8KaaTsxdXYuURXtXB1dvFgl54lYf4FVn/eXElVlN51dW9o/oKAAA6ogILHtNtSFRPKjpeO9hpKmROg08dvE3HqEF77uJWZF2mqr7Vt6I2fe1OOp5S9y/bYwEAoBsCLHhMUyX1v47Pz2WaTnj+ZNjTLL6PMmi2/SE1aBdcDUnsIOt8US350NbC5r7ZT/dO12O3u2k0DwAALAiw4CnTyXmP1U7XaYTvsiprOQa4y4qRtnxKFWWqT4Ysn6mF2/BbMZvbQggAAB0RYMFTmgqOv52jR12miis9rsZkOtlP20RzCFf7oHk7AAB0TIAFz5lOLizUf3CTKq5UnIxZP32lcqD6CgAAOibAgueowrrrNgVXZ3EOia0bd5Cl9xUAAPRAgAWrUIVlsiDPG2eQ9fODDeQBAIBWCbBgFU3z6nqRujPC8/Ux9bnSoJ3VNEHWaQ+T/7btfTGbn3hVAABA9wRYsKrp5Lgoij9HdL7qBu1Hgis2Np0cpYqs3QGexOtiNt8PcBwAADAKAixYx3RSN2r+deDnzGRB2jW8IKveUrsv3AUAgP4IsGAd08lPRVFcDHRr1E0KrjRop33NvXOcHrlvxdX3CgAAeibAgnVNJ/spxBpKP6zb1JxdLx+61wRZ9WvtXaZn+62QFwAA+ifAgk0MJ8R6b7IgW9EMRjjNbEuu8AoAALZEgAWbyjvEMlmQGJqJhXVF1uvgV0R4BQAAWyTAgpfIL8S6XPQg0r+HaJpG76cB76XbNI3zPMCxAADAaAmw4KWarVDnwRu736RFuMmCxBWvP9Z1um8EvgAAsGUCLGjLdHIasDG1yYLkp6lsPN3ytsIP6d7RHw4AAAIQYEGbmn4+dVi0u+XzepsCAA3aydd0cpwqsvrcVqhaEQAAAhJgQRe228/nY+pzJbgif80W3TrEetPxc1GtCAAAgQmwoCtNP5/DtPjuuiLrNlV+nZosyCA1QdZRerR5P12n+0ZwBQAAgQmwoA/N1sKjFGi1WZX1KTWQP1dxxWhMJ4fpXjrYMMy6TtNDzzRoBwCAPAiwoG9NmLV87K8ZaF0WRXGVFt8XQitGr6nM2k+Pn9I/71v2s7pY3D/uGwAAyI4ACyJoQq2nWHQDAAAwWgIsAAAAAEL7h8sDAAAAQGQCLAAAAABCE2ABAAAAEJoACwAAAIDQBFgAAAAAhCbAAgAAACA0ARYAAAAAoQmwAAAAAAhNgAUAAABAaAIsAAAAAEITYAEAAAAQmgALAAAAgNAEWAAAAACEJsACAAAAIDQBFgAAAAChCbAAAAAACE2ABQAAAEBoAiwAAAAAQhNgAQAAABCaAAsAAACA0ARYAAAAAIQmwAIAAAAgNAEWAAAAAKEJsAAAAAAITYAFAAAAQGgCLAAAAABCE2ABAAAAEJoACwAAAIDQBFgAAAAAhCbAAgAAACA0ARYAAAAAoQmwAAAAAAhNgAUAAABAaAIsAAAAAEITYAEAAAAQmgALAAAAgNAEWAAAAACEJsACAAAAIDQBFgAAAAChCbAAAAAACE2ABQAAAEBoAiwAAAAAQhNgAQAAABCaAAsAAACA0ARYAAAAAIQmwAIAAAAgNAEWAAAAAKEJsAAAAAAITYAFAAAAQGgCLAAAAABCE2ABAAAAEJoACwAAAIDQBFgAAAAAhCbAAgAAACA0ARYAAAAAoQmwAAAAAAhNgAUAAABAaAIsAAAAAEITYAEAAAAQmgALAAAAgNAEWAAAAACEJsACAAAAIDQBFgAAAAChCbAAAAAACE2ABQAAAEBoAiwAAAAAQhNgAQAAABCaAAsAAACA0ARYAAAAAIQmwAIAAAAgNAEWAAAAAKEJsAAAAAAITYAFAAAAQGgCLAAAAABCE2ABAAAAEJoACwAAAIDQBFgAAAAAhCbAAgAAACA0ARYAAAAAoQmwAAAAAAhNgAUAAABAaAIsAAAAAEITYAEAAAAQmgALAAAAgNAEWAAAAACEJsACAAAAIDQBFgAAAAChCbAAAAAACE2ABQAAAEBoAiwAAAAAQhNgAQAAABCaAAsAAACA0ARYAAAAAIQmwAIAAAAgNAEWAAAAAKEJsAAAAAAITYAFAAAAQGgCLAAAAABCE2ABAAAAEJoACwAAAIDQBFgAAAAAhCbAAgAAACA0ARYAAAAAoQmwAAAAAAhNgAUAAABAaAIsAAAAAEITYAEAAAAQmgALAAAAgNAEWAAAAACEJsACAAAAIDQBFgAAAAChCbAAAAAACE2ABQAAAEBoAiwAAAAAQhNgAQAAABCaAAsAAACA0ARYAAAAAIQmwAIAAAAgNAEWAAAAAKEJsAAAAAAITYAFAAAAQGgCLAAAAABCE2ABAAAAEJoACwAAAIDQBFgAAAAAhCbAAgAAACA0ARYAAAAAoQmwAAAAAAhNgAUAAABAaAIsAAAAAEITYAEAAAAQmgALAAAAgNAEWAAAAACEJsACAAAAIDQBFgAAAAChCbAAAAAACE2ABQAAAEBoAiwAAAAAQhNgAQAAABCaAAsAAACA0ARYAAAAAIQmwAIAAAAgNAEWAAAAAKEJsAAAAAAITYAFAAAAQGgCLAAAAABCE2ABAAAAEJoACwAAAIDQBFgAAAAAhCbAAgAAACA0ARYAAAAAoQmwAAAAAAhNgAUAAABAaAIsAAAAAEITYAEAAAAQmgALAAAAgNAEWAAAAACEJsACAAAAIDQBFgAAAAChCbAAAAAACE2ABQAAAEBoAiwAAAAA4iqK4v8BvqwPJn027CAAAAAASUVORK5CYII=;" vertex="1" parent="1">
          <mxGeometry x="780.1700000000001" y="420.55" width="151.66" height="75.83" as="geometry" />
        </mxCell>
        <mxCell id="Qz6fXgYHEP6Uw-YGUnhL-4" value="" style="shape=image;verticalLabelPosition=bottom;labelBackgroundColor=#ffffff;verticalAlign=top;aspect=fixed;imageAspect=0;image=data:image/svg+xml,PHN2ZyB4bWxucz0iaHR0cDovL3d3dy53My5vcmcvMjAwMC9zdmciIHdpZHRoPSIzNjQuODQ3OTkxOTQzMzU5NCIgaGVpZ2h0PSI5OS45OTk5NDY1OTQyMzgyOCIgdmlld0JveD0iMCAwIDM2NC44NDc5OTE5NDMzNTk0IDk5Ljk5OTk0NjU5NDIzODI4IiBmaWxsPSJub25lIj4mI3hhOzxwYXRoIGZpbGwtcnVsZT0iZXZlbm9kZCIgY2xpcC1ydWxlPSJldmVub2RkIiBkPSJNMzIuNzQ3OSAxMi4xMzI3QzQzLjM3MTMgMC4xMTM0NjUgNjAuOTYzNSAtMy40MTIzNyA3NS40MjY1IDMuNTI1MzJDOTQuNjQyNSAxMi43NDQgMTAxLjY1MyAzNi4yMjc0IDkxLjE5MDcgNTQuMzQyMUw2Ny42NTU1IDk1LjA0NzVDNjYuMzQwMSA5Ny4zMjIxIDY0LjE3NTggOTguOTgxNyA2MS42Mzc4IDk5LjY2MTlDNTkuMDk5OCAxMDAuMzQyIDU2LjM5NTcgOTkuOTg3MyA1NC4xMTkxIDk4LjY3NTVMODIuNjEyOSA0OS4zODQ5QzkwLjIwMzQgMzYuMjM3NyA4NS4xMjYzIDE5LjE5NjIgNzEuMTk0NiAxMi40ODY1QzYwLjc0MTUgNy40NTIyOSA0Ny45NjI5IDkuOTY3MTUgNDAuMjQwNyAxOC42MjQ4QzM1Ljk4MTEgMjMuMzc3NyAzMy41ODk2IDI5LjUxNCAzMy41MDk5IDM1Ljg5NThDMzMuNDMwMSA0Mi4yNzc2IDM1LjY2NzUgNDguNDcxOCAzOS44MDcgNTMuMzI5NkM0MC41NTA5IDU0LjIwMTQgNDEuMzUxNCA1NS4wMjMyIDQyLjIwMzQgNTUuNzg5N0wyNS41NjkgODQuNjE2NkMyNC45MTg1IDg1Ljc0MzUgMjQuMDUyNCA4Ni43MzEzIDIzLjAyMDEgODcuNTIzNUMyMS45ODc5IDg4LjMxNTcgMjAuODA5NyA4OC44OTY5IDE5LjU1MjkgODkuMjMzOEMxOC4yOTYgODkuNTcwNiAxNi45ODUyIDg5LjY1NjcgMTUuNjk1MSA4OS40ODdDMTQuNDA1IDg5LjMxNzIgMTMuMTYxIDg4Ljg5NTEgMTIuMDM0IDg4LjI0NDVMMzAuMDkyNSA1Ni45NDg3QzI3LjQ5ODYgNTMuMjA5MSAyNS42MzU4IDQ5LjAxMjQgMjQuNjAyNCA0NC41ODAxTDEzLjUzNjQgNjMuNzk2MUMxMi4yMjEgNjYuMDcwNiAxMC4wNTY3IDY3LjczMDIgNy41MTg3NSA2OC40MTA0QzQuOTgwNzkgNjkuMDkwNiAyLjI3NjYzIDY4LjczNTkgMCA2Ny40MjQxTDI4LjYxNjcgMTcuODU2NkMyOS44MDc4IDE1LjgyMTEgMzEuMTkxMiAxMy45MDQzIDMyLjc0NzkgMTIuMTMyN1pNNjUuNzc3MSAyNy45MTAxQzcyLjY2ODkgMzEuODkwNCA3NS4wNDkxIDQwLjc0MiA3MS4wNjE0IDQ3LjYzMDhMNDMuNjIgOTUuMDQxNkM0Mi4zMDQ2IDk3LjMxNjIgNDAuMTQwMyA5OC45NzU4IDM3LjYwMjMgOTkuNjU2QzM1LjA2NDQgMTAwLjMzNiAzMi4zNjAyIDk5Ljk4MTQgMzAuMDgzNiA5OC42Njk2TDU1LjU2MzcgNTQuNTNDNTMuNTE5MyA1NC4wOTk3IDUxLjU5MjYgNTMuMjMwOCA0OS45MTY3IDUxLjk4MzNDNDguMjQwOCA1MC43MzU5IDQ2Ljg1NTYgNDkuMTM5NSA0NS44NTY3IDQ3LjMwNDVDNDQuODU3OCA0NS40Njk1IDQ0LjI2OTEgNDMuNDM5NiA0NC4xMzEyIDQxLjM1NUM0My45OTMzIDM5LjI3MDMgNDQuMzA5NCAzNy4xODA1IDQ1LjA1NzggMzUuMjI5OUM0NS44MDYyIDMzLjI3OTMgNDYuOTY5IDMxLjUxNDQgNDguNDY1OSAzMC4wNTdDNDkuOTYyOSAyOC41OTk2IDUxLjc1ODMgMjcuNDg0NCA1My43MjgyIDI2Ljc4ODRDNTUuNjk4MSAyNi4wOTI1IDU3Ljc5NTYgMjUuODMyNCA1OS44NzU5IDI2LjAyNkM2MS45NTYxIDI2LjIxOTcgNjMuOTY5NSAyNi44NjI1IDY1Ljc3NzEgMjcuOTEwMVpNNTUuNzk1NyAzNi44MjAyQzU1LjMyNCAzNy4xODIyIDU0LjkyODMgMzcuNjMzNyA1NC42MzEyIDM4LjE0ODdINTQuNjI5N0M1NC4xODIxIDM4LjkyNDMgNTMuOTc0NSAzOS44MTUyIDU0LjAzMzIgNDAuNzA4OEM1NC4wOTE5IDQxLjYwMjMgNTQuNDE0MiA0Mi40NTg1IDU0Ljk1OTQgNDMuMTY4OUM1NS41MDQ2IDQzLjg3OTIgNTYuMjQ4MiA0NC40MTIgNTcuMDk2MiA0NC42OTk4QzU3Ljk0NDMgNDQuOTg3NiA1OC44NTg2IDQ1LjAxNzUgNTkuNzIzNSA0NC43ODU2QzYwLjU4ODUgNDQuNTUzOCA2MS4zNjUzIDQ0LjA3MDcgNjEuOTU1NyA0My4zOTc0QzYyLjU0NjIgNDIuNzI0MSA2Mi45MjM3IDQxLjg5MDkgNjMuMDQwNiA0MS4wMDNDNjMuMTU3NSA0MC4xMTUyIDYzLjAwODQgMzkuMjEyNiA2Mi42MTI0IDM4LjQwOTVDNjIuMjE2MyAzNy42MDYzIDYxLjU5MSAzNi45Mzg2IDYwLjgxNTUgMzYuNDkwOEM2MC4zMDA2IDM2LjE5MzUgNTkuNzMyMiAzNi4wMDA1IDU5LjE0MjcgMzUuOTIyOUM1OC41NTMyIDM1Ljg0NTMgNTcuOTU0MiAzNS44ODQ2IDU3LjM3OTkgMzYuMDM4NkM1Ni44MDU2IDM2LjE5MjYgNTYuMjY3MyAzNi40NTgxIDU1Ljc5NTcgMzYuODIwMloiIGZpbGw9IiM2MTVFRkYiLz4mI3hhOzxwYXRoIGZpbGwtcnVsZT0iZXZlbm9kZCIgY2xpcC1ydWxlPSJldmVub2RkIiBkPSJNMzIuNzQ3OSAxMi4xMzI3QzQzLjM3MTMgMC4xMTM0NjUgNjAuOTYzNSAtMy40MTIzNyA3NS40MjY1IDMuNTI1MzJDOTQuNjQyNSAxMi43NDQgMTAxLjY1MyAzNi4yMjc0IDkxLjE5MDcgNTQuMzQyMUw2Ny42NTU1IDk1LjA0NzVDNjYuMzQwMSA5Ny4zMjIxIDY0LjE3NTggOTguOTgxNyA2MS42Mzc4IDk5LjY2MTlDNTkuMDk5OCAxMDAuMzQyIDU2LjM5NTcgOTkuOTg3MyA1NC4xMTkxIDk4LjY3NTVMODIuNjEyOSA0OS4zODQ5QzkwLjIwMzQgMzYuMjM3NyA4NS4xMjYzIDE5LjE5NjIgNzEuMTk0NiAxMi40ODY1QzYwLjc0MTUgNy40NTIyOSA0Ny45NjI5IDkuOTY3MTUgNDAuMjQwNyAxOC42MjQ4QzM1Ljk4MTEgMjMuMzc3NyAzMy41ODk2IDI5LjUxNCAzMy41MDk5IDM1Ljg5NThDMzMuNDMwMSA0Mi4yNzc2IDM1LjY2NzUgNDguNDcxOCAzOS44MDcgNTMuMzI5NkM0MC41NTA5IDU0LjIwMTQgNDEuMzUxNCA1NS4wMjMyIDQyLjIwMzQgNTUuNzg5N0wyNS41NjkgODQuNjE2NkMyNC45MTg1IDg1Ljc0MzUgMjQuMDUyNCA4Ni43MzEzIDIzLjAyMDEgODcuNTIzNUMyMS45ODc5IDg4LjMxNTcgMjAuODA5NyA4OC44OTY5IDE5LjU1MjkgODkuMjMzOEMxOC4yOTYgODkuNTcwNiAxNi45ODUyIDg5LjY1NjcgMTUuNjk1MSA4OS40ODdDMTQuNDA1IDg5LjMxNzIgMTMuMTYxIDg4Ljg5NTEgMTIuMDM0IDg4LjI0NDVMMzAuMDkyNSA1Ni45NDg3QzI3LjQ5ODYgNTMuMjA5MSAyNS42MzU4IDQ5LjAxMjQgMjQuNjAyNCA0NC41ODAxTDEzLjUzNjQgNjMuNzk2MUMxMi4yMjEgNjYuMDcwNiAxMC4wNTY3IDY3LjczMDIgNy41MTg3NSA2OC40MTA0QzQuOTgwNzkgNjkuMDkwNiAyLjI3NjYzIDY4LjczNTkgMCA2Ny40MjQxTDI4LjYxNjcgMTcuODU2NkMyOS44MDc4IDE1LjgyMTEgMzEuMTkxMiAxMy45MDQzIDMyLjc0NzkgMTIuMTMyN1pNNjUuNzc3MSAyNy45MTAxQzcyLjY2ODkgMzEuODkwNCA3NS4wNDkxIDQwLjc0MiA3MS4wNjE0IDQ3LjYzMDhMNDMuNjIgOTUuMDQxNkM0Mi4zMDQ2IDk3LjMxNjIgNDAuMTQwMyA5OC45NzU4IDM3LjYwMjMgOTkuNjU2QzM1LjA2NDQgMTAwLjMzNiAzMi4zNjAyIDk5Ljk4MTQgMzAuMDgzNiA5OC42Njk2TDU1LjU2MzcgNTQuNTNDNTMuNTE5MyA1NC4wOTk3IDUxLjU5MjYgNTMuMjMwOCA0OS45MTY3IDUxLjk4MzNDNDguMjQwOCA1MC43MzU5IDQ2Ljg1NTYgNDkuMTM5NSA0NS44NTY3IDQ3LjMwNDVDNDQuODU3OCA0NS40Njk1IDQ0LjI2OTEgNDMuNDM5NiA0NC4xMzEyIDQxLjM1NUM0My45OTMzIDM5LjI3MDMgNDQuMzA5NCAzNy4xODA1IDQ1LjA1NzggMzUuMjI5OUM0NS44MDYyIDMzLjI3OTMgNDYuOTY5IDMxLjUxNDQgNDguNDY1OSAzMC4wNTdDNDkuOTYyOSAyOC41OTk2IDUxLjc1ODMgMjcuNDg0NCA1My43MjgyIDI2Ljc4ODRDNTUuNjk4MSAyNi4wOTI1IDU3Ljc5NTYgMjUuODMyNCA1OS44NzU5IDI2LjAyNkM2MS45NTYxIDI2LjIxOTcgNjMuOTY5NSAyNi44NjI1IDY1Ljc3NzEgMjcuOTEwMVpNNTUuNzk1NyAzNi44MjAyQzU1LjMyNCAzNy4xODIyIDU0LjkyODMgMzcuNjMzNyA1NC42MzEyIDM4LjE0ODdINTQuNjI5N0M1NC4xODIxIDM4LjkyNDMgNTMuOTc0NSAzOS44MTUyIDU0LjAzMzIgNDAuNzA4OEM1NC4wOTE5IDQxLjYwMjMgNTQuNDE0MiA0Mi40NTg1IDU0Ljk1OTQgNDMuMTY4OUM1NS41MDQ2IDQzLjg3OTIgNTYuMjQ4MiA0NC40MTIgNTcuMDk2MiA0NC42OTk4QzU3Ljk0NDMgNDQuOTg3NiA1OC44NTg2IDQ1LjAxNzUgNTkuNzIzNSA0NC43ODU2QzYwLjU4ODUgNDQuNTUzOCA2MS4zNjUzIDQ0LjA3MDcgNjEuOTU1NyA0My4zOTc0QzYyLjU0NjIgNDIuNzI0MSA2Mi45MjM3IDQxLjg5MDkgNjMuMDQwNiA0MS4wMDNDNjMuMTU3NSA0MC4xMTUyIDYzLjAwODQgMzkuMjEyNiA2Mi42MTI0IDM4LjQwOTVDNjIuMjE2MyAzNy42MDYzIDYxLjU5MSAzNi45Mzg2IDYwLjgxNTUgMzYuNDkwOEM2MC4zMDA2IDM2LjE5MzUgNTkuNzMyMiAzNi4wMDA1IDU5LjE0MjcgMzUuOTIyOUM1OC41NTMyIDM1Ljg0NTMgNTcuOTU0MiAzNS44ODQ2IDU3LjM3OTkgMzYuMDM4NkM1Ni44MDU2IDM2LjE5MjYgNTYuMjY3MyAzNi40NTgxIDU1Ljc5NTcgMzYuODIwMloiIGZpbGw9IiM2MTVFRkYiLz4mI3hhOzxwYXRoIGZpbGwtcnVsZT0iZXZlbm9kZCIgY2xpcC1ydWxlPSJldmVub2RkIiBkPSJNMTE0IDc2TDEzNC41NjYgMjMuMjY1NkgxNDYuNjI1TDE2Ny4xOTEgNzZIMTU1LjY5NUwxNTEuMjY2IDY0LjE4NzVIMTI5LjkyNkwxMjUuNDk2IDc2SDExNFpNMTQ3Ljc1IDU0LjY5NTNDMTQ2LjM0NCA1MC41NzAzIDE0NS4wOSA0Ni44Nzg5IDE0My45ODggNDMuNjIxMUMxNDIuODg3IDQwLjM2MzMgMTQxLjc2MiAzNyAxNDAuNjEzIDMzLjUzMTJDMTM5LjQ2NSAzNyAxMzguMzI4IDQwLjM2MzMgMTM3LjIwMyA0My42MjExQzEzNi4xMDIgNDYuODc4OSAxMzQuODQ4IDUwLjU3MDMgMTMzLjQ0MSA1NC42OTUzSDE0Ny43NVpNMTcwLjY3MiAyOC44OTA2QzE3MC42NzIgMjcuMjAzMSAxNzEuMTg4IDI1Ljg0MzggMTcyLjIxOSAyNC44MTI1QzE3My4yNSAyMy43ODEyIDE3NC42MDkgMjMuMjY1NiAxNzYuMjk3IDIzLjI2NTZDMTc3Ljk4NCAyMy4yNjU2IDE3OS4zNDQgMjMuNzgxMiAxODAuMzc1IDI0LjgxMjVDMTgxLjQwNiAyNS44NDM4IDE4MS45MjIgMjcuMjAzMSAxODEuOTIyIDI4Ljg5MDZDMTgxLjkyMiAzMC41NzgxIDE4MS40MDYgMzEuOTM3NSAxODAuMzc1IDMyLjk2ODhDMTc5LjM0NCAzNCAxNzcuOTg0IDM0LjUxNTYgMTc2LjI5NyAzNC41MTU2QzE3NC42MDkgMzQuNTE1NiAxNzMuMjUgMzQgMTcyLjIxOSAzMi45Njg4QzE3MS4xODggMzEuOTM3NSAxNzAuNjcyIDMwLjU3ODEgMTcwLjY3MiAyOC44OTA2Wk0xNzEuMjM0IDc2VjQwLjg0MzhIMTgxLjM1OVY3NkgxNzEuMjM0Wk0xODkuOTM4IDQwLjg0MzhWNzZIMjAwLjA2MlY2MC40OTYxQzIwMC4wNjIgNTYuNzkzIDIwMC44OTUgNTMuOTQ1MyAyMDIuNTU5IDUxLjk1MzFDMjA0LjIyMyA0OS45Mzc1IDIwNi40MTQgNDguOTI5NyAyMDkuMTMzIDQ4LjkyOTdDMjEwLjQ0NSA0OC45Mjk3IDIxMS43ODEgNDkuMTUyMyAyMTMuMTQxIDQ5LjU5NzdMMjE0LjU0NyA0MC44NDM4QzIxMi45MyA0MC4zNzUgMjExLjM1OSA0MC4xNDA2IDIwOS44MzYgNDAuMTQwNkMyMDUuMzU5IDQwLjE0MDYgMjAxLjg0NCA0Mi4wNTA4IDE5OS4yODkgNDUuODcxMVY0MC44NDM4SDE4OS45MzhaTTIxOC40MTQgNzZWMjMuMjY1NkgyMjguNTM5VjQ0LjMyNDJDMjMwLjAxNiA0My4wMTE3IDIzMS43MDMgNDEuOTkyMiAyMzMuNjAyIDQxLjI2NTZDMjM1LjUgNDAuNTE1NiAyMzcuNTUxIDQwLjE0MDYgMjM5Ljc1NCA0MC4xNDA2QzI0My4wNTkgNDAuMTQwNiAyNDYgNDAuOTM3NSAyNDguNTc4IDQyLjUzMTJDMjUxLjE1NiA0NC4xMDE2IDI1My4xODQgNDYuMjY5NSAyNTQuNjYgNDkuMDM1MkMyNTYuMTM3IDUxLjc3NzMgMjU2Ljg3NSA1NC45MDYyIDI1Ni44NzUgNTguNDIxOUMyNTYuODc1IDYxLjkzNzUgMjU2LjEzNyA2NS4wNzgxIDI1NC42NiA2Ny44NDM4QzI1My4xODQgNzAuNTg1OSAyNTEuMTU2IDcyLjc1MzkgMjQ4LjU3OCA3NC4zNDc3QzI0NiA3NS45MTggMjQzLjA1OSA3Ni43MDMxIDIzOS43NTQgNzYuNzAzMUMyMzcuNDggNzYuNzAzMSAyMzUuMzU5IDc2LjMxNjQgMjMzLjM5MSA3NS41NDNDMjMxLjQyMiA3NC43NDYxIDIyOS42OTkgNzMuNjMyOCAyMjguMjIzIDcyLjIwMzFMMjI3Ljk3NyA3NkgyMTguNDE0Wk0yMzguNDY5IDY3LjkxNDFDMjQxLjA0NyA2Ny45MTQxIDI0My4xOCA2Ny4wMTE3IDI0NC44NjcgNjUuMjA3QzI0Ni41NTUgNjMuNDAyMyAyNDcuMzk4IDYxLjE0MDYgMjQ3LjM5OCA1OC40MjE5QzI0Ny4zOTggNTUuNzAzMSAyNDYuNTU1IDUzLjQ0MTQgMjQ0Ljg2NyA1MS42MzY3QzI0My4xOCA0OS44MzIgMjQxLjA0NyA0OC45Mjk3IDIzOC40NjkgNDguOTI5N0MyMzUuODkxIDQ4LjkyOTcgMjMzLjc1OCA0OS44MzIgMjMyLjA3IDUxLjYzNjdDMjMwLjM4MyA1My40NDE0IDIyOS41MzkgNTUuNzAzMSAyMjkuNTM5IDU4LjQyMTlDMjI5LjUzOSA2MS4xNDA2IDIzMC4zODMgNjMuNDAyMyAyMzIuMDcgNjUuMjA3QzIzMy43NTggNjcuMDExNyAyMzUuODkxIDY3LjkxNDEgMjM4LjQ2OSA2Ny45MTQxWk0yNzMuNzkzIDU4LjAzNTJMMjY1LjU2NiA0MC44NDM4SDI1NC45ODRMMjcxLjM2NyA3NC4yNDIyTDI2My4zNTIgOTMuNTc4MUgyNzQuMDA0TDI5NS44NzEgNDAuODQzOEgyODUuMTg0TDI3NS42OTEgNjMuNzY1NkMyNzUuNDU3IDYyLjYxNzIgMjc1LjE3NiA2MS41NjI1IDI3NC44NDggNjAuNjAxNkMyNzQuNTIgNTkuNjQwNiAyNzQuMTY4IDU4Ljc4NTIgMjczLjc5MyA1OC4wMzUyWk0yOTcuMjQyIDQwLjg0MzhIMzAzLjA0M1YzMi4wNTQ3SDMxMy4xNjhWNDAuODQzOEgzMjEuNzExVjQ5LjYzMjhIMzEzLjE2OFY2Mi41NzAzQzMxMy4xNjggNjQuMjM0NCAzMTMuNjk1IDY1LjU0NjkgMzE0Ljc1IDY2LjUwNzhDMzE1LjgyOCA2Ny40NDUzIDMxNy4xODggNjcuOTE0MSAzMTguODI4IDY3LjkxNDFDMzIwLjA0NyA2Ny45MTQxIDMyMS4zMDEgNjcuNjQ0NSAzMjIuNTkgNjcuMTA1NVY3NS40MDIzQzMyMC4zNjMgNzYuMjY5NSAzMTguMTcyIDc2LjcwMzEgMzE2LjAxNiA3Ni43MDMxQzMxMS44NDQgNzYuNzAzMSAzMDguNjMzIDc1LjU4OTggMzA2LjM4MyA3My4zNjMzQzMwNC4xNTYgNzEuMTEzMyAzMDMuMDQzIDY3LjkwMjMgMzAzLjA0MyA2My43MzA1VjQ5LjYzMjhIMjk3LjI0MlY0MC44NDM4Wk0zNDAuOTA2IDY2LjE5MTRDMzM5LjIxOSA2NC45NzI3IDMzOC4wNTkgNjMuMzkwNiAzMzcuNDI2IDYxLjQ0NTNIMzY0Ljg0OFY1OC4zODY3QzM2NC44NDggNTQuODQ3NyAzNjQuMDUxIDUxLjcwNyAzNjIuNDU3IDQ4Ljk2NDhDMzYwLjg2MyA0Ni4yMjI3IDM1OC42ODQgNDQuMDY2NCAzNTUuOTE4IDQyLjQ5NjFDMzUzLjE3NiA0MC45MjU4IDM1MC4wMzUgNDAuMTQwNiAzNDYuNDk2IDQwLjE0MDZDMzQyLjkzNCA0MC4xNDA2IDMzOS43NDYgNDAuOTM3NSAzMzYuOTM0IDQyLjUzMTJDMzM0LjE0NSA0NC4xMDE2IDMzMS45NDEgNDYuMjU3OCAzMzAuMzI0IDQ5QzMyOC43MDcgNTEuNzE4OCAzMjcuODk4IDU0LjgyNDIgMzI3Ljg5OCA1OC4zMTY0QzMyNy44OTggNjEuODU1NSAzMjguNzQyIDY1LjAxOTUgMzMwLjQzIDY3LjgwODZDMzMyLjExNyA3MC41NzQyIDMzNC40NDkgNzIuNzUzOSAzMzcuNDI2IDc0LjM0NzdDMzQwLjQwMiA3NS45MTggMzQzLjgzNiA3Ni43MDMxIDM0Ny43MjcgNzYuNzAzMUMzNTAuMTY0IDc2LjcwMzEgMzUyLjcwNyA3Ni4zMDQ3IDM1NS4zNTUgNzUuNTA3OEMzNTguMDI3IDc0LjcxMDkgMzYwLjcyMyA3My4yNDYxIDM2My40NDEgNzEuMTEzM0wzNTcuMzI0IDYzLjgwMDhDMzU2LjAxMiA2NS4wNDMgMzU0LjU0NyA2Ni4wNjI1IDM1Mi45MyA2Ni44NTk0QzM1MS4zMzYgNjcuNjMyOCAzNDkuMzIgNjguMDE5NSAzNDYuODgzIDY4LjAxOTVDMzQ0LjYwOSA2OC4wMTk1IDM0Mi42MTcgNjcuNDEwMiAzNDAuOTA2IDY2LjE5MTRaTTM1My44MjcgNTRDMzUzLjI2NyA1Mi43NTQ3IDM1Mi40NjQgNTEuNjk3NCAzNTEuNDE4IDUwLjgyODFDMzQ5Ljg5NSA0OS41NjI1IDM0OC4wNjYgNDguOTI5NyAzNDUuOTM0IDQ4LjkyOTdDMzQzLjc3NyA0OC45Mjk3IDM0MS45MDIgNDkuNTc0MiAzNDAuMzA5IDUwLjg2MzNDMzM5LjI0IDUxLjc0MDYgMzM4LjQyMSA1Mi43ODYyIDMzNy44NTIgNTRIMzUzLjgyN1oiIGZpbGw9IiMxQTE5NEQiLz4mI3hhOzwvc3ZnPg==;" vertex="1" parent="1">
          <mxGeometry x="309.01" y="430" width="131.99" height="36.16" as="geometry" />
        </mxCell>
        <mxCell id="Qz6fXgYHEP6Uw-YGUnhL-5" value="" style="shape=image;verticalLabelPosition=bottom;labelBackgroundColor=#ffffff;verticalAlign=top;aspect=fixed;imageAspect=0;image=data:image/svg+xml,PHN2ZyB4bWxucz0iaHR0cDovL3d3dy53My5vcmcvMjAwMC9zdmciIHhtbG5zOnhsaW5rPSJodHRwOi8vd3d3LnczLm9yZy8xOTk5L3hsaW5rIiB3aWR0aD0iNzEwLjEwOTk4NTM1MTU2MjUiIGhlaWdodD0iMzgyLjEwOTk4NTM1MTU2MjUiIHZpZXdCb3g9IjAuNDQ1MDA3MzI0MjE4NzUgMC40NDQ5NDYyODkwNjI1IDcxMC4xMDk5ODUzNTE1NjI1IDM4Mi4xMDk5ODUzNTE1NjI1IiB2ZXJzaW9uPSIxLjEiPiYjeGE7ICAgIDwhLS0gR2VuZXJhdG9yOiBTa2V0Y2ggNDkuMyAoNTExNjcpIC0gaHR0cDovL3d3dy5ib2hlbWlhbmNvZGluZy5jb20vc2tldGNoIC0tPiYjeGE7ICAgIDx0aXRsZT5Hcm91cCAzMDwvdGl0bGU+JiN4YTsgICAgPGRlc2M+Q3JlYXRlZCB3aXRoIFNrZXRjaC48L2Rlc2M+JiN4YTsgICAgPGRlZnM+JiN4YTsgICAgICAgIDxwb2x5Z29uIGlkPSJwYXRoLTEiIHBvaW50cz0iNjUuMjMxNjYzOCA4OS40MDE2NzM0IDAuMDM1NDA4MzU0MSA4OS40MDE2NzM0IDAuMDM1NDA4MzU0MSAwLjE2MTA5MTY5NSA2NS4yMzE2NjM4IDAuMTYxMDkxNjk1IDY1LjIzMTY2MzggODkuNDAxNjczNCIvPiYjeGE7ICAgICAgICA8cG9seWdvbiBpZD0icGF0aC0zIiBwb2ludHM9IjEuNTk2MDI3MDYgMC4wMzM3MzY0ODA1IDEyNS4xMjQ2NDUgMC4wMzM3MzY0ODA1IDEyNS4xMjQ2NDUgMTMxLjM4NTg4IDEuNTk2MDI3MDYgMTMxLjM4NTg4IDEuNTk2MDI3MDYgMC4wMzM3MzY0ODA1Ii8+JiN4YTsgICAgPC9kZWZzPiYjeGE7ICAgIDxnIGlkPSJIb21lIiBzdHJva2U9Im5vbmUiIHN0cm9rZS13aWR0aD0iMSIgZmlsbD0ibm9uZSIgZmlsbC1ydWxlPSJldmVub2RkIj4mI3hhOyAgICAgICAgPGcgaWQ9IlN0eWxlLUd1aWRlLS0tSG9tZXBhZ2UiIHRyYW5zZm9ybT0idHJhbnNsYXRlKC0xODAuMDAwMDAwLCAtMTE2OC4wMDAwMDApIj4mI3hhOyAgICAgICAgICAgIDxnIGlkPSJHcm91cC0zMCIgdHJhbnNmb3JtPSJ0cmFuc2xhdGUoMTgwLjAwMDAwMCwgMTE2OC4wMDAwMDApIj4mI3hhOyAgICAgICAgICAgICAgICA8cGF0aCBkPSJNMC40NDUsMC40NDUgTDAuNDQ1LDM4Mi41NTUgTDcxMC41NTUsMzgyLjU1NSBMNzEwLjU1NSwwLjQ0NSBMMC40NDUsMC40NDUgWiIgaWQ9IlJlY3RhbmdsZS0yLUNvcHktNiIgc3Ryb2tlPSIjQ0JENkUyIiBzdHJva2Utd2lkdGg9IjAuODkiLz4mI3hhOyAgICAgICAgICAgICAgICA8ZyBpZD0iLS1NYXJrZXRpbmcvTG9nb3MvSHViU3BvdC1QcmltYXJ5IiB0cmFuc2Zvcm09InRyYW5zbGF0ZSgxMTEuMDAwMDAwLCAxMjEuMDAwMDAwKSI+JiN4YTsgICAgICAgICAgICAgICAgICAgIDxnIGlkPSJNYXJrZXRpbmcvTG9nb3MvSHViU3BvdC1QcmltYXJ5IiB0cmFuc2Zvcm09InRyYW5zbGF0ZSgwLjAwMDAwMCwgMS4wNDg0MjApIj4mI3hhOyAgICAgICAgICAgICAgICAgICAgICAgIDxwb2x5Z29uIGlkPSJGaWxsLTEiIGZpbGw9IiMzMzQ3NUIiIHBvaW50cz0iNTAuMTYwNjcxMyAyMy43MzkwMTE5IDUwLjE2MDY3MTMgNjEuMzE5NzY0NCAxNi4xNTAzNjU0IDYxLjMxOTc2NDQgMTYuMTUwMzY1NCAyMy43MzkwMTE5IDAuMDAwNDk4NzA5MjEzIDIzLjczOTAxMTkgMC4wMDA0OTg3MDkyMTMgMTEzLjQ0MDk0IDE2LjE1MDM2NTQgMTEzLjQ0MDk0IDE2LjE1MDM2NTQgNzcuMDg2NTA4NiA1MC4xNjA2NzEzIDc3LjA4NjUwODYgNTAuMTYwNjcxMyAxMTMuNDQwOTQgNjYuMzA4ODc1NyAxMTMuNDQwOTQgNjYuMzA4ODc1NyAyMy43MzkwMTE5Ii8+JiN4YTsgICAgICAgICAgICAgICAgICAgICAgICA8cGF0aCBkPSJNMTE3Ljk4NTI5MSw4NC40NDgxNDYgQzExNy45ODUyOTEsOTEuOTE5MDg5NiAxMTEuOTg5MTQzLDk3Ljk5ODQwMzQgMTA0LjYyODE5NSw5Ny45OTg0MDM0IEM5Ny4yNjM5MjI3LDk3Ljk5ODQwMzQgOTEuMjcxMTAwNCw5MS45MTkwODk2IDkxLjI3MTEwMDQsODQuNDQ4MTQ2IEw5MS4yNzExMDA0LDQ2LjAyNzM1NTEgTDc1Ljk3NTY4ODgsNDYuMDI3MzU1MSBMNzUuOTc1Njg4OCw4NC40NDgxNDYgQzc1Ljk3NTY4ODgsMTAwLjQ3NjM0OCA4OC44MzA3NSwxMTMuNTE1NDk4IDEwNC42MjgxOTUsMTEzLjUxNTQ5OCBDMTIwLjQyMjMxNiwxMTMuNTE1NDk4IDEzMy4yNzQwNTMsMTAwLjQ3NjM0OCAxMzMuMjc0MDUzLDg0LjQ0ODE0NiBMMTMzLjI3NDA1Myw0Ni4wMjczNTUxIEwxMTcuOTg1MjkxLDQ2LjAyNzM1NTEgTDExNy45ODUyOTEsODQuNDQ4MTQ2IFoiIGlkPSJGaWxsLTIiIGZpbGw9IiMzMzQ3NUIiLz4mI3hhOyAgICAgICAgICAgICAgICAgICAgICAgIDxwYXRoIGQ9Ik0yMzEuNDY3NTY5LDQ5Ljk4MzYzMjIgQzIzMS40Njc1NjksNDIuMTA2MTY0IDIzNi42MDU5MzcsMzkuNjA5NjY0NCAyNDIuMjMzMDM5LDM5LjYwOTY2NDQgQzI0Ni43NjEzMTksMzkuNjA5NjY0NCAyNTIuNzU1ODAzLDQzLjEwNjQ1MDYgMjU2LjY2NTY4NCw0Ny4zNTcyNDcyIEwyNjYuNjk0NzI2LDM1LjM2MjI0MTUgQzI2MS42ODQzNjEsMjguNDkwMTIwNCAyNTEuNTMwNjQxLDIzLjc0MDAyNCAyNDMuMjEwNTA5LDIzLjc0MDAyNCBDMjI2LjU3MTkwNywyMy43NDAwMjQgMjE0LjU4MjkzOCwzMy42MTMwMDUgMjE0LjU4MjkzOCw0OS45ODM2MzIyIEMyMTQuNTgyOTM4LDgwLjM0ODE1MTUgMjUxLjE2NDkyMSw3MC43MjMxMzM2IDI1MS4xNjQ5MjEsODcuNzIyOTQ2MSBDMjUxLjE2NDkyMSw5Mi45NjU1OTUyIDI0Ni4xNDk1NjksOTcuNTkyNTUzNSAyNDAuNDAxMTE0LDk3LjU5MjU1MzUgQzIzMS4zNDYyMTcsOTcuNTkyNTUzNSAyMjguNDA3MTU3LDkzLjA5Mzc5MzggMjI0LjI0OTU4NSw4OC4zNDUzODQyIEwyMTMuMTE1MDcsMTAwLjA4OTA1MyBDMjIwLjIxMzM2NSwxMDguOTYxNzQ3IDIyOS4wMjA1NjksMTEzLjQ2Mzg4MSAyMzkuNTQxNjcyLDExMy40NjM4ODEgQzI1NS4zMjQxNTYsMTEzLjQ2Mzg4MSAyNjguMDQ3ODksMTAzLjQ2NjA3NSAyNjguMDQ3ODksODcuODQyNzEwNyBDMjY4LjA0Nzg5LDU0LjEwNDU0MzMgMjMxLjQ2NzU2OSw2NC42MDMzMzYgMjMxLjQ2NzU2OSw0OS45ODM2MzIyIiBpZD0iRmlsbC00IiBmaWxsPSIjMzM0NzVCIi8+JiN4YTsgICAgICAgICAgICAgICAgICAgICAgICA8cGF0aCBkPSJNNDU3Ljc3Nzk4Nyw5OS4xMTIzODIgQzQ0OC43Mjk3MzksOTkuMTEyMzgyIDQ0Ni4xNjEzODcsOTUuMTQxNTk4MiA0NDYuMTYxMzg3LDg5LjA1NzIyNCBMNDQ2LjE2MTM4Nyw2Mi4xMTg2NDQyIEw0NjAuMjI2NjQ5LDYyLjExODY0NDIgTDQ2MC4yMjY2NDksNDguNDY1NDkwNiBMNDQ2LjE2MTM4Nyw0OC40NjU0OTA2IEw0NDYuMTYxMzg3LDMwLjQ2MjAxNzcgTDQzMC42MjY1OTUsMzcuNTM4MjQ0NSBMNDMwLjYyNjU5NSw5Mi40MDg5NDMzIEM0MzAuNjI2NTk1LDEwNi40MzgyNTkgNDQwLjE2NTI0LDExMy41MTYxNzIgNDUzLjI1MTM2OSwxMTMuNTE2MTcyIEM0NTUuMjA5NjM0LDExMy41MTYxNzIgNDU3LjkwMjY2NCwxMTMuMzg3OTc0IDQ1OS4zNzIxOTQsMTEzLjAyMDI0NiBMNDYzLjE2NTcwOSw5OC44Njc3OTI1IEM0NjEuNDUzNDc0LDk4Ljk4NzU1NyA0NTkuNDk2ODcxLDk5LjExMjM4MiA0NTcuNzc3OTg3LDk5LjExMjM4MiIgaWQ9IkZpbGwtNiIgZmlsbD0iIzMzNDc1QiIvPiYjeGE7ICAgICAgICAgICAgICAgICAgICAgICAgPHBhdGggZD0iTTE3Ni4xODQxNTcsOTcuODQ3OTM4NyBDMTY2LjU3NDAzLDk3Ljg0NzkzODcgMTU4Ljc4MjUzLDg5Ljk0MTc5NDUgMTU4Ljc4MjUzLDgwLjE5MDI2NDggQzE1OC43ODI1Myw3MC40Mzg3MzUxIDE2Ni41NzQwMyw2Mi41MzI1OTA5IDE3Ni4xODQxNTcsNjIuNTMyNTkwOSBDMTg1Ljc5NDI4NCw2Mi41MzI1OTA5IDE5My41ODU3ODQsNzAuNDM4NzM1MSAxOTMuNTg1Nzg0LDgwLjE5MDI2NDggQzE5My41ODU3ODQsODkuOTQxNzk0NSAxODUuNzk0Mjg0LDk3Ljg0NzkzODcgMTc2LjE4NDE1Nyw5Ny44NDc5Mzg3IE0xNzYuMjgwNTc0LDQ2LjQ3NzM5OTggQzE2OC42OTM1NDUsNDYuNDc3Mzk5OCAxNjMuNDAwNTc3LDQ4LjcxMjQ0MTYgMTU4LjI4NTQ4Myw1My44MDQ5NjMzIEwxNTguMjg1NDgzLDI0LjI3NTQyMTkgTDE0Mi45NDM1MjYsMjQuMjc1NDIxOSBMMTQyLjk0MzUyNiw3OS4wMDI3NDA3IEMxNDIuOTQzNTI2LDk5LjQ4NTg0NDggMTU3LjUzNzQyLDExMy41MTUxNiAxNzMuOTM2NjQxLDExMy41MTUxNiBDMTkyLjE2NjEyNSwxMTMuNTE1MTYgMjA4LjEzOTc4MSw5OS4yMzYxOTQ5IDIwOC4xMzk3ODEsNzkuOTk3OTY2OCBDMjA4LjEzOTc4MSw2MS4wMDI2NDE1IDE5My40MDk1NzMsNDYuNDc3Mzk5OCAxNzYuMjgwNTc0LDQ2LjQ3NzM5OTgiIGlkPSJGaWxsLTgiIGZpbGw9IiMzMzQ3NUIiLz4mI3hhOyAgICAgICAgICAgICAgICAgICAgICAgIDxnIGlkPSJHcm91cC0xMiIgdHJhbnNmb3JtPSJ0cmFuc2xhdGUoMjc3LjYxNDc5NSwgNDUuNTEwODUwKSI+JiN4YTsgICAgICAgICAgICAgICAgICAgICAgICAgICAgPG1hc2sgaWQ9Im1hc2stMiIgZmlsbD0id2hpdGUiPiYjeGE7ICAgICAgICAgICAgICAgICAgICAgICAgICAgICAgICA8dXNlIHhsaW5rOmhyZWY9IiNwYXRoLTEiLz4mI3hhOyAgICAgICAgICAgICAgICAgICAgICAgICAgICA8L21hc2s+JiN4YTsgICAgICAgICAgICAgICAgICAgICAgICAgICAgPGcgaWQ9IkNsaXAtMTEiLz4mI3hhOyAgICAgICAgICAgICAgICAgICAgICAgICAgICA8cGF0aCBkPSJNMzMuMjc3NzAyMSw1MS4xNDM2NjExIEMyMy42NjU5MTMyLDUxLjE0MzY2MTEgMTUuODc0NDEzLDQzLjIzNzUxNjkgMTUuODc0NDEzLDMzLjQ4NTk4NzIgQzE1Ljg3NDQxMywyMy43MzQ0NTc1IDIzLjY2NTkxMzIsMTUuODI4MzEzMyAzMy4yNzc3MDIxLDE1LjgyODMxMzMgQzQyLjg4NjE2NjMsMTUuODI4MzEzMyA1MC42Nzc2NjY2LDIzLjczNDQ1NzUgNTAuNjc3NjY2NiwzMy40ODU5ODcyIEM1MC42Nzc2NjY2LDQzLjIzNzUxNjkgNDIuODg2MTY2Myw1MS4xNDM2NjExIDMzLjI3NzcwMjEsNTEuMTQzNjYxMSBNNjUuMjMxNjYzOCwzMy42NzgyODUxIEM2NS4yMzE2NjM4LDE0LjQ0MDA1NzEgNDkuMjU4MDA3NywwLjE2MTA5MTY5NSAzMS4wMjg1MjM2LDAuMTYxMDkxNjk1IEMxNC42MjkzMDIzLDAuMTYxMDkxNjk1IDAuMDM1NDA4MzU0MSwxNC4xOTA0MDcxIDAuMDM1NDA4MzU0MSwzNC42NzM1MTEzIEwwLjAzNTQwODM1NDEsODkuNDAyNTE2OCBMMTUuMzc3MzY2MSw4OS40MDI1MTY4IEwxNS4zNzczNjYxLDU5Ljg3MTI4ODYgQzIwLjQ5MjQ2MDMsNjQuOTY1NDk3MiAyNS43ODU0Mjc0LDY3LjIwMDUzOSAzMy4zNzI0NTY5LDY3LjIwMDUzOSBDNTAuNTAxNDU2LDY3LjIwMDUzOSA2NS4yMzE2NjM4LDUyLjY3MzYxMDUgNjUuMjMxNjYzOCwzMy42NzgyODUxIiBpZD0iRmlsbC0xMCIgZmlsbD0iIzMzNDc1QiIgbWFzaz0idXJsKCNtYXNrLTIpIi8+JiN4YTsgICAgICAgICAgICAgICAgICAgICAgICA8L2c+JiN4YTsgICAgICAgICAgICAgICAgICAgICAgICA8ZyBpZD0iR3JvdXAtMTUiIHRyYW5zZm9ybT0idHJhbnNsYXRlKDI5NS45MDA4MDAsIDEuNjUzNDI1KSI+JiN4YTsgICAgICAgICAgICAgICAgICAgICAgICAgICAgPG1hc2sgaWQ9Im1hc2stNCIgZmlsbD0id2hpdGUiPiYjeGE7ICAgICAgICAgICAgICAgICAgICAgICAgICAgICAgICA8dXNlIHhsaW5rOmhyZWY9IiNwYXRoLTMiLz4mI3hhOyAgICAgICAgICAgICAgICAgICAgICAgICAgICA8L21hc2s+JiN4YTsgICAgICAgICAgICAgICAgICAgICAgICAgICAgPGcgaWQ9IkNsaXAtMTQiLz4mI3hhOyAgICAgICAgICAgICAgICAgICAgICAgICAgICA8cGF0aCBkPSJNOTEuMzMzNzcxNSw5NC42ODczMzY1IEM4MS43NjUyMDQxLDk0LjY4NzMzNjUgNzQuMDA4NjEzNCw4Ni44MTY2MTU2IDc0LjAwODYxMzQsNzcuMTA4OTQzMyBDNzQuMDA4NjEzNCw2Ny4zOTk1ODQyIDgxLjc2NTIwNDEsNTkuNTI4ODYzMyA5MS4zMzM3NzE1LDU5LjUyODg2MzMgQzEwMC45MDIzMzksNTkuNTI4ODYzMyAxMDguNjU4OTMsNjcuMzk5NTg0MiAxMDguNjU4OTMsNzcuMTA4OTQzMyBDMTA4LjY1ODkzLDg2LjgxNjYxNTYgMTAwLjkwMjMzOSw5NC42ODczMzY1IDkxLjMzMzc3MTUsOTQuNjg3MzM2NSBNOTYuNTIwMzQ3Myw0My4yNjQ1MDYgTDk2LjUyMDM0NzMsMjcuNjI1OTYwNSBDMTAwLjU0MzI2OCwyNS42OTc5MjA2IDEwMy4zNjA5NzUsMjEuNTY4NTc1NCAxMDMuMzYwOTc1LDE2Ljc3NjMwODQgTDEwMy4zNjA5NzUsMTYuNDE1MzI4IEMxMDMuMzYwOTc1LDkuODAxMjkxMDEgOTguMDI4MTExNSw0LjM4OTk1OTUzIDkxLjUwOTk4MjEsNC4zODk5NTk1MyBMOTEuMTU1ODk4NSw0LjM4OTk1OTUzIEM4NC42Mzc3NjkxLDQuMzg5OTU5NTMgNzkuMzA0OTA1Myw5LjgwMTI5MTAxIDc5LjMwNDkwNTMsMTYuNDE1MzI4IEw3OS4zMDQ5MDUzLDE2Ljc3NjMwODQgQzc5LjMwNDkwNTMsMjEuNTY4NTc1NCA4Mi4xMjI2MTIzLDI1LjY5OTYwNzUgODYuMTQ1NTMzMywyNy42Mjc2NDczIEw4Ni4xNDU1MzMzLDQzLjI2NDUwNiBDODAuMTU2MDM1Nyw0NC4yMDQwNjcgNzQuNjgzNTMzMiw0Ni43MTA2ODc1IDcwLjE3MDIxNDksNTAuMzk5NzcxNyBMMjcuODU0NzM4MSwxNi45OTg5NjkxIEMyOC4xMzQwMTUzLDE1LjkxMDk2NzYgMjguMzMwMTc0MywxNC43OTA5MTY1IDI4LjMzMTgzNjYsMTMuNjEzNTEzMyBDMjguMzM4NDg2MSw2LjEyNDAxNDYzIDIyLjM2Mzk0OTcsMC4wNDMwMTQwMTI3IDE0Ljk3OTcyODYsMC4wMzI4OTMwNjg1IEM3LjU5ODgzMjI4LDAuMDI0NDU4OTQ4NCAxLjYwNDM0NzU0LDYuMDg4NTkxMzIgMS41OTYwMzU3MiwxMy41Nzk3NzY4IEMxLjU4NzcyMzksMjEuMDcwOTYyMyA3LjU2MjI2MDI3LDI3LjE1MTk2MjkgMTQuOTQ2NDgxMywyNy4xNjAzOTcxIEMxNy4zNTE5MjIxLDI3LjE2Mzc3MDcgMTkuNTc5NDg5OSwyNi40NzA0ODYgMjEuNTMxMTA1MywyNS4zNDM2ODc2IEw2My4xNTUwMzg2LDU4LjIwMTMzMjggQzU5LjYxNTg2NTYsNjMuNjIyNzg1MiA1Ny41NDEyMzUyLDcwLjExNzA1NzcgNTcuNTQxMjM1Miw3Ny4xMDg5NDMzIEM1Ny41NDEyMzUyLDg0LjQyODA3MjggNTkuODIwMzM2Myw5MS4xOTg5ODQ0IDYzLjY3MDM3MTUsOTYuNzY3MTkwNSBMNTEuMDEzMTMxNiwxMDkuNjEyMzU1IEM1MC4wMTIzODg1LDEwOS4zMDcwNCA0OC45NzUwNzMzLDEwOS4wOTQ1MDEgNDcuODc0NTg4MywxMDkuMDk0NTAxIEM0MS44MDg2MjE5LDEwOS4wOTQ1MDEgMzYuODg5Njg2NywxMTQuMDg0MTI2IDM2Ljg4OTY4NjcsMTIwLjIzOTM0NyBDMzYuODg5Njg2NywxMjYuMzk2MjU1IDQxLjgwODYyMTksMTMxLjM4NTg4IDQ3Ljg3NDU4ODMsMTMxLjM4NTg4IEM1My45NDIyMTcxLDEzMS4zODU4OCA1OC44NTk0ODk5LDEyNi4zOTYyNTUgNTguODU5NDg5OSwxMjAuMjM5MzQ3IEM1OC44NTk0ODk5LDExOS4xMjYwNDMgNTguNjUwMDMyLDExOC4wNzE3NzggNTguMzQ5MTQ0MiwxMTcuMDU2MzEgTDcwLjg3MDA3MDEsMTA0LjM1MTE1MSBDNzYuNTUzNjkyOCwxMDguNzUyMDc1IDgzLjYzMjAzODksMTExLjM5NzAxNSA5MS4zMzM3NzE1LDExMS4zOTcwMTUgQzEwOS45OTcxMzMsMTExLjM5NzAxNSAxMjUuMTI0NjQ1LDk2LjA0NTIyOTggMTI1LjEyNDY0NSw3Ny4xMDg5NDMzIEMxMjUuMTI0NjQ1LDU5Ljk2NTc1MDcgMTEyLjcxMzQzNSw0NS44MDMxNzYyIDk2LjUyMDM0NzMsNDMuMjY0NTA2IiBpZD0iRmlsbC0xMyIgZmlsbD0iI0ZGN0E1OSIgbWFzaz0idXJsKCNtYXNrLTQpIi8+JiN4YTsgICAgICAgICAgICAgICAgICAgICAgICA8L2c+JiN4YTsgICAgICAgICAgICAgICAgICAgIDwvZz4mI3hhOyAgICAgICAgICAgICAgICA8L2c+JiN4YTsgICAgICAgICAgICA8L2c+JiN4YTsgICAgICAgIDwvZz4mI3hhOyAgICA8L2c+JiN4YTs8L3N2Zz4=;" vertex="1" parent="1">
          <mxGeometry x="50" y="410" width="180" height="96.92" as="geometry" />
        </mxCell>
        <mxCell id="Qz6fXgYHEP6Uw-YGUnhL-6" value="" style="shape=image;verticalLabelPosition=bottom;labelBackgroundColor=#ffffff;verticalAlign=top;aspect=fixed;imageAspect=0;image=data:image/png,iVBORw0KGgoAAAANSUhEUgAABQAAAAEyCAYAAAClGX1CAAAABGdBTUEAALGPC/xhBQAAACBjSFJNAAB6JgAAgIQAAPoAAACA6AAAdTAAAOpgAAA6mAAAF3CculE8AAAABmJLR0QA/wD/AP+gvaeTAACAAElEQVR42uydeXiU1fXHv+fOTAIJ4IJkJgHcimTeBBEF3BdwA2YSUat0UbGtW92q1rYubX+itlqtbdW6t3W3alwQMjNAUXG3CqgVkhkWRQUz75sgLpBAMjP3/P4gWq0smXf2mfN5Hp5WmPu+95577r3nnvfecwBBEARBEARBEARBEARBEARBEARBEARBEARBEARBEARBEARBEARBEARBEARBEPIIEhEUNiNCK8rL1IARiTiqCKqMgAQ4sc5JsVVLGnb7tGQFw0xGKLors2MoESqZQAx0EumPI294PsIM0qI9giAIgiAIgiAIgiCUAuIALDRmsKodZx7hAJ3IhCMBeAGorfRuGzFeAFGofyIxc3FjTVcxi8YItu3GUD8gxtEgHAigcis/3QjCGwTMj2t6bHmD+31RLEEQBEEQBEEQBEEQihVxABYIw5pW9x8wwHkGMV0KYHcbj1gP4O867rhp2dQhbcUkm7pA22Ga6EoCHYutOUO3DgN4TjNft6yheoFomiAIgiAIgiAIgiAIxYY4AAsAb8hsJMatsOf4+186wXxthcfz58XjKFbIchk17+PhiYTjFjBOSNMjA6z4wsiU6g9E6wRBEARBEARBEARBKBbEAZjHDGta3X/QANfNzDg7A4//N6C/H/bXfFiIsjGarROg+F4AO6b50V8Q+KxWf3WTaKAgCIIgCIIgCIIgCMWAOADzlDEzP92x27WpGUSHZvA1FrT2hRtr3iok2RhB8yIAf8mo/hLdEPa5LxdNFARBEARBEARBEASh0BEHYB6y5/x1O5T39LwAYEwWXvcFtJ5YKE5Ab8D6PyK+OkuD4/pWv+dK0UhBEARBEARBEARBEAoZcQDmGRMWsNPaaM0HY0K23slAO0Hvn+/XgY2AeQYIf8/uCKHzwj73naKZgiAIgiAIgiAIgiAUKkpEkF9YG9t/l03nHwAQUAWox8YuYle+yqU+2D4GhNuy/mLmm+vnRMeLZgqCIAiCIAiCIAiCUKiIAzCPqA22jQPzL3L0+gM7LevSvBRMEzs0EvcC6JeDt5fpBN2Xz85RQRAEQRAEQRAEQRCEbSEOwHyBmQjqDgCOXFWBgN/UzuqoyTfRGBXmOQDti9wJpr7LtM4XJRUEQRAEQRAEQRAEoRARB2CeYMw1pxCQ66umlQ5nPK9OAY5dxC4Q/SrnFSFcNqxpdX/RVEEQBEEQBEEQBEEQCg1xAOYJxPhZPtSDQWeNbW6ryBe5dJnWdwHslgdV8QwcUHayaKogCIIgCIIgCIIgCIWGOADzgNpZHTXMdHSeVGdgp1LH541wiKbnTV2YTxNtFQRBEARBEARBEASh0BAHYB7gcCUmI4ex/7agFP58qMfuC1b1A3hiHnXVhNpZHQNFYwVBEARBEARBEARBKCTEAZgHMPMReVUfIC+cbv029DsQucn8uzWc5NAHi8YKgiAIgiAIgiAIglBIiAMwHyA1Ks9qVF0/d/XOOVdOor3zcMSMEoUVBEEQBEEQBEEQBKGQEAdgPsD8nfyrkzPndWJgz3wTC2n9HVFYQRAEQRAEQRAEQRAKCXEA5poZrADkXVw5rdWOua4DEe2Yd/2Vj3USBEEQBEEQBEEQBEHYBuIAzDFjx0b75WU/aAzIdRUY3D/fxMKEStFaQRAEQRAEQRAEQRAKCXEA5phYmaJ8rBcT8qFeeScbxSDRWkEQBEEQBEEQBEEQCglxAAqCIAiCIAiCIAiCIAhCESMOQEEQBEEQBEEQBEEQBEEoYsQBKAiCIAiCIAiCIAiCIAhFjDgABUEQBEEQBEEQBEEQBKGIEQegIAiCIAiCIAiCIAiCIBQx4gAUBEEQBEEQBEEQBEEQhCJGHICCIAiCIAiCIAiCIAiCUMSIA1AQBEEQBEEQBEEQBEEQihhxAAqCIAiCIAiCIAiCIAhCESMOQEEQBEEQBEEQBEEQBEEoYsQBKAiCIAiCIAiCIAiCIAhFjDgABUEQBEEQBEEQBEEQBKGIEQegIAiCIAiCIAiCIAiCIBQx4gAUBEEQBEEQBEEQBEEQhCJGHICCIAiCIAiCIAiCIAiCUMSIA1AQBEEQBEEQBEEQBEEQihhxAAqCIAiCIAiCIAiCIAhCEeMsxErXB9s9mrWfCYcQsC+AXQHs3PvPPQA+YSCswO8QHPM/7+x+cc204Rulu4WipokddRXRg5nUsQweRyADgBtAPwAAYwOAD6GwhBivK6LgUp/7PRGcIAiCIAiCIAiCIBQ3heMAnMGqbrzVyIwLNfREEBRt+ZdlAKoJqGbQkQz984GVrs+MoPUINN0SbqxaId0uFBOj55lVsTguBKwfM9RQACBsYXQQBgCoB6Oege8nmG8xgtZigr69hzb8c6Vvr26RpiAIgiAIgiAIgiAUHwVxBbg2EJ1ojDcXMfAMCEfZqPeOAJ8PpVuNoPl3Y25HtXS9UOjUzuoY6A2Yv4/F8T6A3wAYmvxTeCyD7nXxwIgRML8vUhUEQRAEQRAEQRCE4iOvHYC7L1jVzwhatymi5wDaNw2PdAI4A/HEcm/QvGL3Bav6iQoIBccMVt5g9EfKmVhGhCsBVKZjuIHwqBE0nxkRig4RIQuCIAiCIAiCIAhC8ZC3DkBjbkd1/67+LwJ8PgBK68MJAwi4rqKrf4s3YJ0oaiAUCt5m6yDveOvfBLoPQCZOsk51Mb1hBMxRIm1BEARBEARBEARBKA7y0gE4apblpkTieQD7Z/I9DOxJxE8ZIXNBfbO1j6iDkK/UzuqoqQuZd5PiVwgYn+HX7QHCy7XBtnEieUEQBEEQBEEQBEEofPLOATgi9MmghJOfZ8CbtZcyJmjFi41A9I6RzW27iFoI+cKwptX9jZD1W+VMLGfG2VkcszsqqDm1s809pBcEQRAEQRAEQRAEobDJLwcgM7k49iCAuhy83QGicx3KsdwImheNXcQuUQ8hl9QFoicPrHSFwXwN0hPnL1l2UQ48M6xpdX/pDUEQBEEQBEEQBEEoXPLKAVgXMn8EYGpua8E7Abi5yzKXGoGoX1REyDb1wfYxRtB6kYmaAOyW4+qMHlhZdrX0iiAIgiAIgiAIgiAULs58qcjegQ93ioNuyh/R0EgQAkbQDDAcl0b8Q5aLugiZZPQ8syqewLWa9RkAHPlTM77ECJgPhhs8S6WXBEEQBEEQcs+wptX9d6rQ/Xp0+Y4JZzzmYuVIsMNBCbWpetAu7S9MpHg26zNm5qc7birrOYrAuxIjrkGLI4uq/o0ZpKW3hGyOi4EVziOJ6DsMOEjhXVr/ycst0+p7RDqCkEcOwBjKf0HAznkoowZCYpI3aN7ZU1b2f+8fs/PnojZCOhm7iF1dlnVeLI6rAeyQl/ME8dUAviu9JQiCIAiCkB1Gzft4eKLHOQ6k94VSXrAeAVANgCEAVByAcgCKN2/pHMSAMwGry4obAfNFgP8SbqgOZrKOw5pW9x9U6fxdN7rPJ6AcAJgAAsMYby7noHlpxO8JSG8KGaWJHd5K65cEXAFgEPf+NWuAKwebdcHola0+z/0gYhGWUMpQPlRibHNbRZdSbchP58dXMNAOwm8ib7r/ka6vWaPnmZWxODbkXVuZvhtpcD+dyzoYQfNxANPybMA0t/o9x6WtjXOiPmj1Z4Br83yuYOVQI1smV62UaVMQBEEQBCEDzGDl3d88jFidDOhjABqZuvFKD6gNa8/OxAmo2lkdA5Uz8SyA/bfz09+G/Z7fSQcLmWDCAnaaG62niLG9Pdo/wgvdZ8upVKGUyYsYgJ1EJyPPnX8AQEAVMe4xxpuLjGDb4aI+gl1GNrd5jaAVgqZgATj/AIA4oX8iPScIgiAIgpB2u3AXI2j+xju+/UNiegHg89Pi/AMA5tN5wOC/ZmQj6dL/wPadfwBwrREyvyc9LWSC9i7r2j44/wDgjLr9rctFYkIpkxcOQCI6obDERvsC6kUjaDbXzjb3EDUS+sqYmZ/uaISsPziUegfgKYVUdwaOlx4UBEEQBEFID7WzOgbWBc3rHUp9COBaAg/LiA3HOLt+Tvuh6XxmXdA8AMwnJ2FI3jh2Ebuk14V0YsztqGbgkiTGwpWjZllukZxQquTeAdjEDgBHFqj8GpQDLUYges3oeWalqJOwLT2vC1rndJd1LwfzZeiNkVJoa+yI0Jph0pmCIAiCIAipUR8wj1PORJiBywFUZPp9Wuvz0vk8BpI90bdrZ7R9nPS8kGbFPj7JfVVlwoVJIjihVMm5A7B2YNsIAAMLWIb9QfTbWALLvQHrbMxgJWolfB1vc3SCt9JazOC7sDloc8HiZOcY6VFBEARBEAR71De1lBlB63ZNmAVgaLbey6DD0vtE8iZdgvgA0QAhrXrNnLweah4vkhNKlZw7q4gdI4tCkowaIr7b2N96pX5OVCYVAbWzzT28AesJUrSAgH2KoU0ENqRnBUEQBEEQbNiGszoGcuXguQCfl+13Ezi9H6FZJ32Ag4l2EC0Q0owNPUR/EZtQqjhzXQHSqMqPXMTpWgxxkGZ6wwhZT6pE4hctjTUfiZqVFmOb2yo2KvoVA5cB3K+4Wqd2kR4WBEEQBEFIjtHzzMpYPDGXgYNzVIW10guCIAilTe5PAGYh5kVOmsV8slZqqTdoXj4itKJcVK0EYCYjaJ3WpdRyBl0FoF8RtlJiXQqCIAiCICTBhAXsjMXpCeTO+QcQXpaeEARBKG1y7gBkRfEilu9AAq538cAVRsiaLupWvNQG28bVhayXAX4QWYznkv0ByzHpbUEQBEEQhL5jdVk3Ajwlpybc5ljUgiAIQgmTBzEA9SclIOfhYH6gLmg+XzvHGi1qVzwYczuq60Lm3QrqDQYOKf4Zg9ZJrwuCIAiCIPQNb9BsAHBxLuvAwH0RX/WL0huCIAilTe4dgBoflIqwGZioNC82gtbt3qfXDBb1K1x2X7CqnzdoXoF4Yjkzzs6HsZQlPpTeFwRBEARB2D57zl+3AxHuBnIa8fzROK0/V3pDEARByLnToh94KYB4CcncCfB5VO5aYQSil3Gsu0zUsLDwhszGiq7+LQRcB8KAUmq7JrwjGiAIgiAIgrB9yntiV4JRkwuTDYTXGXRS2Oc+ZaVvr27pDUEQBCHnWYAXN9Z0GUHzHQDjSkv0vBOI/hBH+RmihgXUa8AUYjRyaTZ/fXW/qtZlogaCIAiCIAjbZERozTAwX5imx33OwGICljBTK0F/rJX6jHRiEwCAXOudHHPEgQrN6HQNcK5pmVi1QXpBEARB+DrOfKgEMzUT8bgS7YO9RA1lzBQIgRcmUlxUQBAEQRAEYduUaedlTOifwiMSzHhMKX6kf5Xn2cXjSBKxCYIgCCmRHw5AR/xx0o4ZyG18DEEQtoFiPCZSEARBEARB2Da1szoGMiWm238CvcTgCyINniUiTUEQBCFte/p8qMSyKUOXEfG/pDsEIW9Z1dLlDooYBEEQBEEQto3DqU8BMMhOWWY8ojrXHhPxi/NPEARBSC/5k7mU6SoALF0iCPkHga/FNEqIJARBEARBELa3reHv2bS45kQWuae3TKvvESkKgiAI6SZvHICtfs8bAJqkSwQh78zYt1s7PQ+KHARBEARBELbNyOa2XcA4zEbRjQntOAszSIsUBUEQhEyg8qkyCa0vAGBKtwhC3tCjlfqRnP4TBEEQBEHYPg7lmALAkWw5Bv62vHGXj0WCgiAIQqbIKwfg8saatYD+HgA59i4I+QDRxcumuN8VQQiCIAiCIPTFdOJDbRTTTmfiJpGeIAiCkElUvlUo7K95icA/BSDH3wUhtxbsDWGf+04RhCAIgiAIQt9gjUOSNrmAF5dOGrpapCcIgiBkEpWPlWr1V9/H4DMAxKWLBCEHxivjurDPfblIQhAEQRAEoW/UzuoYCIKRtN1F9IRITxAEQcg0Kl8rFvFX36+ZjwXQId0kCFljI0DTIw2eX4soBEEQBEEQ+o5TxQ07+ytN8edFeoIgCEKmUflcuWUN1QtcToyCZAcWhCzALzMcY8J+90MiC0EQBEEQhCQtKVIjbRRbu2xyzXKRniAIgpBpVL5X8N1Jnvaw3/M9RTgKgCQjEIR0Q2hjpnPCCz0TIv4hYoAKgiAIgiDYQAN72ij2BohYpCcIgiBkGlUoFW3xeZ53V7jHMtM5kGvBgpAOehi4NQaXEWlw34MZJIl3BEEQBEEQbELEuyZdhjkikhMEQRCygSqkyr4wkeKRBvc9Tu6uBdENAHqkCwXBFoEEkxHxey5a6Rv8hYhDEARBEAQhZYYnW4CVek/EJgiCIGQDVYiVXtKw26dhn/tyrRKjwQhJNwpCnwkz0+Sw39O4vMH9vohDEARBEAQhbXiSLcAaYo8JgiAIWUEVcuWXTRm6LNzg8YPpGABh6U5B2CrrAFwc7nTvHWlwzxNxCIIgCIIgpJ0dky2gOfGhiE0QBEHIBqoYGhFucD9b4XbvA+BiAJ9LtwrCV8SIcE9C69qw33MLplFCRCIIgiAIgpARdki2QEW8vyliEwRBELKBKpaGLB5HsbDfcwt3x7/DwK0AxNEhlDrPgrFfq89zzvLGmrUiDkEQBEEQhIxSmeTv9TvH7yiHFwRBEISsoIqtQZETh30S8Xsugtb7A/yydLFQgqwg5mlhv+eYcINnqYhDEARBEAQhs+y+YFU/AM4ki3WCiEV6giAIQjZQxdqwcGPNW2F/9eFMOA7AB9LVQtHD2EDgq2O0fu/WhuonRCCCIAiCIAjZoRKVThvFOkVygiAIQrZQxd7AiM/TvL4zVgfmy8HYIF0uFCEa4IccCRrR6q+esdK3V7eIRBAEQRAEIXt0b3TY2VeJzSYIgiBkDVUKjVwzbfjGcEP1DQl2egF+CIActReKhRcV1Niwv3r60qluS8QhCIIgCIKQfbSLyEYx2ZMIgiAIWUOVUmOXN+7ycdhfPV1pPhDAv6X7hUKFQWtAdHrY557Y4q96RyQiCIIgCIIgCIIgCMLWUKXY6JbG6jfDPvfBIDodgClqIBQQXQS+ekNnz8iwz/2gBI4WBEEQBEEQBEEQBGF7qJJtORGHfe4HXU6MIPDVkBgcQn7DIHoC0HWt/uoZa6YN3ygiEQRBEARBEARBEAShL6hSF8C7kzydrf7qGcqhRm12sAhCvkGLNdFhYZ97Wthf86HIQxAEQRAEQRAEQRCEZFAigs20TK5aGfa5pynCUQCWiESEPCDKTOeEF1btv8znflXEIQiCIAiCIAiCIAiCHcQB+D+0+DzPuyvc+zHTOQA6RCJCDuhh4NYYubyRBvc9mEFaRCIIgiAIgiAIgiAIgl3EAbgFXphI8UiD+x4nd9cycCuAuEhFyBKBBJMR8XsuWukb/IWIQxAEQRAEQRAEQRCEVBEH4DZY0rDbpxG/56KE1nsDNEckImSQdxXhqLDf07i8wf2+iEMQBEEQBEEQBEEQhHQhDsA+sLyxJhL2u31MOA7AeyKRLEFwlUAr1wG42F3hHtvi8zwvnS4IgiAIgiAIgiAIQrpxigj6TsTnaR4RWvEvlx5wMYh+DWBg0TZWcSzndeCidgDGiXBvPKF/vbyxZm1YhpcgCIIgCELO2HP+uh3KerpPUExjQdiZiZKzQ3t67NitQ4yQ1WSnvsQcY6ADoMWqgma2TKzaIL0oCEIy1AfbPQmd8CriRFms/5J3TtjpM5FKcSMOwCRZ6durG8ANI5vb/qGU+i0B5wNwFF1DE7w+D2pBxahDRDxPab5kqb9G/H5CThg9z6zkWHcZADhig1gWe0HIHmNmfrrjRhVPLJs6ZL1IQxDyA28oegHFemYANJi/tD6Zs/HqSjCfbKcgf+3/6Y38iRE0Lw/7PX+X3izs9WFDudaFGAd89DyzsnuTQ8naVhjUBc0DGLhBQx9OiohB6C7rjtcFo7PI4bi8ZXLVypIVDjPtHfxoRwBY0rXrF5hGiWJqnjgAbbK8sWYtgItqg20PKahbABxcTO1zONCe+8GHtiJzAa4g5l+3+qufkBEkZIIJC9hpdq3dk0jXgfVeYOzBioYSwwPADWBnAANjcQBUDgCIl3XDCJqbAFgEvM/MEVK0KBHHgmXHeVYVq6zqm6P7a6VOB3g/MAaC8AGIgus39Ny/Ztrwjdmqx4jQJ4PKqaeWE6qWFXvBPJyASgbtAGAgGANAiIF5AxM2EKn1zLyOmFdBqWWa4uEBQ2reXzyOYjICcs+okPUdDT2SmbwM1BJjBAAPCLsA2AWAoxvdUACMoAkAnwFYD2A9CJ+DeSWDWokoggS1uAcMWfXCRCreRGRN7DAGtJ8CoAHMuzGwgQivE9RTrb6qt0WjSpwZrIz9249j5uMI9J3ejdlb2kH3LZvifjeNG+HrmHFFYW9YMRjA37xBc0jE77lelCf/5rragW0jSDtHEdgAUEvAUMY37DN0oxsu7l0fGBtA2AjG50RYzcD7DLynwO8xU2t4kbsVM0jn1JYKtns0+BKAT4jFsZdyJuANWmuIdbNDqT8t9bkldFYe4g1ZlzLzjfh2ODgng77LCX2sN2CdHGlwzyu2to9sbtvFSTC0Ul6luZZBBojcBN6JgUoAAxCyKuO9+ySj0gKCZhxAB4C1AEwwVoM4AkZrAiq83F+1CkRcKDKw715hplFz2vfUxLsT806aVX8Cf8HQn3K3bomcOOyT0hpIZiMxbgWwexE0Jx6j9QN6TzvmTqZB8woCrit4aTI2EPGfemjD9bmWaTbYc/66Hco3xY4kxeMZMABUARgIUA+guwB8AEYLiF+vcFe/Lo6LFAyvBe0DEhv1RGgcqAgHMWM8CAPS+Ir3GHgWhGBllXtuMfTViNCKcicPvJOAH21lDfwQWp8Ybqx5KxPvN4JtuxHoSN78ZwKBh6XhsTEALQAWMPA8xx0vyhf4bMztTEbQqmfFEwjqcDAf3ruRSyc9YH6ToeaT4n+FN7gXFsuX6FEh6zsJ5kcAHLDFlRN0p8vJv3p3kqdTlK0E17e57SO05sfBvN8W/jlBjDurKt2XpOogrwtFpzBTqKhmJqZDIw3u1zL9IiMQfRlEhyZnEtOMiN99ddEr8AxWxv7W/tA4CkSHAHwIgEFpfstnYLwG4DWQfjncWf1qNtcHb3N0AjnoyV7n85bYyMAZEb/n0QzvF+8l4MdJFvtH2O85sxTnViNk/RbM1/Thp5sImNDq97xR6LZGXOMoIj6KgQm0eV+abtYR8CqDXwbRy/luqyXlAKyfu3pnnXCdyODvEuhAADtu4+cfAHiOmZ7wVFY9V9RfsHsZ29xW0UV0OYh+AaB/AdsOb4f91fvlfIJqtk6A4qcLWCU0GP9wufCbdyd52ota+WewMsa2TwXxmSAciz6fLqZPwTyTlLpNTnv0cSGb9/HwRNxxIoATsPnkcbZiZXYw4TEH8UMtU6oXFqTwmthhVLY3AzxlO7/8nOHYP+Ifsjw9myRzFCs+nZhOAPCdLLQ0TsAbDH5UOeKPtkwevk5GTvqoDbaNU3BMA3gagN2y/PrPAH6eSD3d1b/rqQ8m7rGpEGU4srltFwep10EYsZ2fPhvudE8utus3wnb0I2Dt6VD85jYcC5utVaYnI/6qaamcvDCC5hsA9i8m+RHQ3Or3HJdxO10cgN9g8y0MazIxTmBCQ4YcDdtiLYBnFNRT/dxDnsvkR9v6ULROM/0b24+HHwfTlHCD+9lM1UUcgEnNd9cC+E0SRZaGF7r3yfVJ02T3pHUHWBM5ge+BcDSAPXJQiw4As6B4Zow3PJdvB4D65ACsb27bNaHUpQScDaCfjfesBvCn9Z2xe7J5tSpXjAitGeZix3UAnYpCjGNHdEPY574893L8ZJCLY2uz6OBIJ28QcFGhfzXp08IbsE4k4msB1KWoeHMYfFnE71ki259vG5UdG83jE0znEjABuc/g/oYivqnlTc/ThWQUGCHrXDDf0cfV8YWwzzPR9rh4es1gVeb8IROdDvDYHDa7B+CAYnqgZZE7UFBGXD45JDY7rM4B4cfIjhO3L0r6KYB/QifuzdSJ1bzYsDGfH26ovkO0sESYwcoYb70BYFyf1AP4od0TRsbcjmokEm1FKMWu8EL3wEzP9+IA7N0nh6J1zDiDQacg/afAba8PTPww2HFbuj5mfqPvg+Z8AEf38efvhTvdtZn6kCMOwL72mXUDwL9KthwTT4j4ql/M9/aNmvfx8ERM/ZCIzmZgzzyq2udEeJwSdEdLo/s/eTE7bOsfxy5iV1d7++Vg/g2AsjS87yMwLgv73Y8X0j1pu9QF2g5jolsA2reQ6k3AgfniuDKC5gsAjigU2TFoDRF+HZ5S9VCx63h9sH2Mhr45zf0TB/P1FR7PtXI1GBjWtLr/oErXWQz8HNk/adQXhV/JoD96KqvuLYRT3nVBM8yAt6+/V1D7tvir3knKAJllueMu/QvS9NM0X8dOx+y+jKH/UOn2PCLjq+8bO63pYhBORV6f7Oe3idSfWt+sejTfnbwjQtEhLqY1fbYrGSvDfvfIUrAbBcAIRP0gCiRR5N2w37OPLcdBoG0skVpUjHJ0cvfOSxp2+zTDfVXSDkAjYB3NpC8l0CTk74EPZvA8Uvhr+A3P3HSsD73hG1Yk02YmmhTxuf+ViQaKA3C7GkBGyPoLgIvsmY58WdhXfWO+ts0bsvwE/ALA4cj/g1evMejPkYVVM3Npq6mtO17aduuyzDd674iXpel9u4LwqBE0X/IG2sYW+3hrbah5ObzQMw7AWQwUxhVQRks+nVoj0GMF0t2dIPq/DZ09I8M+94PFvFGpn7t6Z2/QvEVDL0L6nbNOEP12o2UtGD3PrEKpMoOVN2CdPXCAayUDtyAfnX+bB+gIIr67vctaYoSs4/Pb6bBmWDLOPwDQ0H0+AVg7q6PGCJo3J5z8PjH9Iv+cfwDAtQS6r8uyltcFrXMmLGBJBLYVRja3eY2Q+bRmWgrCWcj7sB60LzM/bIy3ltQFo9Mwg1W+1tSVUIcmZVcSRtTOaT9YtLJEIJqeZInR9cF2j71XYW2xbvkHV+4qcWAzhDdkHWsErUUgnk+gyXnudCACTYamoHe89VZdKDol1QfGmQ9Ius2Mg0RzcjETMBlB83bYdf5tNoYH5GPTjIB1tDdkvUFAc+9+tBBuXR5M4CeN8dYSI2RNz5UdvkUDcbNzTr2esZNrRIcSqTeNoPn3UbMsd1EPvBmkw37P38uc2JPAVwPI6yQQBPpDPtWnh764D4R8vp7BIHoC0PVhn/vaYr7iPnYRu4ygeYlOuN4j4GcAHJkTKg6Jx/GiXaO+kKmfEx1v7N++kIjvBqOmIOwLwAvmmUYw+pI3aO6dj3UsTziSlmWfEnQ0scMImBcrR2JZr4FVUQBdtjuD77K6rMW1IesQsZC/Nv6C7R5v0LzLodQSME5A4YXxqGPQ48Z46526oDk1P3ejySe+IebTRDuLnxGhTwYBaEx6f6rjttbKcGf1GgBfFKEoV5ZC7PVs4w20jfUGzeeIeV6OQ3vY3ONhH2YKGUHzBSNkHpiC82CXpMsw7yIalG3jnMkItd8GonNT0xu1PJ+aVRc0pxpB8+3NDniML9DeqQPzA1aX9W59sH1ytl/+LQdgfShaR+SYD6A6C+8+I+Hk9+qC0Rm7L1jVr5jH4LuTPJ2t/uoZDMdoAIE8reaS1q6qR/OpQit9e3WD+eY8dXosZE2HhH3uaWF/zYfFrL/GnKivy2pfAuDP2Hbyn3TK16tZPztm5qc7ogSYsICddUHzOq3p9a1kPSwE8/IwAhbXhaJX1ze1lOVTzRJQSTusNdE244/WB9vHGJXWayD8JT9P/G2X0Yr5ZSMYfbCkT9wCQBM7vCHrUg29koBz0OdERnnL3gw8Uxc0Z48IrRmWVzVTSDqrLwHfK3Y7UQBcHJsGG6dtHQR7H1+nUQLgfxabHAl4SrQpfYyZ+emORtC6nUi9QcCRRdCkI8B43QhGH/Q+vWawDfs86Q9jTESiSdm1aYw57fcBfF6KT4qzUz2XD03yzonubgTMIAPPABhTLFtsDT3HCJqB2jkf12bPDPt6DeZ2VGumOQDvlMWGVzLoqv5d/d+tD5jHFft4jPiHLA/7PY2kcDSAfEp2oJnpp/mYaS9GG24FEM6jKkWZ6ZzIQveBkUb368WsryOb27xG0ApBUxDg2qxXgFDfXdb9UD5fZ0sHo2ZZbqvTXMDAFcjgycqs7eGY/k9XDH6rLtS+bzH214QF7DSC1g291+ALPXskAXRaLI6l3oA1qRTt5Pq57SOMyvbnifkmAJXF1DYGGl3sXGYEopehifNibklQ4lUbxXas6OzXCKHI4elJFyF8snRR9bIU3vkHAJ8VkRDXOp34i+hSmpwOQeu73WXdkV5HiqO4WkenodzZWheMTpOeLjIbdYD1MJhPT4MRcV948pBo7m1u8yJK0BIQfEXabX6lHUvqgtEZ2bDVvrmpTiTuBLBrjhq+lybM8gbN5/L1Clk6aZ3iea7C7R5LwEW9mfxyvAPkayMN7tfyUVYrfXt1E+tzAOT6OkM3AX/QcUdtpMF9TzFn0xwz89MdjZD1B4dS7wA8JcfVaTDGm+cWq6xr51ijE05+I9lA2vlvV6KeWb9uBM2LiqlZI0LRIVanNbc3k1oxbQaGEPEcb9C8ZewidqEUmMHKCEV/pRN6CcCHF3FLK0D0h7pK68VRISvnGYyXTRm6DIyWpPchyceGEwppLZxt7gHYWAc1ZqVij4X9NR8yYTqATUUgxk5S+P67kzztolGprvWfDDJC1v0EfhJ5k9k3E6Yaqhj0uBE0Z45sbpNrugVOfVNLWXuX+RgY30+DbkS6y8t+mdP2NFv7WF3WQgA3F+hNm2RwMegqo9J6xRvsGJnJF33lADRC1nQAOY8XQ8CRBLzlDZm31s9dvXMx9/LicRRr9Xtu5e7YXmC+E0CuTt8907rQc00+y6q1oeZlBl2WwyoEHET1rX7PFcumDinewMpN7KgLWud0l3UvB/NlAMrzxES5fmTz2qHFJm5vwDpRaX4N+ZrkI3XKAdxsBM2HhjWt7l/ojamf036oi+k/IBxVrHsBAn7WZbU/W+zxN0eEPhlkjLeeAtMNAEriaikDhySY38qLhD2KH7RRanIpxoUtFUjRabBxtZCg70/13RGfp5mACQDeLWARLiJSh7VO8Twn2pQadaH2fV0ceyctJ6gKh+MdSi2unxMdLxpQoDZqU0uZrhz8OIO+mwaLYXkPxY95/5idP8/ZOAxGf6wVv47iue7bVw4kJN42AuYZmXqBEwB2X7CqH3fh93l0Od9JjAt1ouxUI2he7a5w317MwWwjJw77BMB5I5vbbnUox5+zfOJq/saKjT8ohNNsEb/7z0bIqup1TGXHIAUiIP55q696TrHPNt7m6AQo62YG9snD6g10qMSVAM4vFnkbQfNMgO9B4SUZsMOpAyudu42Z+elx75yw02eF2V/WaVrrfwAogdNxfDiDX62f2z6pZXLVymJr3cjmNq+TYzOTzQpdJAwC89NGyLox/GbVlbla+3XM+bByJq5DcqdonZr19wHcLFu94oMIP7RR7INWf/Ur6Xh/q9/zBpjHGMH2o6BwEDF7eTtxYL89dbILwPFJvroTRCF7UzV3M9MKAM9G/FWvg4hFk1K0hYPmD5n131AYCb3Sza5a08tG0Lws7PfcItpQOIwIrShnHvgEbCRR2tLeNxF3HrVyanVOknDuvmBVv/5d/W9j4IwS7tIKEP5uBMyDY2r9eSt9e6U1iawTACo6+5/FNrKyZWETshOAm60u60wjYF0SbnA/W8w9vbyxJgLA5w2ZjcT4C4CMXtUh4J9fdMbOXOPfo2CuPYSnVF1RF7KYgcsza4niE2j+v6pKzz3Fnkmtdra5h8PBf0zPF6OMzgdnjpplXbN0qtsqdJnXBaxTGXw3Mu38Y2wA+B0ASwgUJsVRkMNMJOIbAYCUcjFoEAEeaB4O4mEAjQawL2wEYt/OoDqsu6z7pdpZHZOXTR3SVkj95Q1YZwN8J7aQOKtYYWBPTuhXjOY2X7ix5q1iaVd9KHqSZrqfsxvrjwG0g7EWhE70Zh0loD9vjoO8C4GrAGQrcQ6B+bK68VZdT+iTU1f6Bmc9C+qyqUPavMHofAIll/1u8ymxm2W7V2ROl2brIDtxhhl0f1qdXkQcBp7F5j9Js+f8dTuU9/R8lmSxjrDPLTHYcr7oMRmh9hsAzvaVRw3gMwI+Y+ALgNeDKAGmgQTeiYGB2Jx8L1sfH7+8uTHKXeE+V7JJ5z9jm9squlg9w8AxaXjcOz3Ex66cOqQjF20ZGbD2dHTpJ3v3IbnmMwA7IJcHNQg/cWGgUT93dUPL5OHr0vVYJwAw4cw81+1RIJ5vBM1nHax/trShJlzMAzni8zSPCK34l5MHXkKMX2fgznscwK9a/Z7CCxJMxK3AFUbQagX4dmxeGNMqGwbucOnuGUsadvu0mBVtbHNbxUZFv2LgMgYVwhW4soRLnw7gxkKWe23IOoSZ/45MOZOI3iLogNZqnqey6k07xtvYRezqNKOjQepYAk4EMDZNC+Deypl4du/Ah4csadjt00LoL2/Q+jmBb8qwARAH6D/MHCEgzIT3wbSOFTY4mToTHHeAaSAUDVDgIQCNZEItmOoynJzHDaUWeJujUyON1S8UvJMhZJ6lGXcis7EbN4F5EUi9RqwXEavln2/sWb5m2vBtZyltYseoAe27a+iRmmkMAQeDcBAYgzNV0c0JQuLPe59eM6n3JkJ2l3OmB0BIzgHIvJ83aO4d8XuWQCgaiPRpdhKLOgkPi/SEVKlvailLBK17QTglw6/qYeAVBbwBplbmROv6jYnw9taHsYvYtXGtORJx1GkoA4rHEmNiBvZAX+dMq8saMqxp9Q+2u34JOWP0PLOyM47Z6clOTYu5OzZpZQ7sAWBzTHSleR5A2Qj10QXwYoAWAfweEd6PJ3hVOcWsT7vUpq/r/O4LVvUb2Kn6d7PL7XTQHhr4Dpj2UsBYBsYh0+GyGAfphOvF2lkdk9J1gIJ6hf2fAtL1bhDdrGPq90Udi60XY25HNSX0dQw+LS2bFsILzPhZMRjPtbPNPcjBdyR9gmCr44vnOgiXtviqW4taqZipLmiexEQ3IXdJf2wvTmG/e1yhin7ULMudcPJ/kP6A0h0guldT/L5lU4YuS3e965vbdtUOdTYzziKgKg1K+PLGik3HfjAxe6ePvc3WQaQ4uURHhDYwajJUpQ+I+Sl24HnVz/FSy8SqDXbXCE4kJhLjKBCd0HtyPt2sZ9YTIw01iwt2LQ1GfwnQDciMI3ctgGeYMHvDhtizadssMVN9wByfIJqqCCdm8MryEkecjsn26ereaz5RbD7dkszAvDHsd18GoWicL7py8McAkkxAQC+F/e4j8qktNk8AfhD2e/YoyHk1EH052QRmDJoR8buvzpc2DGta3X/QAOdMZpqUoVeYxHhSE+aVObHg3UmeznQ8dOwidnW2mwdD07GZXR/ope4y13FfjwXXm9zt5iSfc3vY774gI/Zd0LyXgB8nWewfYb/nTBQwvfNNCMDBqbsH8GoPuXy5uBEAAHVB8wAGQgAylf9BA/g3Mc1MUOKF6orqd9JxunVEaEW5Uw8aSwpHgflEZDZe4SrlUMemIzQPGaHor3qDYBcaJoGvbF3oeaCYs7F+ZSDNbR+h4/pX2JypLFlPMwP0MgO3Rvzup4pNNnVzzKNY41fYfPSZbEwIzxLr37U21Lxc7HrUO8HeAuCAAm2CjhF7VvqqOwpT/tEn03zV+kMCXf9FZ8+D2fhCOyK0otylB54Kwm8A7J6SbwO4L+L3/CRbsrflAEw/m0D0OCf0/ZEGz4vpjtc0IrSivBwDGjXT6QB8SOMpUwbaSatDw41VKwpt3HkD5u+JcGWaH8sAniXw33tow6x0x2fZhg6fAeAHSHt8KloWo9jRK33D1mR1TgyZdzPj7CR3Km3hDe5dMY0SEAoeo9k6AYqfTlpjCWe0+jz35uGG/LMki4kDMEcMa1rdf2ClaxbSc3XyG7Yqg/8FVn+r9FQ1Lx5HsYz3RbDtcECdBeAkpD+x1TsuJyZ9mV1aHIC5Z8zMT3fsLuueA+DANKz/L+m4asjVwar6kHmk1piViSy/DPyHmO+B0zkzPHlINNNtGRWyvqPB32PGWanuk7aCpaAmt/ir3kmpx41g9CmATixYy4HoLdKJi0vBeQNsPkGkXexnxiQAR2PrnvL1DCxU4JdZOx4pxE1b0hPI3PYROp74LhRNhsa4rU4kjA1EWKiBf3ECjy87zrOq2GVTO6ujxuFKXMWMM1HgccyI2FeISVm8AWsSEc9N0+M2EeFa2vDJTS3T6nuy3ZYRoRXlLgy4CJp+m9qCTceG/e75WZF/bh2AnQS+mx3Om7JhgGw2qKJ1mukKAN9Hb7iPNLAKDsch2WpDWjZFIfN3YPw6jY9MAGhSmm5oaXTn5PbE6HlmVSyBn4FxPpI+Pbft/k1o52HLG3f5OIvz4sFE/GrSRj3RpIjP/S8IBY8RMp8G44Qki23sLiurzmWGyi0hDsC+bMjzwwE4IrSi3MUDZwM4No2PjRPo4Tjj2uUN7vdzsxdavbNOuC4B4+K0OlSI3tIxNWHZ1CHrxQGYW/YOfLhTjMrnEZByxmYGz93QGT8xV9e864PtkzX0TKTXaR1nxuMA3RFpcOfG7m9ihzGgvRGaLwDhqPRuhPFJIqEP7c0dYe8RdUEzXASZ8JiAR3soflm2v17n3Knw9JrBKHfWgKiaNDQj8anD6fy85Yshq0r663gTO4zK6DBi7MpwlJPSrgTUFy7AXPpm1apSODUKbL5iVbGx/89Z44pMfFnJBcT0y9YG902FNUMxeUPW25SWDMv8slb6rExc9U3egF4zzMWue2xnLmesrPC467LxdTxHDkAG476Y4stzdWrVG+wYSUj8NV2bHAJerapwTyiEwOC98Rv/lMbOnKsc+EXr5OqWfGhf70bvN9icHT1NCUT4bVXhONzulXRbToSgFbERy/LhsN9zGoSCpleH25DkzRZmPBJp8Jyab+0RB2Bf5tE8cAAykxGyHgSQLh1iED2pKf7bfLDNvtwfUj/XL8H8M6QpqRsBC3po/RQXD/wpxAGYE0bPM6ticcwHMDoNjwturNh4UjbD8Xyj3wJtYwnqhTTuTzWInmJWv4n4hyzPG1t08/7jegBpC1nBoDVxih1k1+/lZGQsvlF2fQLAD13sPN4IWX9V/el32TRec0lv4O5PAEhA7K8zjRJh4ENs/lOSeENmo+rCzQzsmcP8RWlHK+0utDobwfajQOlw/uGW8ELPz/PFgb3SN2wNmP11ofZzGPznpI1MwoiNluUDMKsIh+ASTXTuMr/71VxWotcImlQXiJ7Mim5ONaYhA4e0d1nXArgin4VfF7JOYeZ0fSj4CIrPjUypDuVTG3szwv3caG6/k5S+m4GJaTCn9tVd+jE08dTsfUTkhwFcm2ShE2tndZxXCrGgixkdd34flHwAdSJ6QKQn2F4fguYfmShdzr/3WPOZkUbPC3m4P7y8drZ5t1L4WzpOITEw0cUDH2PQywQWRcoyo2ZZ7licnwUwKg2Pa6pwu08NZ+ED/JaonW3uQYQAkCbnH+EFaFwY9ruX5lu/RRrdrwOY4A2ZjYp79+UpN5eHueCaVTurY4IdO0ghsxmEsk0FmC/TXbqlLhidBmaS6UIoNeqbrX3qgubzxJidjkkm3yBNOxRepfmiVPdJTPSLsN9zcd6dXiXiVr/7LiJ1CAA71+mnFd8o5IcqtD5wmS+3zr+v09pQ/UQiofcBI2UnFgOX1QfM4/J4c3dAb6ZtSrmpzHfquGNUOM+cf18n3Fi1otXnPoqZzgGQDoeY36hsvzVb9Y9R/H5svlqdlL3ncMZPkhW/0Bd0snOK8+NwZ9XzIjzBDkbQPJOJLk3Do+IA3bixYuOoSGP1C/na3mXHeVaF/e5jCPRTAOlI8HA8gEtEk7K8twu2exJOfh7pcf496q5wn7I4R84/79NrBjscCAFIR7bfzwBcHH7TfVS4wbM0n/sw4vM0f9EZGwWiG2zYPFuwUHk/ciaeqW9qSfoGiMLmJAjFxq4MetwIWf82QuaBMm0IJbE4zF29szdo3qIVL07PSZB8heOFVNu9Ax/uBCCl7HLMdG7E5/5TPrez1Vf1tnLExjGSi3PIoGHFo5rYQODvhf3V0xc31nTlW/WWN9asDfvdDbz59F4qaz9pwt9HzbLy7jSuMbejmglPI/V4Mp9B03fDDdWFccqMiCMN7nu0SowH8G4alPk8byh6QTaqvtI3bA0DL9potFwBLmibpX0EbCQkI+BBSQAj2NK5OdHxAP6a+nyLNmY6Iux3X5ar65PJrg+tfvfdgB4NordSbz4PE23Kot42t+2qWb8MoC4Ndurfwgvdp+YqjMvYReyiMsczaQo/N98RJ2/Y77mlUEJ7rZk2fGPY575caT4Y9g5N/O96eGRiwOCkb7soAJ8X8ZjZH4xXjaD5t9HzzCqZQoRiZOwidhkB82KdcL1HwM8AOIq6waQK6spXQvXzAXClYGj9OdLgvqcQ2toyefi6yEKPn8BXo48OJi4wh+42WMegSa3+6qZ83whE/J4/gOi7AFLZuAxJuHBDXrWtiR2USDyS6jVnMFocROPCje6ZhaaEy6YMXba+M3YggIdTVhWmm2rnWKOzo5bJX+lkYELtbHMPCAWJjiemw8Yp3bjWD4r0hGTxPr1msNb0JFL9OER4HcoxLmfJBVIg7K/5cP2GnkOZ8YhoRGFgBNt2Y6UWgDAi9afxXeFF7p/m0lm20bKuTjZu6BaXf6Ibwp3uKUunuq1C7NeWxuo3Y+QaA/DTqdtquCDZWzlOAB9h65lkiwEF4MxYHCfXBazfUdfaW3ORNbNYGdnctotS6kwCTdnWFyFmbISiRdB4ONzgflYkl6aFIWAd3WVZfwGl5Uh4YcC6oOI6MutJKdxEfLeHNlxZUP0zg3QrMMMIRBeC6GFsJ0sppWHxywM+Smg9KZWMXFnfCPjcz9SHTL9mPAO7oUCYpxvBtnvD/pqX8mI+rLSuSMPp5/nd5WUn51t20WRYM234RjBP9wbbVxBxKsH2y5XmR3ZfsGp8pk+5uBz8VCyO25LURVIKPwTwe7EGCm0dZ6KQdYqNKGJvFNI8K+TRZrDccTcDu6bodrg3RuvPWzl5r+6CXh+AU70h621ivrF3nyzkId5gx0iGfg5pOXFJfwz7Pb/KZXvqQ+aRmnFZio/5gpmmRfzueYXevyt9g78A80neUPv/Efgq2N8skib83ZjbsU948pBon+ZDgEslecQOTPxHXTG4pS4QPVmmlTRMTIHo6Q5Sqwi4HuDDGdhza39AqAfz6SCebwTNf8mJzBQ3us3texkhqwnE84EScv4BYIWWQqovgcbbLauZL17pK0xDM9xQHXQQjQPw720I54UKt+eeAlfJDq0SxxbiprTF53meNR8H+ycBCazuGLuIXbluS32ztQ+A36Y4WB+rcLv9hez8+29biCMN7msIdC5SizUzql9X/4yf9Hx3kqeTQE/Z6LPTJd5zAdowoehhtmIUS/IPwZa+WdMZ9N0Urc+7wn73mYVqk/0vEZ/7TwychnTEIhPSzsjmNi9RYkFarlsT3RD2u3Pq/Ns78OFOmnEfUnM4m9B6YqSh8J1/37DV/O6rmfnHAFK5ETUEOvFPzOA+yVcR1GslNaIII5ioqS4UnTsq0GbIFGMPb9D6ORHdbzN19zGxOF4Z2bx2qEgyOcbM/HTHumD0T1C6Bcyl6MhOcMz5VqFUdkTok0EMjLRZ/MVlDdULCrmzlvrc74U73YcCOAtA+Gv/1AXQjRv7b5ySqyDEaeJzBXXssilDlxXsJqCx+gVFfBrsxgQk1HdZ5tm5bEN9U0tZQvEDAMrsPoMZj4Q3uE8tcH38Fq1+910g+glSiPlIwIXegDUp03XVWttx7uxVF7L2F+ug0FB24jf28KZYk8hOSAYj2LYbmG9J5RlMfFPYX30uiIoq9W3E7/knQD+GOAHzilGBNsOh1PMphzMBwExXhX3uy3PdpjiV34fUTuCu0AkcHG6seasY+zzSUP0ANE0DYP8DA2NC3bj2n/dpBe6hWAAovVzezDQpQerdupB594hQdIhMN33HG7R+TuBUExLs5VDxBeIE7CMzWBkha3p3WXeEQT9HCjHlCnrcAi8WRED+Xpy6ey/Y/NpFRH8rik6bRomw3/P3sN9TB+jdGRhdofWQggmevQ1/BUAnt/ir3in0LmrxVT8J5hSumtNldrKQpW1eqNz5SgL2sV99eiLS5T69WBMLhH3uB8E4OwVbjxTxHbsvWNUvk/WMNHheJOD95NcFSQZSSPTqUdIZnJlpduTEYZ+IBIXkULdjO6FItjn5Mf8p4qv+ZbFKJ+x3P8TA9FL0BeQj9cH2MQlSLwGoTn3LhJ9HGtzX5LpNvTcvp9pvCK1hxccuO86zqpj7PtzonqkY05DCSUAmvsY7J7r7dmfFlb5hawh4rUTHmZMZZ7tAYSNknYsmdkDYJmly/n3JXg4VX1A7q6NGJLsNmYeiRxjjrcVgfgCAu5RloUBPFFJ9STmG2ywaK+suCxafoVnzYcTvWZKPGXJtGCTXhP3u+cXTN54bmTDbZvHhumJwTpwwo0LWdxhkO6YMAa/G8MVpxZ5VNNzg+QeBr7Gv79izX1f/SzI7YRKD2EbyEv7BiNCKcrEWCoOKrn7HwY5Dhliu/wpJ2s9mIwC/7XmP6cnWRbmNm5YNIn7PP8EphtAQUtfXQNtYTfpZALukaqIS46Kw3/OXXLdpWNPq/kx0YwqP6NA6cUxkSvUHpaADLQ2e2UBKtzb6k6Y/bH8/DYAZt5X0iGMMBvMdRqX1dn3IPFKmoK1MTOl1/n3JXsopTsAtMSK0ZpgRjD5ITAsAjBGJ4Isecv6zkCpMzDaPu/PSd07Y6TPp8rxdM56LLKy6tqjaRMQ6oc8A8LHNJ1yei49ocfCfYT+r40cqTt8tlphO26PV57kagO0rlMS4MtNrtYJ6EMmfRNnZqQf5i6KTZrCqD7ZPNoLWbUbADBoh81Fv0LqqmELW2DyxaXkq3HNl8RH6Sn1TSxkxUnGAvLmhq2d6LjOmZpOw330dwA+J5uSG2mDbOCLHfDAGp/ioBIHPaG3w/DUf2jVogPNyALvbLN4FrSeXWuKn3lO5v07hEdOMYNvh27a1AIS73E+ACyuwfobYWzOeM4Jm86iQ9R0Rx3/JkPPvy23FSHEC/pfR88xKI2he62Lncmw2lCXA+WZuXekb/EVBbXQI9pLdkFop3Z23dLGDzyzGTcHyxpq1DLrIns5ihLey/fhs1tcIWscQ47gUDMsTlk51WyWjuUSsKtQZAN612ccDlEtfl8kqLvW53wP4FRtNm174dpa5tzHeel1DzwH4fBB8YHyfwDMSpFqMYPRB79NrBhdyG3sTwNmJJ/nPFyZSHILQR3Tl4HMB2N3LfaygpvZmzC2Z9SFGG84C4XXRnuxSP6f9UAX1PMA7pfioBEA/bvVX35cX7Wpu25WZfmF7DwU+v1hj/m2PiM99A8j2rTcC1C3b+ii/OTbVNEqQ4l/KEPyKhgRzS13QvL5+QfuAUhdGZp1/X+mqOAGZqS5gnRqLYxmA3wDoL0PxK0wdd9xYeF2KgfYsV71WujxfjWS+upivIkT87qcABG3KZnoWBxcx+Pe2ixMuLkXDsmVi1QaG42QAnTblflpdqH3fzPatrUyvU0Y2t+1SqP1SFzQPIOAlAPtv3aCn06jM+WJ9sN1TqO2Mx/F92IhhrLRk/xX6zojQJ4NAtq+0MkA/bvFXmaUmt5W+vboTmk4FsF60KEt77FD0CJ3QcwCb+4X/0sNM08J+d96c4tQOx00AKmwW/0vEX31/6e41iHVMnYFvJlBMhjHeAdZPtrqmfvl/Wn3Vcxi4T4biV5QzcLnu0su9AevsUo0PmB3n31faXrJOQG+gbWxdyHqZiR8CIIlRvmWN0QWFlPzjvzs2tpUYgZWcdMhTwhVVuY+pknmrTV0CG0GIiTElW0m16oNWIwHj7c0nPDcyxf33UlXiiH/IchDZ/eirGDqjMbFiyvUEgGTjhJYpB32/EPtjbHNbBQOPoS9x8Qj1mvU/Cngtt/ORYElLo/s/svwIfcXJsfNsX6Vk3FJM8X2TZXmD+30iXCxalI29nzWJmOaAkOpho24CpkUa3E/nS9tGNrd5wfxde5snestd4f5VqevHsqlD1jPwPQA9tsTIuGLCAnZu0ZD7+n9s6IydD2CRDMlvUE3EdxuV7W/Uz2k/tKQmpqw6/75S15JyAtbO6qgxQtb9RGohA4fIcNuiTtzReyqp8GrO9hx5xKWd7CV/N6+4dvE4ihV7O8ONVSsAftRGUVeZzo4TRhPPsFm0wxlXPwJRSWc8DE+puovBc20OhJNqZ5t7ZKpuK32Dv2DGzOTrRQV5DbjL4bgUycRIIvi8AWtSobWzPhStA3isjaJyOEHoM8OaVvcn4CKbxVvXd8WuLHUZtvo89wJ4RrQpcxhzoj4ifgap3/bqAqix1e+ZlU/tU0r9Cv/jZ+ojPcz8Iwn5sJmI37OEmezedtmjvcs8cYv98/X/WDNt+EaHM3EigFUi8m9ZlmO11i95A+bDI5vXFv0Jrdw4/76yboveCbj7glX9vEHzCuVILAPz6ZA4f1vZZ/Jcd0XVRQXbAMIGe8UwTno/37oSkUinu6lU2utgvh42spAx4YeZrlvdHPMogGxdQyXC5SUV92/rgmCH5nOQ/Ek7AHCSE5nNCKzoQRtjdPzI5jZvIXXDhAXsBPM5NrrvwoJbz9lW8o+4gnoUgtBHBg4o+xEAm9fk9bklFfdvGyS08wLYDRUhbGePbTZA09Own8DsSzoVoTHfTqyObF47lIBTbBa/NuL3LBEt+S+eyqrrQGQrZA1jy7c9vuWZXTpp6Gql9QSAlonIt2BzEU5xqPgyI2j+ZljT6qKM0ZZb599Xoi5aJ6A3YJ1Y0dW/hYDr0nDsu5iH25xNFZtOKOSvQMyw5WhgYM/6Zmsf0YF8Ukf8EdMoUSrNXdpQE2ZCwEbR8WNmfrpjRiun7Z7uoMWtb7rvF2XeTEtjzUdEfJMtSTLOyGTMvcibVc8CWJ1sOUXqtELqg96v83Y+KvuM5va9CqahM1ixjQ0hAXNKMRabkJLhdZ69YvRk2F/zkghwM8sbd/mYQX8USaSXumB0GgFPAyhP8VGfsaZjWnye5/OtjQ6VuAiAnRBIK1TnJzeKlnyTFyZSnBO4YPP2MGnGbSkjsNqaUdhd5jqACbNF7FukEsC1Aytd4bpA9ORialh+OP++Mv2Kygk4srnN6w1G5xDxUwzsKcNoGz1PuKfCXTX1g4l7bCpoO5Rg+6RRgvAb0YR86UhsoP6qqfTanfwpLACOnrLuIzI2jwasPRnw2xuOfH4xZm9Ohf4JvgHARzaKViilzsxYxWaQJuARG2vH6YUUs5mhzre7TLIjcXbBbHoPsCYCGJ5sOQ1J/iEksYcJRY8AMMpG0R6Hk64QCX6TDZ09N9pcH4QtYATM7zPoEdhIhPQ/0/+nSvOkSKM77zI2b06emvypdgBgpstbptX3iKZ8m819zTNtyZXUpf/7d1u9m/3+MTt/HvF5poLodACSkXLL7MZETUbQfKE+2D6m4BfOvHL+fTXJFbwTcGRz2y5GIHqHQ6mlBJosw2abRKHpxFaf55xiiLXm0NRqW/OJTzICUb+oRF7waMvEqg2l1mhH59pmED5J3qmBiRmrE/SPYC+uzKxWv+cNUeVvsrixpotA19mao4CMxtzTcNyH5L94D60baE0oBNnXzY3WA3yY7TWC6cyxzW0VhdBWm9d/18Xpi4CMUqHvkwadZW+DzLe2TK5aKQL8JmumDd/I4KtEEqljBMwzQHgEgDOluRRo1woTWhqr38zLub6TjwcwyMYi8Uo+JTHJy+lN6SthL0Ffw/+Gr9uuER32uR8s7ynfC0Q3wGYWkhLgCA292AhGHxw1yyrI4P356fz7SnUL0gk4dhG7jKB5kUM5loPoXAAOGSpbJcbArU7urg83umcWS6OGDKhqQSoxVIj+7g12jBT1yPUUpB8uxWa3TKvvAdsKBH5UprwIRGQrroxSfJ0o8pbp7666F8CHdvY0RsAclal6RfxDlgN404aaFMQ1YJ2gC5Fa/N8du0j9IO9toea2CjCfaGPifWylb69uGaFCXxg9z6wkYKod+zOOxC0iwS1T6fY8AhvhGISv7bFD5lkg3AN7Hy+/jqkcfOSyKe5387WtduNAs5JbT9tj2ZShy8CwczNHOVT8pG/8RV9KvXPCTp+Ffe7LGY69AQSlC7YsXIBOSzh4ZV0wOmNEaEV5oVQ8v51/XxmCBeUErJtjHtVlWW8BuBngnWR4bGvWx3Ng7Bfxey5a0rDbp8XUtBcmUpxsbGC/hgfQz40MWHJlPHd8UeGufr10hyeeszMF7r5gVb9018UIRQ+zEz6BiOe1TKleKKq8ZRaPoxgx7NkACpnN+kw2roAyn7T5GlL+MmbmpzsScGrq8sEF+a5fGx2OEwAMTFq1tJbrv0KfiSfoeFtxtYn+udI3bI1IcOvrA4hvE0nY3A8GrZ8S426k7vz7SDnUYa2Tq1vyta0jQtEhAB9jo+iiiK/6RdGWPkxXTv4z7MUCnPZN0y0JIv4hy8N+TwOYjgGjRbphi8bYAAZd5eKBSwohPmBhOP++Em7eOwGN5va9jJDVxBrPwl4cklJiBTFPCzd4jg43eJYWayM1cUpH2gk8zEH8VrHFGy0c+NliuI5ulzInnrNhbKj+nf1HpL0nSJ1kawxq9RfR423jdOFeAF8kPT8xfgDmjGWxd+pNjwFINhZspe7iE/JZ3t2u7h9hczzpVBnjDVgH5/kqaONEJi/P1ytuQp6u1My21geVgKwP26G8u989YGwQSSRHXcD6BYPvRGonvQHgA53AhHy/pl6m6fuwccWZwJJspo/0OoDtfJg/yAi27fbVvGfn5eEG97MVHve+AC4G8Ll0xxbZi4majID5bCavyKRCYTn/vpomRiqnfj7fnID1C9oH1AWjM6D0EjCLo2bbdBL46hit37u1ofqJot9Yx9QTAFLNHrsDEz1uBK3bM55hVfifXYWthbZoeHeSp52AZUlvqhR70z77MxpsFPswsqhqvijydvu5k4FHkx8e2LM2FB2bqXotadjtUxA12xi4+XsNmJlA9NN0PU4Rn5+vTTXmdlQz09HJ6xXdJ6NS6CsjQivKwTjaRtEXWxrd/xEJbpt3TtjpM4AfEkkkMfcFopcxpcOxRcsS2nnosuM8q/LeXCZbNwJWV1V4JPZfcnaXnZAFxHB89yu7we7LF4+jWNjvucXlxEgw/gZAMuttUdw4CoS3jID5l3zauBem8+8r1a/NJyegNxj9UaJLv8egq5B6WvdiRgP4uyNO32n1V88oldg+S6e6LQBPpWU2AZ/XXda93AhEz6tvaikTlcrGXl29LcYGtyZfhtIau7L3Q9oeyfcf3SuZf/uGQ/E/7JRTREdmduWwdRX0qFHzPh6ej3L2BtuPBbg2jZuBk/P1ZgTF9SlIPv6xdjoTj8iIFPqKE4OOsHP9l5n+KdLrqwHKj4oU+mqvRC8D0R/S8KhWONTE5Y27fJzvbd5z/rodAByQvGLRP1+YSHHRmr7jqXDPhY0EvYT/HlBK9T463p3kaQ83eM4mUuMAekm6ZYu4QLi4u6w7YoSs43NvfBay8++rZTvnTsD6YLvHCJrPEOg+AqpEzbfJmyAcEvZ7zup1iJUWjGuRvo8kQ0B0u64cvLIuaP6sd9EVMtRzcYez5MNdMFMk2TKakdYrwEx0rK2CDv2gqHHf6I2TmHzmck1HZLJe7krPPABmksVUIqZ+mI9yzsCJPZdy6TPycu4gWycxn106aagkHRCSmYTsxB2LaU7IyaM+0rqo+lUAH4skto0RiF6TFucf0VsJrY8ITx4SLYR2l3d3HwobyS6ZWT72JMkLEynO9g6WjN878OFOQBocgF9NDL6qt8N+9xHEPA32ssmVAm4wz6wLmH9FE+ckI2xxOP++mjZy5gSsnWON1qQXw17GsVLiYxCdHva5Dwz7PP8uVSH0xjhM95fm4QzcUt7T87ERNP/mDbSNFXVLOx+t9A3+QsTAy5O3XbFjOmtA4MNtFHsnMqX6A+m/ZOSMWTYKHZpJm+aFiRQnO5sEotPzbnMYbNuNAV8GxuhPxy5iVz61tb7Z2gfA6KRbAkjyDyG5oc6U/PrAmL+8sWatSK+PbD5J3ySC2Jo+MRlB888g+m0anrZIqZ5jCko/Sdn5EPhuxO9ZIspjR934cRvFHAkqPxxIowPwS1obqp9Y3xkzAPwWQKd00RY6jXCBUWk9Naxpdf9svre4nH9fSTPrTsC6OeZRKsGvglEj2rxVupjpqvWdsb3CPveDIOJSF0hC60sYaM/AoysBnEmkFhlBc2FdwLywPtjuERVMgz0DSGZAAORAh43N1cC0VWBzkomkEx0Q8WzpveTQ2k68PQzyVkTHZLRiTtiJCWfUBtvG5ZeEHefDximJPoy3mk3tZl59kGSyk/wDX1Rq/YyMRKGvjJ5nVgLY18YCP1Okl6TIWIvMtmKjeEPWzQAuScPDXtZxx5Etk4evKzAhHGFDbrNEeeyxrMvzEoDPkhc5JgAZcAACwJppwzeG/Z7f6bhjJBHugcQH3BJTB1a6nsjWSUAjGP1ltpx/BLzPhNkAvwwgC3HeuFY5E8+OmmW5M/2m+lC0jjWeshNrpIQIsOL6SIP7mjXThm8UcWxmeWPNWtL0U9hL395XxjHhVg29pi5oPu8NWGd7n14zWKRvD034RKQAKDjsnIJMmwPQG1q7F4AhSa9FhID0XnJEFle9YetDBTkyeg14c+Y7TjoeJ0HlTTKQYU2r+4P4Jxmbr0D5kwxkBismshMQ/onFjTVdMhKFvhKL67EAkj/9qtWLIr3k6FGdbwIQu/4bW1AmI9T+VwJ+loYN9AuqwuFbNnXI+kISQf2C9gEA9ku+vfysKJBNplECwCs2DPoDNv9PBlk2dUhbq89zDms6FMCb0lvfwl9XYd6Q6ZcYwegvAbox85MgVpLC0a1+z3ciPs/UsL/6cO6ODyXGbVmQpZFw8oJMOgG9T68ZrJlCACTm2pZZpIkODfs9jXLtbsuEG90zGXR1Fl7lYGAiEd9N5c6oNxid4w1Gf/Rl7Aehz3OaOAABIM52jNG0OQAVx/exUaxzSD/P29J5STKDNIGTNioJvG/mK0dJXw0lwin5kjBpUKXz+2Bk7oMMY4I3aO6dFxvC8R3HAhia/H5Qy/VfIcm5R42xUcwMN1atEOklR2/yPtnPf0kTO+pC7fcCaYjryght7L9xSsvEqg2FJgbdFd8PgDNZG011fvpvUaJUVIYW2Cg0ZsICdjqzUcFIo/t1MB9YFzRPYqKbAOwq3dbbD0Q/94asf0V87n9l4vlZc/4B7yZYH7V8yjfjFUROHPYJgAuNoLkSwF8AUAbrYCSc/PyoWdaRmUg0QeWOPwPYTbT2W6wF8Ltwp/u23i8SwrbmQ1/VNUbI3BOg6Vl6pYtAkwFMjlN5zAiaCwj0tNPJM9+d5GmXHtk6iiWMBQAklNpISHpopy/EhcKoZM/NEvCmZJazvaN+A4wTkyy1V8btpe74w1TuvBFA3x16jMGoGDwZQM6vgzPovIx3HfO5AM7LfVttXf/9oNVf/YoMQCE5XYMdp7ckrbTPywCOKHkpNLHDqDTvY1DKp8wJaO5R60/+YOJe3YUpDDXSRqGPuGLnqXWBqIwom2jGABtelf7RTe11zqzVkohbgSfqF7TP4S59JW++J99Pug9EzHeNbW4ble5rD96g9XOAs+P80/qobQUrDfs9t9QFrU0MvhOZdQLWJZx40ZjbMTGdmZPq5phHscZ0Uddv0A3QLTqufldox9VzPeLDM/jHxnirB8CZWX67C8CxDD42FsftdUHzJSZ6wuXgp8QZuIXFVYFFCnmwwWOMslFMvizbF/i/bSzTGXcARk4c9okRNOcgyeRbic0btJw6AL3N1kEAZyEeIZ225/x1V7x/zM6f56qt9QvaB+hOfVyyKsSg+yVesJC0xgOGDaV5TSRnDwX1qi7xyF4TFrDT7LTuB+iUNCjwY1X93ae9MNFTwB8saS8b0Y0MJpKkMimpjr3l0qG1V2W7si0Tqza0+j1XOpyJkQA/JN0HANiji9TZaTU2s5fwY7vOvy9p9bvvZs54DDQAXIuEXmDM7ahOnycAV4uafoNnHaz3Dfvdl4nzzwYzSId97rMJ+EPmx8PW1wAGJoL5jlgcbUbAfNYIWeemddwIQnrMnD2TXwZYrv/aXe7iLjuy2zkr8Ua1nWvAfFzOY6ESZyc+H2FAv56enGY/TnQlTrIRJ5mdhIdl9AlJT/WEPZIvQ2GRnD3iCb2slNtf39RSZm20moiQsvOPGY+4+7tPK/zbCjxSRkYhzZmqVuXq5UsnDV0d9ldP18xHAnhX9jf4xYjQivJ0PMobsM7ON+ffl0Qa3Pcw8c+QFSdgYm5vdrCUMIJthzNwiEwZABgtYDom7Pccs7ShRgyolMY8cavfcwWDTgaQayeqA4SjwHwHEok1RshcIAlEhDwaLMmHXlCOlSI3e/R+1Ek6jIYqd47IdN3UxrVBbA47kQxl1M81LVfyHD3PrCLCSTaK2loXGHReb+bsXI1XG1fi6OWlPvd7MvqEZNh9wap+YHiSHiNxlvh/dteHt9wfIisJHvOPEaEV5YkBg58A44TUt1O4O7LIPb0oQpVw5m8ACOnsLx6pcl2HZQ3VC8IL3fuC6HRbmeeKh6GuxCBfqg8xgm27EfGtWahv0s6/L4n4qm8D+EJk/uTT6Hicr0nZlIXjxzJb0KcALnZXuseEG9yStSmNRPzupxiOcQwszJMqKTAmfJlAxAiazXUh65TeLF+CkGWD+5NBACedvGaTy/m+SC+VdQ/JO1CJMu4AbJlW38OER21YvDnLBhyL4SwASX/gZeIrAbJx2oZrjVD70blo68jmtUPJRnwwIpbkH0LSDNhYMRTJJ7TsWbbJ/ZFIzyYzSBOwqtSaPba5rcLFA5uJcVwaFtgXIj73uZhBhX+XegYrEL4jA6OgGK7yQ3lIh33uB/v1lNeC6AaU6JcFUnxS6k9RF9kxNJPEtvPvS8L+6tvBfAEy7ARk0LmbN5D2mLCAnQxuKOFJIk6Ee2Kka8N+zy0SVD8zRPxDlnsq3AcDuBjAZ3lUNReABmZ+WHdpywiaj9UFzanpOq0sCNtVwETCTmb3tbmMgVYMMDjp01jMesesVE7byBTLOKh2zse1WRdkEztAOMtGfTfEUfYgmO+y2YPn50JvlIpPB+BIstjGTa6yp2TUCUlrOemdbey2VknCulTXB5TUCfvR88zKLlKzARyTJgEeXheyjisG2YzYf90ASE6HQqNG5VNt3jlhp8/CPvflCa3HMHhuCU6ok9NwbSPTE0rKzr8vCTdU35EFJ2B/p47b/hJubbTGAdilRCeIZ8nBY1p9nnNW+qo7ZL7MLC9MpHjY77klRjwSjL8ByDcDtQLA9xh4xsWDonUh825voG2s9JyQURzazjV0UwSXKip5GTKycko40lCzGDZCx6iEOiXbUvRWth8PIPkr7EQPrvQN/qK7vOw+wFY28sba2eYe2W4vAT+0UewpcdgLtvZNbMc+15LwLPX9asnsCUbPMytjCQRAOCqdCywzHvYGzb0LXT4upStlRBTcAK5W+Viv5Y01kYi/egqYjgGjpYS6ZGcjFN3VdukmdgDYPYOm3bJ0Of++ZLMTED/PqEGqtO1rScQ0pgQnhpXEPC3s9xzTOrm6BUJWWemr7gg3eM7WCexFhHsA5OGpS96JGWcTqUVG0FrkDVhnpyPepiB8ezoiGye4+VORXKqC1+uS39LQwGxVj5iSTyJHNB0zOKt2r7J5Eo+x+eTf+8fs/DnDVnIMpZx0TjbbWhtsGwfYyNjNJNd/BZvTFO2Q/Niy5VAXvklJJP/bc/66HWJxPAvGhPQvYhhAwOwRoeiQgh6DCQyU4VB4qHyuXLjB/WyFx70vgy5Ffl2Ly9xAIjXabtl6tDqQ/NWLZCzuH6XT+ffffvbczMDzGVRz+9cVmetLakEnviym1o9qbah+QqbH3LLsOM+qVp/nHAeRl5j/BGBdftaUxxLx3bE41tQFzetGzbLc0ntCunBotnG1hOQ0UarLPankZZilE4AAoBJ4CMl/HNnNu795WLbqOCrQZjCS3zgSsCDi9yz5qq0O/ivs3JRgPmP3BauydjWLoOzEWfw43FW1QEacYG+e4v425rb1IrlUzT5sKPYm7h34cKfynp5/ATgwg6/Z3aXxdH1TS1nBjkEdk/jgBddpWK3yvY6Lx1Es4nf/WTli32HgVuTftbg0T6qcn1k3id4K+zz/zuAL7sjL7iCUQhZUBvghBTUy7Ku+caVvr5KMwZmvLPW532ttqP7F+s7YMAL/JI+ShfwvOzJwRcLJHxiB6B2j5n08XHpPSH0OTt4BSGCZw1I2RThmo1jWTgEvneq2wPhX0rrBlLVkIAlyXAAg6bAuGnT71/+79yT+SzaqsEu/zn7fy0ZbJyxgJwHfS36s4kGJxybYJ/kP/My8QeSWotRVcZ+iHBGKDolR+QIA+2dhf32orhh8Z+EqA8QBWHjMVYVS05bJw9dF/J6LHKz3JuJ5RTupMuXnUVrN72S24XpxPjabUNwTGwMLWdMhYX/19BZ/lcTNymPWTBu+sdVffV/E79mfWY8j8J8B5GMmu34gOjcRdyyrC5rX7zl/3Q7Se4LtpQfkTHpeI6VFcimuDcQJW2M/m+uzvcyxJ49tbqvIdN1qZ3UMBPhUG0ZHW6W7ava3/pr5dlsyUupn2egLc6M1BUDSp7/jWj8oo02wvT6QdiY/xOQDUepbQtpUrG0bNctyu5ieI2CfLG42f2IEoucVpN8CzgoZEQXFeh133KQKrdbaSYqZVLH2ClOeXssm9M/k4x2MvJxA2MbX+0KCCJ0OoEvmw8Ii0lCzuNVffWnY594dhIMA/AXA6jyrZn8GLi/v6VlRF7BOlV4TbK0NxD02dicSjzL1Nd/Gx6/snqzpqtg0G6Bk4z0O6lTq+Ixvipzx6QCSjl/Jmu5ePI6+dfqyv8fzDICPk+8S3q8uaB6QcXVh2Jnj31jeWBORwSbY3xSqHhva6hLBpbw5KsrDEfXBdk/Cwc8ByH5yDqJb6uaYRxWazBKU2CgDomDYRMTfWzZ1SFvBONL2Dny4kxGy/sAJegvpSsOdj3Mq82d5uhk4ojfJSGbarSlfJ73ijhXCmKAVv2UEow9K7LZC3KQTh32ef4f9np+Hfe7doPVYEP0fgDcA5MspqCFM/JARNAMjQmuGSacJSRmXdk4aEMmVlJTXhuRlyJTduFAfTNxjE6Aft9G407Igv3NtlIpxQv19S/+weBzFmOkee8u8vUQkfaX3lHejjXEqyT+E1EwghaTXB+bsnlQuTtMTRfeRrb65bVfN+mUQchX73ckaTfVz20cUlC4kWGJqFkRH4QWt6IBWX/UcAHDme30nLGCn1WWeEye6Om/j46UTRfkZ6J9R461oPyMC3JPuR4+eZ1bG4rgkT0fMOjuxtwtN6wA6LeHkRiNgXl3hcd++pRMIQt5bZBwG3sLmP9eOnmdW9cR4ChFNAehYgHfKcQ39Lna96w2Zp0d8nmbpMKEvOAhdOtkpmCQmTRo2eAOSXvpYbchBRR8A46fJqQcdO7J57dDljbt8nIkqGQHraJCtBGJPLps6pG1r/1jm4rticVwJIMm4ZzRt1Czrl0unuq1MtLcs1jMNSPqWSA9vijXJSBNS2powOpO9pqMIg0RyqQpeDwQVzwUpI9i2G0M9D2DPHFdlZ07o5j3nrzvw/WN2LohkZqxcGyj59AwWmP8iAynDfUMqpgiWAv691Od+7+v/ltcOwNpAdKLVZd0M0Oji98H0mmms37VbtuXkupgRsjYhQ3F4iPgv3lB0WcRX/WK6nlnf1FLWk8A/CdgjgxbCF/YbjZZS0T0AO4Lwly7LPNcbNC+N+D0BmT4Ll3cnedoBPADgATSxo35gx0GJhJ5CxFMAGoOcXG/nnYgxywia/xf2e34nvSRsV2OgPk36MCvzQJFcyhvrgUlPEJT9zJBhn+ffdUEzwoA3GR+AkxI/AHBThgw5WyfuNNHt25vT64LmUwz8MMlHl8ed/BMA12emuXxasssJM82OnDjsExlpQmrzlF5HSTqiGKgSyaW8ISyaNbZ2trkHgOc4DftQJr6JNt9a+I19mwfesp7ux9DEDYWQIInj2JBspGYGKNJQfYMMpNyRl1eAR4Ws7xhBc6Yieh7A6BLqj3VhX7X9oP5EDOA/GaxfBTEFjWDb4el4WH1TS5muHNxEjOMyOjlRKglM+O0SXNlHEtBsBMxg7ZyPa2WaLAKmUaJlStUrkQbPr8P+6v3gcAwlwhkMngsg26c9CcC13qB5VybDCgjFssGL2zkVPwwzWIn0UhqkuyVtUDI25KiyDyW/yeIfZaIq9c1tuwJosLHp+88yn/vV7f1OM91usz9/OmEBp/2jv3dOdHeADk2+QizXf4WUcbKysz7UiORSZngxNKJ2zse1yoGXkZZDKPTHiK/6l2Gf+/8APJ7Sk0CTjQHtvy8EGSZcyZ/8J2DIiNCKchlGuSOvDOTR88zKumB0RoJ5KYDjS7A/5vU68VLh0QzXsRKsgnWBtsNSMpJ7nX8Apma4vh9FNnhesVu4osq9GMC6kpwdCD6lHUu8QfOWMTM/3VGmy+IhPHlItNXnuTfir57C3fFqJpwNxnMAEtlTL5xjVFoPiaNG2KaR0vlp1IZe9q8fG5V4k6nASDoOEROsXFQ1nnA+kLSOEOrrQu37pl1sSv0UNm7XEHBbX34XaXC/BtBiG1Xb1drQ3ph24SfUdCR5/I+B9kq3e54MMiHlsa9Vh41i1ZlwhpfY/mCvwl/juFZpx4sAhqb+KFwX9rt/tVk2xC4nzkj5AAnzZYWQQG/lmztvAJKOxUmO+EBxxOfSts6TQUhGyJoei2Mlg64CSjRAK1HK8VAqtP4bgA8zPPEPYKiQXSdgFp1/YPBVqRyh3hwLj0v5KqyLgJ91l3W/ZwTNi+TEVvEROXHYJxGf52/hBs/RjjgNZeILGViYpdf/oG6cdYv0grA1WqbV9wAwky7oUCNEejaZwQqUfCwkBb08F9XtjeW3IHnTU6c1GciI0IpyDZxho+hnLmcSH2+Z77Rnu6U/GQhR0teRQcAjEmdYSAfL3t7FBNCdZDFnR3fH7iI9e4yeZ1aCUV0Ee+5DAaQh+SH9MdLg+fXX/+bdSZ5OHXc2wE7m9q9P9cR/M0LmgfltL5AG472k7QUXGzKackfOHYDegHWwEbLeBPMDADwl3BfRjf275qb6kMWNNV0a+iRkOnttrxOwfk57Ulc/suv8w30Rf/X9KTdV0YMyVWBnADcbldYibyh6hIijOFk61W1FfNW3Rfye/cnBowD6IwhtGR2nhAuMQPQ8kb6wDZL+qMVMe4nY7GGMjw5H8kkddGf/Te/nbC/HyWeUZeCUsYvYla46uDDoe2Qvvth9707ydPb1x+u7Yv8EIfn4eYSjjIA5Km32e7N1EMBJhwlRWrL/Cml0PgBJh05KaC3OB5skemgEchJDOh+hP3518u9/WDZ1SJuGPh7AxhRe0A+MmSNCa/L7RoNC0h//WNNo0Z9cdlmOqJ3VUWMEow8S8SsAxpV6RzDRnz6YuMemdDxrmb9mETNNBvBFRitNGKC1nuttjk7oy8/HLmKXrhz8OLLg/APwuKfCfXY6HtQ6xfMcCK/LdAEAGENMLxhBs7k3cK5QpLROrm4J+92/Cm9w7wpNJxLwaubmEvpT7RxLjAFhy+sjsCz5MnqMSM7u0q7syG51umwYO3zR1fMUgM+Tayequkzz2PQpqq0Tdsxw3JVMgTXThm8E0732+hbnpG/atnWC8p2WRvd/ZJQJ6Vsf+L3kC9F+Ijl7aAf2ESkAAN24Neff1/fjAKU653pccM0a29xWkceySNoBqIC9RYdyR9YdgMOaVvc3QtZvlTOxHKDTIF8RAOCjMgfflc4HRhrcrzHTFGTaCQhUkqLA9pyAYxexq8uympCd2I6Puyvcp74wkeJpGyisrhE1/QYNyoEWI2heO3qeWSniKGKmUSLc6J7Z6vccCsJBIHoC6Y8V2E9pfkCumAtbMS6X2ihzuMjN9pbajuxW5LLGm51ieCp5NaHp6Xi/0dy2H4D9bTgv5kX8Q2xcnU7cbmceZsLpI0KfDEq1vfVNLWVQNC151YKc/hPSuzpALUm+DA4QydldHvgwEQLdGPa7L+vLL8N+90MA3ZiizPfrJMcDYM5Pn4nmpNd/BkSPckhWHYDekNk4sNLVAuZrAIjToHcMKKhzkrn+0Ve+5gRcn+E2VJKi2VvLDjysaXX/Lst6Allx/vFD4U73Kel0/gFAi79qLjKfYKXQ6A/gN7EElnsD1tmSzKH4Cfs8/w773NO0StQDmJXmx4/xDrB+IlIWtrBZW2KjmDEiFB0i0rOxitpyntLy3CuKtuNcOi4tSa4cjp/ZrLStrL5hf82HAObYKDrQxT0pxz5MVOzSAMbgJIvFFanHZIQJaR32jHdtzHIHp/P6f4lJvMQdN313/n01Xy+suoIJs1N6K/FJ3pB1eT5KRDnUMhvFhhvN7RKqJVd9lo2X1IXa9zWC1ovEmI20pNouJkMbf+11LmWEXidg5q8DAwMB9aw3aN5SO8cajSZ27B34cKe6kHXKwErXYmTl2i8/FO70/DiVpB/bIkZ8EVIM6FqkSlxDxHcb+1uv1M+JjheBFD/LpgxdFvZ7jgf0ETYzUm5Nl35Xv6B9gEhY+Obcq9/ZvFwmZy87tZIvzElSO6tjIIAxNjbhOQ+TEfZVvwwkHYy83yZXz7RU3juyuW0XMH/PRtEPI53uOXbfq6But1eSzk/1JAkRJ+1EJGBOi7/KlFEmpNcE5XdsFNthg2keKtJLjlGzLDfAI0tXAsk7/wAAM0g7+qtTYO9j5tfn0N/VBc2p+SaVfvH4WwB6kh67xBNlVOWGjDoAvU+vGewNmrcw64U2r5QU+0Qyx1PhvjTTb4k0uF9jnRUnoIuAnynN/zEqrXicytcx88MAshFs93F3hecnmXL+AcBKX3UHkWoEY4Po7hatsIO0pjeMkNVU39y2qwik+An7a15yV1QdyMCVSD4T35aMmyrdqc8UyQr/O/cCiCSvUHysSC9Jo9CljwLgTF7UiZdyb1IRM+ihpNtMnNI1YAfRGQD6Jb9m8p2p2CwtviHzYO/qtVE/x7K98fI+vWYwAJ+N7pGEakL67ZBF7laAPk1aH1XyOlzqaAeOQcmG7rLp/Ptyvp5YtYEVH8dAeypLNDMe9gbNvIqft7ixpouAhcmPQZ4soypHtl4mHlrf1FLmDVmXUrnzPQJ+BkDiOv2v3Qee63Lyyem+qro1Io3u17PkBMwFaY/5tzVafVVvM+gkAJ2ixVuez8F8sibV4g2al48IrSgXkRQ3L0ykeMTvuZ5IHQQb2Vq3sEv8ad7GORFyuWi+kvxkhO/KNa9k5czft1FqVUtjzUd5UX+lH0CSp0UZOMQb7LB3qmUGK5CtIO/dLhfdl+JcyWDcYWsjby9hyebXljm+B6AsyWLrurGhWQaYkHZmkAY46SRlxCQOwGSXB7J10rkIdjZ0QyrOv6/24lOqP3Ao9V2k8sGcMICA2fkW4kQzXrRh1/nSEoJDSN5USvcDjUDUryt3XkLMNwHYQUS8Rf5R6fYcl4m4f9uceIrTCZg1599Xcmxwz1OKJ6b4FafIF0sMIOB6Fw9cYYSs6SKQ4qfVV/U2HI6DACxN7UlcWx/qkCxzwv9MKWTnhNkuG9vNo0V6faM3oVODjb55MV/aEJlS/QGApHVFIf5DO++rG281wkZoGwI9+u4kT8o2RHd52X32biXQVCPYtpvNzbCNGIL02ErfXt0yyoSMrA9saw6qMwLmKJFe39g78OFOAErvVD3RDWGfO22x91qmVL3C4J+m+JjdXRpP1ze1lOWNnJStMVi+qWzT8TK6ctBd6XqQN9gx0giaARAFABopot0inxHTaWG/58zF4yiWE+O4uJyAWXf+/XcCr17odCbGAfiXqPU2GQ7mB7xB87l8O7IupJ/w5CHRGPGRAMKpPEdz4kSRpvANneiJzYGdrKeM74v0+kZPHFNhI0Gbhn4xn9pB4KSTgTDodDsnjxmwdZKOlL4jHW19/5idPwfxwzaKOkDqrGQL9QZtTzqDqtJasv8KGYPBc23OFT8S6fWNOMpPRPInfwubNDv/vtqL+6vvB+PmFOt2qK4YfGe+iKrMwa8CiCU/BumHMrqyT8oOwL0DH+5kBM2bCYmlAPwi0q3Yx8A/XE7Utja4H851ZSKN7teZ9ZF2YmbkETlz/n3J0klDV4d97skAzgLhE1HzbU3wOJKAt4ygdXtv/CChSFnpq+6AVlMBfJaCYXOUSFL4xrp14rBPwJx8ogmmE+WKSZ/naTubYc1xZ159CKMKxxM2TsXtXheMJpUUoNcZZueE6ZstU6oXpqu9ivBXJJ8kB2CcvfuCVcnFLlR6OpKOAcbLWxqr35QRJmSKcINnKWyEIGGiUyVMRF8nVj69tNqbGeffVzrb5f4FgGCKi/ZPjED0vHwQ17uTPJ1g2LmpcfTI5javDLDsYt8BOIOVEbKmx6g8AuAiADKBbsXQA+GQsN9zZjque6RtM9VQs5g5cUyBOgFz7vz72gLBYb/n7+Xd5SNAdANsZEEqIZwAn0flzpVGIHpZXh1dF9Jr2DRWrSCmC1N4xL4TFrBTJCn8j8WSfAwxwoDu8k1ni/C2TX2ztQ9sOLMIeHHZ1CFt+dSWlolVG0A8M2lnAFRSV1tZ6QtgJyA+0e1pba+vuhWwtfEaUtFZcVLfG8xEwA+Tl2uKsQ4FoS96Rphto5h7o2keL9Lb3voQ3R+gw0qmwRl2/gEAplEiRq4fgtGSYl1vqZtjHpUfYuNH7BRzKLpIRllq7L5gVT9vs3WQN2h9t35O+6H1c1fvvG1z2gbe5ugE73jrLTA/QECViH2LfAyi08M+94Fhn+ff+VjBAnUC5o/z72u8c8JOn4V97ssZjr2R6hed4mdHEP1BV+68xAhE5dRwkdLqr3oEwBs2i/dv7zZrRYrC/zggHsfmE/XJ2pcXyQeHbZMg/iVsOLM04dG83L8pSv7KKeF7Y5vbKvq0IV7QPoAAOydi1m7s39WU9vYy23IqMvU9GYgRih7GwJ7JqojTmXhERpiQcTQ9Zm8M0JWSeGw7onWoX5RMY7Ph/OtlpW/wF1qjEcDaFB7jZI2m+rntI3Ituk1l5U8D2GRD6NPldpg9RoRWlBuB6DX9u/q3k+LXCPyk1vplnXBZ3oD1xMjmtUO3VC4pB+CoeR8PN4LRB0nRAgIkSPuW6QLRDapCecM+94Mg4nyubIE5AfPS+fcNefqHLA/7PQ1gOgZAqwyHbU74I0EUMILm/PpQtE7kUXRGFBP4z3aLs1Z7iRCFrxP213wIsnHSiVGjB+wisQC3YdsRYZqNojFsij+dj21qfcO9AECymYkHdZE6rk8b4o18GmwkuiPg7x9M3GNTuttbVemZyaA1NooeWBtsG9e3nyobyT/w7NJJQ1fLKBMyb39XvQ5glY2iY4xQuySL2greOdHdwXxCKbSVQTOy5fz7kmXHeVYB+rtI7QbZzpzQzXvOX5fT5KubY9KSnWzvFarc+QsZbckxep5Z6eKBz4PotwAG/s8/O4n4JKUS/x4ZsL714a5PDsCxzW0VdcHojETcsRywk/2rZAiw4vqwz315y8SqDYVS6YJwAhIey3fn3zc2qg3uZ1XnJ/sC/CsUV9blTHC0ZnrbG4r+cUTok0EijuKhv+YAbH0NBMB6qEhQ+PZSgIdslWO+akRoRblI8Nsk4o6rYC+My7zIicPyM/7tDNLMsBNzuW82LvO5Np6tEwnck4nmvjCR4kT2nk1Q240h1Rsr8KRkn82AJP8QsrQ4EBPxQ/YK69+KALe2dqoZAIo+JAuDZkT87qtzsmf017wE8M9Tqz+8ZT3dj6GJHTkW5T9t1v+iEaE1w2TE9Z1YHHcBOHjb6zsPcxDP/N9Yp9t1AHqD1ne7HGoFg64C0E/EvUXxLtZEh4b9nsbIlOoPCrEFee0EJDzm7u8+rVCcf1/SMq2+J+yv/qMjTiMB/AO2rq6VDGXE9Asnx1u8QbNBxFEcLG6s6QLwli1jgJVcBxC+hdOBx+2sUwzsWaYHXSgS/Cb1wfYxAH5sp6wizmvnDrG6H8kmxyAcWx9s92zTLm6OTgBgJ6t98+bTHhnaDEDfBaA7eRMLPxwRig7Z1m/6b+w/FcCOST76i0qtn5FRJmSLRMx5N2xkIgXosPpQ9CSR4DepC7XvC+aiP/iTS+ffl4T91beDOaWsvgSabAxo/30u26E2rA0BiNoo2t/Jzmtk1PUNY07UB+DUPv58dKfZ/g07b6sOwPoF7QOMoPkYgZ8Eo0ZEvUVMIpwRXli1/zKf+9VCb0xeOgEL1Pn3dZZOdVthv+dMIjUO4Jdl2Gyru3kYAc11IfNuycxWNLxv07nQX0Qn/C/vTvJ0Avi7LSOf+P+259wpNTT0H2EjHjQB77ds8MzM57aFG6tWgJBsDGZnArztRBekzrdXo/Qm//hfVvqqOwh4ykbRctf2nMAMO06AJ3o/AglCVuhNSGQrDrdmujHprNhFDjPfjFQShhZCG/PA+fcl7krPz8B4LsVOu6wuZP4kV21omVbfA+Zb7O0BMb0uaB4gI2/b1M7qGAhNdyW5p5r+jf/e0o9GNq8dqrv06wC+J2LeIt0A3RgjV22rz3MvZlDRnOzKKydgETj/vk6rr+rtsM9zBBg/ACAxcba5fuHsjZb1lFzZKwboC5tKIA5gYSskbgdgZ10YqKF/J/LbTF0gejJsZP7t3Rj+CdMokfezDyefDITAP96G4V1DxFNt7DJXhhdWPZfp9mq26WRkOm9rV8dGzzOrABybvOy1XP8VcoD+i82Ce/TfWPFLkV/v+hCMTgP48KLea+SR8w/YHMpBOWPTAKxIcQ91uxEyD8xVO2Kq7E4An9so6mDgXtn7bUdIrsRNAIYnp+vY9+vJjr7lABwRWjPMqeIvARglIt4is5RDjQr73Zet9A0uythu/3UCYl3urPbicv79t13E4QbPYxVaexk0A4B8Hd/6ZNVYxgOfyIN4FkJqPWkr+6omtV5kJ2yJsL/mQwCP2Sz+E8k+DhhzO6qZ6A6bxTvWd8XvK4R2bipzPQZgY5LFRtU3W1tMdKcc8Z/CTrxEwm3Z+FgcaXC/BmCRjaK7eQdYvi1u5uL4gY02f9Dqr35FZishB+vDS2C2p3vM/+cNtI0tdRmOnmdWadBfi7yZz+ST8+9LWiYPX+dgPRX2HGhf0g/AU1vLAJtpVvoGf0GA3evMdS4MlJicWxNO0JzKjLNtFO2PJ/7r9/uGA7B+QfsAFztmM7CniPhb3ogWgI4N+z3Ht0yuWlnszY001CyG1rlxAhar8+9rLG6s6Yr43Vc7nAkvCI8h2ThFJTPs0GhUWn8USRQwBFux/Ij5cxGesDWUQ10Ne6cACUT3lfRVYGZCIvE3ALvYLH7bmmnDNxZCU98/ZufPAcxOuo2kv3Xltb6ppQxEZ9moRpeTux/M2pRL9jZeCryVq83JJ/9j0P0gErtGyBV/sFnOSaTurW9qKStZyTFTT5wfIKCqyFv6Sb5WbGlDTZiZvmfTxvlyEq5xOBKzxza3VeTG9Fe3wHYSQFxWF2g7TKaxb2IE23Zj4F6bxc2v39r4hgMw0aVvBWhfEfE3VPhTMF+uuj7ZL+x3zy+llocba97KuhOwBJx/35jkJw1dHfZ5fqA0HwgkHauoVLhETuwUsjEJr71NrDgAha3TMrlqJRh2nSpDGPqer1+HKCXqgtYFAOzOqesczp7bCsqKs5GshIlOnbCAv5H5MlE5+CQASTuOGXhoScNuWQur8sWG2KOg5De3zHRs7ZyPa7/+d/WhaB3AyZ6IYifZysAsCOnZv/g9IYAW2yw+WlcMvqFUZeedY55PoMmiRbkl0uCex6DLUrO/eb9OcjyQC1unxV9lwv4pQCeTetyY21EtmrCZzY5cmglgZ5vK8OzX/+srB6AxJ+ojm5ngipQ4MW5Tjp4R4YbqG1qm1feU5CKaTSdgiTn/vjFRNla/GV7oPgSMMwFYMvy+tYO7e/Q8s1IEUViMmfnpjgBq7ZTVZC95iFA6OFyJGbAZRoGBRm+wveSumRjBtsOZcJPt/QTxVS2Th68rpDa3bvD8i0Frkizmbt9oHvNNEwW2kn+wsn3V2hZrpg3fCCY7pwRIJRw//cY8DDXdxmNeXupzvyczlJBDm5GZ9KUp7EcurgtYp5aa2OrntB9KTDeJAuUHEb/7z0S4J8WhcJI3ZF2ei/p3l5VdncKethqJ+OOSEBLADFZdDsf9KRzS09B889f/YrMDsIkdSNCNMtS+2hg8z8B+rQ2eCwvN0M0EWXEClrDz778DnHS4wfOPGLlGAvRHAD0yGr9iaE+MLhUxFBax8k1Hw2YGOYeKLxEJCtti6aShq0Fk96oXiHhGKW3yamebewDqSQB2r7e1VlZ57i64hk+jBAGPJm8L0lfOr/pg+xgAB9uwKF9eNsX9bvYbnbgdQPJJWgg//upj2wxW4O1kRN7yuJLkH0LOifiqX2RK/vr/VyOX+J5Sigc4MmDtqbV+GoAkYMgj+le5LwDhhdS22PhdXdCcmu26v3/Mzp8T+IoUan5Yl2X+vVRva3xJ3TjrFjCfbP8JfE+4seatr/+NAgCjwjoZhPqSH2WMlcQ8LeL3HBXxe2Tz+TUy6gQU5983WOkb/EXY7/6Vcqh6ED0hEvlyU4GL5RRgYaGZTrE3FdMa+fgi9IUYvrgR9jPmERP/zRuwDi52Oe0d+HAn5aA5AIbYNpGYfr54HMUKsf2K9P02JqLje08xQ0NfYHPhuj0X7Q37az4kIGSj6A7xOJ0KAHUHWBORZKZBABs3ucqekplJyAsbRNMlsBuHDOhPpILeYMfIYpfTnvPX7eAgbk5lfRAyw+JxFONN8ZMApHKqWjHjYW/Q3Dvb9W9d6HkAwBsp7P6mGyHrT6Xa/0bI+i0TLrAtPeB9HXf+6lsK0WvlnF/i4+sLEF8WU+tHtTZUi8NlawZlJpyA4vzbKi2Tq1aGfe5pTDQJQKtIhHeKxfB9kUNhsDl2FI6zNy3oN0WCQl9Y6durm5kuhP1ESv2IEKhvju5frDLaO/DhTjEqnwdwrd1nMGF2pME9r2DXU191K5LPjtuvu6z7pL0DH+4E4Ac2XhutqHI/nTPnB9tzPjLzhWAm5uSTfwB4qjfxiiDknOUN7vcJnEo8PzchMb++uW3XYpXRnvPX7VAe65kDoE40Jj+JnDjsE0V8HFLJDEwYQMDsEaFodp28M0grxRcC0Ck85RJv0Lqq1PrdGzSvAPM1KTwirjWdumzqkPX/+w9qZPPaoSA6pFQ9CgA/pKBqw77qG1f69uqWaWbbpNUJKM6/vk38Pve/3BXufZjpHAAdJS0MwjTRiMJAM90Im9d/me1f2xFKcI5scM8D4+8pmAI7aaLnvM3RCcUmm/q5q3eOUfk8AsanMPF+6nQkLih0WbCtq6l0WgL9zgCQdCZFAt+TyxOTEX/VvwBaZmOdra+bY04G84k2hCzXf4W8or/b83sk7/z/OrtqpZ71zonuXozrQ3lPz7NgHCSakt+0+KpbifgHsBPa4b/s7tJ4OttZrlumVC8EcF1q2z+eYQTNP5fKdWBvwPw9pSoz4usije7Xt/RvSlHCD6Dk7lYT8CqzHh/2V0/vzVQj9JFwY81bSvMUpOIEJHogvMF9qjj/+sYLEykeaXDfw91xA6A7UlwACpmJuUppnyq1cz6uNQLRy+oC5l+9IfOsUfM+Hl6snWSErOmwn2U0EVe2rq4JJUxMuX4B4KMUjIIBRNRcG4hOLJpxOLejWsddL6Xm/AOYcebSSUNXF7xANiUeRdKxdfkwJrYTfzYW166/5dbQJQbYVhZGzXQ/gIFJSQq0Jryo6nmZjYR8YvE4ijlYTwewMYXH7EVMr+biCmWmGD3PrEokXM8DGCdaUhi0+qrnMJBa8jKiQ3XF4DuzXXd3hftqAK+l+JhLjDnt901YwM5i7eMJC9jpDZp3EeHKlLoZeLWqv+farf27ItKldvrvYxCd3upzHxZpqFks04k9Whqr39QJjANoTpJFO8B8fnhK1Y8xjRIiyeSInDjsk7DffX5C61E2ZF8MuDY5nfsVWqXrAuaFSjveAdEfmHABMe5JxB0fGCGrqdjiy9QH28eA2X7WS8LLK33VHTLahWRY6Rv8BRNPRyofRwgDFNFcI2SdW+jyqAuaByCRWJiG+M7/iDTk7hprutdPgAPJ29Hw2NhkPbO8cZePc91mHXfcC2C9jc1DVbJlFPghzCANQcgzljbUhAFckdJDGDUEvFQfMo8sdHl4A21jY3EsJGAf0Y4CW8f8nusBPJzSQwg/MQLR87JZ7xcmUpwVnwLgs9TGIZ9udVnPjppluYutb71PrxlsdVpzCTgnxf5tY4fj5G0dslIAjS6RMdNF4KsrtB4Z9rkf3PxlVEiFZcd5VoX9bp+DdR2DLgXodiLcs8U/wPXQdOL6zthu4YbqO0T+qbG8sSYS9rt9TDgOqQWGLThYc0ElLDKC1mlMuBVAv2/vl/hkQmKpEbRuy3pcjkwsXsGOkZp0EIDtZC3MdJuMcMGWYeyrfhHAjBQfUwbmO4yg+dCwptX9C1EOdQHrVAYWABia4qPe03HHJcWkIypLV1QZ+vZ8aO/m2D/8SDbeFdf6QZmFhHwl7HPfykxPpviYHTXjX3XB6AzMYFWIcvAGzR8QqZcA7CpaUZhsrNh4FoB/p/QQolvq5phHZdVGm1L9AYHPScOjjki4+K1iSuBWG2wbR+XOhSCk2ifdxDgxPHlIdFs/coIwHMXtimEATUrrX7U01nwk00b66f2yFhZJ5GLD62keEVrxLycP/DkxrgRhQPG3mncrlJqObW6r6AL/eTs/cwF8vovpNG/QvH5DZ+yWNdOGbyy0XvE2RycQEk+BsXMKj1kV6ax6Rka2YHuTt9B9nTHOOggEX4qPOnVApau2bm70x62Tq1sKoe1jZn6646ay7j8z+MdpsJw2KFInhbcQPLqQGVLpDlldlgUgk6cHWiNTPC/lS5sV4a+acQ4yG+7njeWNNRGZgYS8hYjjoU/OcHF871QSIgFwMOgqY7w11jXPPOPdSZ72gnAwzOoYSM7EH1M+XSTknA8m7rGpPth+gt6cMM9uOCEnazTVz20/oGVy1cps1b3VX91UF4juz0SXpvQgRg0Rv2AEon+IqQ2/L9Q8DhMWsNPssn5JwFUAylOe5sDntvqrt5t1WYGxUxFP9m8R6yPCfs/3xfknFCsrfXt1R/ye6+F0jCTCPUgt01Lew6BBhVLXTqWOBLBLH38+iIDrB1SWLfcGoz8qpK/LRtA8kxTNA1Jy/oGAmyU0gJASM0jHlOsHAJambkhhPCfobSNk/SHbQbOTHoOBqH9TWc8SAn6chscliHBqi7/qnWJTjxcmUhyMRzNqeoL+mk+3HFp81a0gvJhhe1uSfwgFYC8P/kKRPhGpZFP9Lw2xBFqNoHVavre7LhSdopyJpWly/nUAdLtoU47ndX+VSaSmAuhM4TE7c0I37zl/3Q7ZrHvrIs+vQPREGh7lAtFvXXrg4rqgeUCh9aERMEeZXdWMnP8AACuwSURBVNZrvck+Unf+EV/T6q++ry+/VbCZpTHPscA4M/xm1fjWhpqXZZoQSoHw5CHRVp/nHKX5IKR6NDyPYRRO8FdiTvqKBYGHEeg+Y7z1tjdoNuSzI9AItu3mDZmzAPwNQIoOElpGnZ/cJSNZSMcmTydwHIBoWgxM5ssSlYPfzMfYT6NC1neMkNUEogCBh6Vplr2o1e+ZVaz6oUhl0lm1voec/8y7NoMzuWHv4U2xJpl5hEKgxVfdqggnIumEQFs0SAcD/KARNOflY4IQI9i2mxE0H2KmENJz5Xe9hvYBvEI0Kfe0+qreZqbpgP27nAx4y3q6H0MTO7JW8Rmk1Ya1pzKQnqRRhHoGXjNCVtPIgLVnvvfb6HlmZV0wOgOExakmaftvR/Kdrb7qq/puE9gIDpzHxBi4tbusrDbc4PmHBCMWStK4aax+M+xzH0zM0wB8WGztI9DnhVJXBVqTyhpBQLMx3gx7Q9ELamd1DMyXdu05f90OdUHzekBFiHFcmh57Ycu0+h4ZwUI6WHacZ5WC8qXLxiFgH814zhs0n/M2Wwflun0jm9cO9QbNuxLMYTCfnLYHM24O+6uL+nRHi7/qHQb+k4lnM3DfSt/gL/KtzUP6e57h1Najbew7aPbmBCuCUCBzgM/zPBH9BEhbEKxjCXjHCJoP1c4298h1+4y5HdV1AfOvgFoO4NQ0PbYHTCcu89csEg3KHyIN7qcJfE2K+6rJxoD232d1DE6r73E4YicjfSHEFJhPdhC3GkHzz7WzOmryra/GNrdVeEPWpbE4VjHoKqR8cOKrDnwsvMhzQTJFnABHARpY6AOACbMpoX4Raawqqa8SY2Z+umO3MzYEDj1Ya+7vVLC6UbYmHw3QXCyAKhYfrkkNAgBNic8Qd7UtmzqkregbT8StwBOj55mhWAJXgHEpvp2EolDHenuh1NXhwnM6js8BpHC8nkYS46/kTPzOCJj3OaDv6Y27mROng1PFz+eennMZ2DGNj24K+93zxZQT0mpg+qveqQ1ZU5TmuemKj0rAkVD8mjcYnatAd1VVuIPbyrSWbryBtrEgdRYhfnra53SiB8ILqy4tDe2gBwH+U7qXJ631nfnY2hcmUtwIWfeAcU36Rcly/VcoOFp97keMQHQHEN2G9MTHVABOVQ58zwiaM4n1bdm+hVYXat+Xmc9EIvEjJlSk8dGawKe1NnieFc3JR132XG3MsWrB+L791YsvqwuZy1t9nnuzZqNNHr5u1LyPJ+m4418MeNP02HIAlyhn4gIjaD5JwC2tfs8bueyfEaHoEJems7sIFxJzuuMPP15R5Z6e7KE3J4hawBhZwEbcMij988iU6lApDPKRzW27OJRjCgFHMvjIbnRvPtLNgCKCZsCFGIyg+QXA/yHQq5qpOeKver3YM++OmvfxcB13nMCgyQAORCKxk1aELz/wKSjAmYARND8D8CYT/cuRSDxRzPEh353k6QTwmxGhNXe52HEdQKcis4HAM46DqaWQ5F8XMm9kRjq+rO0AwsUJqIuNoLkEQBORCra+OeQ/mTztXDurY6DDoadq0qcQ4scwkO5rAquc3P1TMeGETLDM5361fk77FK11M9LotCbQZAYmW11W1Bsw71NO/memkoWMmmW5Ey6cCOBMMO+XEUEx3xle6L6gVG5OlDn54VgcfwDgSuNjn8vnRBgx6LtcoF8jDbGGvlIboL3S7Z4nM41QiIQbqu8wglEC6K9ptI1dAKYxqWneoPkfIv6nA+qppT73e5low+h5ZlU8TicycCazHpuBVyQIfFarv1qu+eetK4R4fdPqnwyodH0nlSulzLjdCJmtYZ8na2Gklk4aunr0PPOIWJznArRvGh/tAvADBn5gBM0lIHrCoRNPZusAxYQF7GzfaB7DjB+A6WRQ+g/hEOj+1s6qMzEu+djpTmYsJOCEAlT3dcSYUVVZdWc2v77nipHNbV6HoisBmgZweR88eYMAOoyBw4j4ciNkvYuQ9Se1Ye1jxXbNzhuwDibiXyXiaASg+nCif0cAxxLzsVqpG42AOZdBv480uF8rVv1Z6Ru2BsB0b3P0Xii6mYB9CrQp7HDqtwpqXd7wyU1cObgRwIFpfOzeAPZm1tca460ODlgvEvErgH5bORJLWyYPX2f3wXvOX7dDeU9sf4APAHA4kDicgXLKjN+4m1mfvKRht0/FghMyRcuUqlfqm60JWvE8pD/7azURruQEXWkEzdUA5iniefGY8zW7p833nL9uh7JN3fsqRZMYPCkBHgPO3IcbYv5Tq9/zSzQU90fCr/PuJE+7ETTnAWhI4yYsr69Or/RVd3gD5pNEOCVdz1TghxePo5jMMkKhEvZX314XtOK8OU5mWj9wErAPmPZJgG8wguY7AM1XzK90K359pa+6w84zR4Q+GeRM9OynFE1iomNjcd4X4EytDz2K+JQWX/WToin5zZppwzfWzuo4npyJNwEMtfmYfmDMHBFaM75335i19XjP+esmlnd3B0B0aAZesTeY906QusYImmGAXyRSryhH/KWlk4auTtdLRoTWDCvTrglMPMnqsiYDtEvmpEa3t/qqLrR7uMupSM1l1tcVkI5rgB+JES5d6a/uaC3yAT16nlkVi+F3IPwkxYVpNJgfSFTu8ntvyDwv4vM0F7psRoTWDHPBeSuYU3FgKxB8BPbVBc1mDccvIv4hy4tVnyKN1S9gBu9n7N9+KphvzMBmOLMQvf3uJHd7IVW5ZVp9T+2sju8qp34e4NoMvGIIEZ8E4CRAQScUjKBpAlgG8EdMsABlQmO9Iv0ZGMxAlwI5NFAB4sEgNZw1vkPE9ejpqUV2kkMxgc8NN9QsFtNNyPg4bHT/p35u+6E6oecD2D1DrxkO4EzNdKb672nzVjBaQPgIwHoCf6GhvnAwxxg0iKEHMdEgAjwADAAGenqGQ1Hvp6zMHtgm8NWtDdUzSlEnFPEDmildDsCP3P2rAuF8bzTT7SBOmwOQtHpQZheh0Gn1u+82QpYF5n8C6J+h14wBeIwm/NLFBCNofgDGe6TwnmasAtM6EG8gTRtJsWbQILAeCGAgE9XQ5iuSBjj23/WBM/rN5jMwndzil2u/hcKyqUPavIG2qUTqJcD2FXCPC65ZY5vbDlvcWNOVrbq/f8zOn49tbpvURepJgKdk8FUGQAYz/zQRd8AImusArACwgkErCfwZUa+tptVnW9m87EDMLoB3A6ldAR7BwBhiVHHmv6MmiOny1gb3Tak8xNnqq3rbCJqtAOryfu8PLEgounjZFM+7xT6Ixy5iV5dlnReL42oQdkifDHkYGLONkPWEU286p1BP3tSHoidppr8hjVe6GGgkJCbVBaJ/3VRefu37x+z8eVEq1wzSYeDBMTM/nd1d3nM5mC9GGq8EZXTvwlyQXyGXTR3SVh9sn5AAz83S6UvP5j+EzWsRA4TNh4h6/Qn66zMrMyj7F8Mv6Wu6ekFIBy2Tq1bWzuo4RLkST4KRjUQeOwI4GISD/7vOEAgMTb3jEpSrmAydDJwV9lc/WrIKsWHdbFQOXgsg5a/0DNxVCLdRIo3u142guQjAuDQ87p2WRvd/ZGYRioGwz/2MN2AdTcRPIzsfx3cHYXdmHEUA8KXjQHHvxx/Gl4ZZttcIAt5XrBtyFW9aSGGOb6hZXBeI/oiJHretOsz7dZLjATBPy2b4sMWNNV1g9htB81cgug7ZOYyw8/+3d+9xclR13se/v+qZhAQEAyTdMyTKLcl0BhUIF7kTEJN0d8iiSx7WB4K66+1ZBVdZZEUl6K7K+ugCrq6rKALusxrWFc3MBAgSVuSyEC5CZqonhGvCzHRCIJDM5DLd9ds/grrrA5LLzHRVzef9esE/SbrO+Z1fV536dZ1Tko6XdPxvf3Z1/+39kr/e9+O//c9H7jvq2mym87tK2Z/v6Uf9NrDXxTyfn5TZOV3F3Bndc7OpL/61tPeVBip9KyVdLQ1d8e8PvtznVm3sPflb1zclLz6VKyK3xRralxD81hg3+/SY7dtX5dv7/kKLPEhrnj16zoSNYSF7WS2KjpRsaQKaPGiZzA8TW3woTuob06CT3G3UL6Vw6bNhMXcNUzWMtO75E3uy47KnyuyqURyGJ6PATiwXc/86mnNhx3YoNhT7Wm1vqNoPktJvMw3Ni0pcvPwDqVIuZe+tRQ0zJd0/isNw+3bzd1L8S66uUtPNJn11z64T/qctHZXL6nCB8rDUdJVL8yVje6DfX3BXSTqhq5j7+VB8WiBJjQ36rqRKDHvbb/Irt4zfckRYyN6S9qFtaV8/Ld/e12bSEslG4sUsedVq97Qs7T04KTHKd/T9rckXaZiL7SZNkvS9/LF9K/LtPaemOe9WzWsuh8VsQW5nyRXfF2y4fhjOmdib5Fg/NjvXXy5OWmCyj0naNAqvYFXJP14u5r7CxRz1ctcsq4aF7GVmdr6kgdHVe1va4NuOHQ0/pu7UJDiKhqKItXjl/GwlKX1+ZfPgv8q0YU/P5YEFPyaDkL458YHPD9qm0831j9qJTcVTZJvLPh0WsnN2d39CxEfXg9nPSdqjYpFJX5reUTmpHu0vF3NtQVQ7UtIDjKbfFIzPzAxLuZVDNvf57U2pmz4fo55GLl0fKDi8q9i06JlZh2xN87C+re3ZCfn2vqtNtZWSiiN8+EOsZssOXfbifnGPU0tH78flunyEb5aOkoL/yLf3LZn+i75D0pyHYSl7x/hc9iiXfVrSxpg1byDw6G/Tcf9t3lXMfkeZzHTJbxpFV7BNLp0TFpu+JSAOE+RC9l8yHh0j032j4ftnrovCByeVeOnO73XOa3pA0p5Nqk2JOqetXTBli9y+v4c3hks7i5P6yCCk0erC1G1dpdwnJJst6fnRcDk0C04oF7PfGMklnxhGiywKxgfnS9qTH/sygfxr9bs+Nz83Pps9We6XSdo6CkfxFXO7ICw2LeycNWnzUH7w75Y3ludmr3P5rfXuqUsPemQnl4u5D6Z+crHIg3xHZeGgjS1Lulg7Xlldh4KEDh87OPi9OIcq39H3TnP7Rh2bUAoy6pzR0XvlzCU949Oakg8dY4PlYvYbQWbwMJeulVSLRcNcl3fOa34uTbEO50zsDYtNC910tqSnU32uc3Vaxk8oF3NtzMoQJytLzWH4QPZkd/uIXJtT+v3rCKLoiK5S7ptaZBGj/ofx8R/twT9+JCzkErhcsPbtPbm+RzKW/yL1wmJ2mW+rvkNmNyidTwNuN+krW8ZvmdlVmPQII54unbMmbfbA57u0+y9PdJ0wbUlPSz3vS8NS01VBJnibpNH0Qpq2IIre1lXK/mg4Pvz3+5uZedVqH5Kppz7zU1vr0v8uF7LHl+dlU/9r/PS23ln5YyuPyP2GV5eb1nsCfG5LW++FcYxV6+LOMYp0nepVIP29ce72hYEgWJXvqCyUu6U1PzvnTHmxXMxdHCg4RtJ/1LMtZn5bOJD9ZlpjXS7klgzaprykTw3Bsqy4qZr01cFg08yuOU2dAuJokUXlUva7QUNwlFwdKepZRa4/C0u5Ytp+QBlKUa3hJu1mMcykRF6bwmLzs6bdzvUXq/YKP+ZgVCi/Z/KGsJB9v3l0mvb0aeEYcenOwPyormLus2lfaTeq83du0zOZIHivpO27+xmZTOa4+t+XTlodFrLvNtOfS3ohxUP2XOCaHxZz84Zz3vY/XnCwujB5rSLN1sgu/9sis6u8GswoF3P/L+2PHh9x2/NT8u29NwZmd0p6e5zaZoF9vXX5un1iNznf+4CPydQaoyYdJPcbZnRU7p7e3nNMmvO1szjp0bCYO93cF0h6dsRzUipnou1/pgVWS3OcVxembguLuX/Y1jjmMHe7IhWFQPdfu0fv7Crm/mZ1Yeo2pmHJZRrc9fFzJe472zln0uqwlCt6ZCeadE+Ch+xFk1+5bcyY6WEpxz5tb6B7/sQeM9+NJwvspXGR/ySp/Y7cdnPpsv2Yc/qQznOS+1Su2W4UjjyRudNVar47Oz57lLt9REleFuzqVGTvKRdzZ3YWmrp2L2d3fdzNo2ErMpr7rrfHlOr7iv8xt5k76dcm/+ju50z0ppicb7yrkPtBVM0c6tJnU/bQxMtyfa6xQTM6S7lfDPfB/r83nIal3EqPrCBpuDcAdUmLgyhqCQvZy7rnT0z1hvgzl/SMn9Heu6hWzayS7IKYXhQOiAaiD8Uqbiu8UdKn4hkunRQoeCDf3ntja/u6XJrzt6vUdPOm/sG8zL4gqX+EDvtErZo5czTtV/XUWfu/XC5lvxiMCw52s0tUh6LrEHgyMD83LDWdUi41PxSXRgVWa9jlf+P+IrenUnZ80/OSdu2mzfRMUvtbnpe9r6uQPUWm87Rn++eM+ATSZYsGrfGQrmLToqfO2v9lsnfnRL5bS1qve2hec2JfIlMuTrpdsu5dPi8OzYtTUuktDRP6JQ3u0lzSbGOCu7zr53m3xC41vWuWVcul7Hc39Q9OfXWOlqRC4OPmviBckX17OC/7sz07X+76uLsN61Y3uzxXjuSPj6ZzU1ex6XqT795WWhbEKs+750/cVC7mvtKY0VslfVLxfJHtztpupu82NmhaWMr93WOzcyNyjx283uQ3yAQnSuoalqOaPWwenRYWc/8r9ctS3C3fXrlgIBM84bIrJO0V6/aaLjm844mxcWnOlkrf+ZLeEuuIyS6IFK3Kd/ReGqfYDbW1C6ZsCQvZL0XVzDQzfVfD+au16b5M1U7pnj+xR6NQ56xJm8uF7NfD/uxh7vbeHW8G3/3H90fICpnOy47PtnQWmv4tbo0b53po138ttKXc0u646THzu3YtdL4s0Z0287CQ+0lYzL0jMJ3ppl8opk/qmFSW/NIG33ZIuZi9cnXhgFfI2l2zuX/wFu3a6peqB9G3k57jkv/TLv6rB159cQpe51wp6eFdq0RE/5nYFJJ2dSn4wN5euzsN8+FyIfv1oH/DoZItlDyuRc3IzG8z6U/CQvYdXaWmm4diH9jNA9t/JWlXrjORB2oftjxs2OU8dHnD7aPt/NTVn7t0N+a1W4Ng+6/i2J/HZuf6w2LumqiamWqyjylZbwx+3t2uCBS8tauQ+8hjs3PrRvLgf3QPs5krvHGgr+9TMvuShmL/NdMGub4U9mf/Me1L+iRpenvPMRkFV7t0UqIabnZOWMjeEoem5Nv67pDpzMTEzrXa5J/tKjXdnPb8bllSOUGBX2PSsUP4sVWTvmb9GxZ1LmjdLvzOkT976c3bx2w9J5IWmOxM1X9PTGnHI+s/NUU/7Co1x35SP6Otconbzr7RzO8Oi02nknk7tHb0nRG5frmz1/ogGJzWOWdKqp6gbL113eFRLbpQ8gWSTavztWazm252s+93F7L3kKFDcH5o71306g+1OzMAN4bFpguT3ufDOzbs26jBUK7mnel0ZHYK+fYGedTR90F37exblj1QcHRncdKjiezsIg/yx/atkOyonbu90OVdhdyX0zju+SU9R3smeL9J75PrgPrex6nHI/3QI13XfXZuWJ68y3dUPi/3L+7c5UrXl4u5Dw5r/Nt7fyrZe3by+vmDsJT789F4fjp02Yv7jd2+/V5JM3byFPWdsNj0scScf2/tbVVVH3Cz8yVlY9a8mlx3BYF/Z+K43C2v/mBUp1PETpj+i75DMg26zF0flNSwG8d5weTf2jpm7D+MhiUp03++vjloqH5VsvN3NsaxYnZDWMi+v+43W8vX7RMNRC9IStxTdS7d6YH9Vffc7GOpTvZFHuSPW3e+uV/h0qF7+GnLAgWXJnYiPIJa/n3tAcGYzBkuzZLZ6ZLyI3j4Xpndbh51vNJfXbJ2wZQtiQncYs/M2Kev3d1mv8HffDaIolN5ccIf5F1H79fM7ZI3muCY+byuQlOqn56c0bHuKHm0wF3zZJoxQtf6p820zOTLqoMNt6V965QRn3Ms7hwT7b3/HZKd8gYT53K0rXpy+T2TU7H/UMuS3tMtsKV6oxUqrr8KS7mryZQ3vs607F253aQz3nCuaPpmuZC7KMndzS9ZN1WZ6L43Knq5/NZM/4vz0/7j7o6HZ9ad5oGfba6zJb11hA79uLuWBKZfdD2YfXC43/g+c4U3DlQqHZLe9UbtGrTGk4f7yfRpS3oOzFhwn0yHv8E97sNBsP2stP1AuSuO6KgcVnO/X9KBb3Cte8oyg8cmMVYzV3hj/7q+ExXZu2U6y6SjJWXq0JSqSXe72c2ZQf37yvnZWCxX3qUJ6/Sfr2/ONNT+1OV/Ktkxksb9kQLIOjPdqZot3rLPwNLR8IahHZPHAz4m6YuS9k1wV54Oi7lD692IGe198126JcFxrJrrO9YweEXaLzQzV3hjf6VybiD9hUun6XW2F3gNL8vslsCib3XObXqQO4fdPPe0r8tFFp1mriNdOkJSq6SDh6AoMSj5SskektnD7v7rcjGX6H1TDl7+9F57DYz7tkkfeJ2/siJjdt7KQvZJMusPL+xuLR2Vz5i0SK/9w0yvu32gXMreNprCMm1Jz4EZZU5R4KdJOkFSyxDMAfpl1u2Rhya/V55ZFs6b9ARJOLwmL14z7k17j1kk+SWvfR2zpYMWXbi60LQ+Tf1uXdJ7XBTYjyRNfY0/HpB0cVjMXUeG7Jwjf/bSm7eN2fYTSe/+I3/t++Oz2Y89dIwNJj5/djwd/S+SXuttodskfTs7PntpPZ94qWuxRTpJ7qdIPlOyvPZ8O6htMj2sSP+pQPdnMrV7V84+aE2d5lNXm/Sh1zpfutu/7TU45kOPnjNh40i05+239U0arNoPJZ/7Gn8cmfTjWjXzUX48+905/2a93jZbZg+rZuelZd7Reuua/b3acKabnSRphsvyJp88DIfaZDv2jr5b5r+qDTb8Oo75tts3h6cv94b1m9e11jL+FkW+vxSMlfkmmW1oyFTDepyI6qmlvfJek39N0iFp6M/Y7WMnjNQJ+/Vj2vc3JqVgqYC9JPmV2fHZb42Gyc+rv8K9ywOfaZHNcNPEQDrApX6TXnHpOTOtNOl+bd7wa5b6DtPFbvm6fbS5NsMDa5KsKXJNMtMkySea+X7uVpXZgNwjlzaa2UZF0Usu9SnQM+b+THZ80/Npzdl8R987Jfuo3A/aMVPV04HU1lnMLkn72+j31G9/DIzcTjHzN7u0RtIdm/sHf5aoJ0KHOUbKVKebgqmScgr8QHMdKLMG9+hNJmtwt40WyE3+kkvrFemFwIJyLaiVy3Nyz5KH9R2/oKFWkHymyQ5y15Muu7lcyt6b1j7PXOGNWyp950RuZ5spK9MLLltRVXRj2gqeI8LdWjvWz66pdrHJjpO0v6Qtku4JTF/pLOTuTFt/W9rXvVuBF811iEyDkj0SDQbfH637Ob+mxZ5p3Xf9IVG1Nt0Da5Zbs0mT3H0/C2yMXPvI3RVYv9xfkWyrWbRBsmdrkT9tGT2d2yu3Nk5zsyPaevJVyywwU6vkDeYqRx79tF4vgmtpq5xopvmST5eUMenxahTduGpec5kE/L3Ji9eM23f8mPe6+Wna8aRqv6Rn3W1pecWkZcP9FGm9Hbrsxf322r69JXJvURAcaFG0n5vtZ2b7yX0/Sfv8kRPeK6bgFTdVLPLno8C6M7VaOSkrh4z038NJ4tLK2zORX+3SrHRdx6Nj6v0Gz3x73/ck/UV6omrdCqJPhXObOvjmAAAAjJL7hZ+vf1P3Iwf2p/2mGgAQbw2EYPe03rpm/1qt8QqL/C+9PmvKh5VZZv96t8Hlky1VNWqfrsja8+19t2TMLmGJIQAAQPqx7BAAEAcBIdg1M1d4Y7697+KoNma1SRcphcU/SZJp77o3wVP7K+mf1NzDlva+aw7v2LAv3yoAAAAAADCcKADughlL+84cqFQelnS15BPS3FePYpAbpjTvDddo0kWNPvhkvr3vYi32DN8wAAAAAAAwHCgA7oT8knVT8x2VxR7pDu14wyZGgiX/zWg74UBJV+f3rtzf0lY5kUEHAAAAAABDjT0A/4jW5ev28YHaJa7oMrnGEpER5j6a3oB4jJnfk2/va5Oij4fF5mdJAAAAAAAAMBR4AvC1LPIg31FZGA1Eq112hUTxDyOmJAVd+Y7KV1uXr9uHcAAAAAAAgD1FAfAPzGjvOz5/bOVeud8gKUtEUAfj5f6Z2oCH+Y7KQrkbIQEAAAAAALuLAuCrDu9YOznf3nujS/dJOp6IoN5MPlnuN+Q7KvfNaO8jJwEAAAAAwG4Z9XsAzlzSM37A7BOK7HMyseQScXS8S/fm23v/JVMN/nrl/GyFkAAAAAAAgJ01qp8AbOnomzcQBJ0y+yrFP8T/u2oX1DK+ekZ776LDO55gX0oAAAAAALBTRmUBML+k5+h8W+/d5vqFpINJAySGaR+XXdHob3p8RlvvuQQEAAAAAAC8kVG1BHjakp4DgyD4vKS/lJRh+JFgU91scb6t75eSPhmWcisJCQAAAAAAeC2j4gnAmSu8Md/ed3EmCJ406SJR/ENamM6U6ZEZHX3/PG1Jz4EEBAAAAAAA/KHUFwDzbZV3DVQqv5F0taR9GXKkUIO7PpwJgu58e9/FWuwUuAEAAAAAwO+ktgA4fenz0/Ntfe0yXyYpz1BjFNhf0tX5vSuPt7RVZhMOAAAAAAAgpXAPwLe1PTuhGuz1GUX+VzKNYYgxCuXN/NZ8e19bze3iVaXsU4QEAAAAAIDRKzVPAJ6+3Bta2iofrtrYbrl/RqL4h1GvlDEPW9r7rjm8YwPL3wEAAAAAGKVSUQBs7eg7ozJQecjM/1nSRIYV+J0xJl3UqMGwpa3yYS3ygJAAAAAAADC6JLoYcERH5bB8R2Vx5PqlpLcznMDrcDWb+T/nj638Z0tb5UQCAgAAAADA6JHIPQDfflvf3tWq/3Vtx1LfvRhGYKcdY+a/zndU/i2o1S7pnNf8HCEBAAAAACDdkvUEoLvlOyoLB6ta7bIrRPEP2B0m93OjIAhntPcuOnj503yPAAAAAABIscQUAFuX9h6bX1q5R+43SMoxdMAeG++yK8YNjFuV76gsJBwAAAAAAKRT7JcAv63t2QmDNvbrUaT3SzKGDBhyU+R+w4yO3vdFpo+W5zY9Q0gAAAAAAEiPWD8B2NJWObEajF1p0gdE8Q8YVu4222r2+Iz23gVEAwAAAACA9IhtAbClve99Zr5crmaGCRghpn1c9uOWtsoXCAYAAAAAAOkQywLgjLbK+SbdKGkMQwSMODPzK/NtvV8kFAAAAAAAJF/sCoCtS9ed7ObXScowPEAdmX2+pa3yYQIBAAAAAECyxaoAOG1Jz4FRFC2WNJahAerPzK9tae97G5EAAAAAACC5YlUAzATBtZKaGBYgNsaa7Hot8oBQAAAAAACQTLG5qW9d0nucpPMYEiBufGbLsX0LiQMAAAAAAMkUmwJgFASLJBlDAsTxRGGf12JnX04AAAAAABJ5Xx8DLe3rp0k+h+EA4smlQ1vHV4pEAgAAAACA5InHE4AenSee/gNiLTK9jygAAAAAAJA88SgAmpdG8RisIQ0TJRrFfS+cvtwbSAEAAAAAAJKl7gXAmUt6xpt01CiM/YDJr/Rt1aNIw0RZau4LJD03Cvv+pvUD648gBQAAAAAASJa6FwC3yo6QNJqeKnLJb4yqmaldxaZFY/Zu2EoaJodJUVep6eZgfNBq0lclbRtN/a957R1kAQAAAAAAyVL3AqAHOngUxXuFu50cFpsu7J4/sYf0S67OWZM2dxVzf5NpqE2V/KZR03ELDmb0AQAAAABIlhjsARjsn/oom3rc7SPhg9njy6XsvaRdeqycfdCasNi0MHI/w6XfpL/Hvj+jDgAAAABAstS/AOjemOL4bpXp7xozmlYuZb+rRRaRcunUXWpaXu7PzpTZ/5FpQ1r7aen+vgIAAAAAkEpBDFrQn9LYttXcWsNC7nOPzc71k2qjwAKrhYXsP43dNvZwmV0laXvq+mjBZgYaAAAAAIBkqXsBMJLWpymgLv3GI58VFnPzVpWyT5Fio8+j50zYGBayl2U8OtLMb0tV5zzawAgDAAAAAJAs9X8JiNVWpSSWL0r6ZLk/O7M8r+kuUgsrS81hV6FpjtzOkqszHScMCxlZAAAAAACSdj9fZ92bmldL2pTgGA5K+oex28ceFhZz12iB1Ugr/HdhKXtHMLDhaHP7a0kvJ7kv1lh7hBEFAAAAACBZ6r8H4I6C2Z0Jjd8dlvGjwmLuU4+eM2Ej6YTX07mgdXtXKft/fVv1MJeulZTAQrF1r5x90BpGEwAAAACAZAni0AiX35KkoJlUNvNCWMyd1TWnqZM0ws4qv2fyhnIxd7Gi6DjJ71ayEv8WRhAAAAAAgOSJRQFwc3/1J5I2JiBeG+V+2XbbdGRXoWkp6YPdFc5rfjgsNp3qprMlPZ2AJrt78ANGDgAAAACA5IlFAXDtgilbTPpOjOMUSX5TY4Omh6Wmq1YXpm4jdTAUyoXckk39g61yv0zx3gvz5+XixFWMGAAAAAAAyRPEpSGWGfyaZC/FLkKmu4LIjg6LTQsfm51bR8pgqK1dMGVLWGq6KtNQa5X0r5I8Zk2sBZEtYqQAAAAAAEim2BQAO+dMeVHyS2MUmzUyuzCcmz2jc172N6QKhtvK2QetCYu59wWBHy/TfXFpl7lfzXcAAAAAAIDkCuLUmLCQ/b6ktro2wrXZTJdvGb9lWljI3igzJ00wkjrnNj0YPpA92eQflNRX5+Y8Ps79C4wKAAAAAADJFasCoMx87PaxF0jWXYeju+Q3RbXM9K5C7svPzDpkK+mBullkUVex6fqompkm2d9LGvl9J00bMmbnPDSveYABAQAAAAAguYK4NejRcyZsHLTBd5n01AgedkVkdkpYbFrYPX9iD2mBuOieP3FTWMx+JmPWKrObR/DQLwfmc1cWsk8yCgAAAAAAJFsQx0atLkxeu92qp8ns4WE9kKlHsoVhIXtcdyF7D+mAuFpZyD4ZFrIL5HaWXJ3DfLjnosBO7Zzb9CCRBwAAAAAg+YK4Nmx1YfLaxoyfKum6Yfj4re76cjAumB4Wszexzx+SIixl78junT3SzT8h6cUhP4CrI1O147rnZh8j2gAAAAAApEMQ58Y9NjvXHxZzH3Kz2ZJWDsFHRjL9OKppRrmUu7xz1qTNpACS5q5ZVi0Xmv4xyAxOdelaDc3+gGvM7YKwlCuunJ+tEGUAAAAAANIjSEIjy4Xs7WF/9kiZzjNpd5bq9rt0vUtHhoXcn3WfnXuaoUfSdc6Z8mK5mLs401CbavJvSHphNz7mMXf7yKb+weldpeyPiCoAAAAAAOnTkJiWLrBaKP1E0k/y7T1vNQ/OdtMJkt4h6RBJ4/7b335R0irJHlakO6IouKN7/sRNDDfSaOXsg9ZI+vThHU98tkH7nhZE0btldrRLMyRN1O8L/Vsle1aKOiXdn3FvW1lqDokgAAAAAADp1pDERofF5mclffPV/yRJkxevGTdhfLTXAXu/ZdNds6zK0GK0WV2Yuk3S7a/+9ztH/uylNw8O9gx0LmjdTpQAAAAAABh9GtLSkbULpmxZK21hSIH/6dFzJmwkCgAAAAAAjF4BIQAAAAAAAADSiwIgAAAAAAAAkGIUAAEAAAAAAIAUowAIAAAAAAAApBgFQAAAAAAAACDFKAACAAAAAAAAKUYBEAAAAAAAAEgxCoAAAAAAAABAilEABAAAAAAAAFKMAiAAAAAAAACQYhQAAQAAAAAAgBSjAAgAAAAAAACkGAVAAAAAAAAAIMUoAAIAAAAAAAApRgEQAAAAAAAASDEKgAAAAAAAAECKUQCss1fGbKnFMjHM698uUxS3uLhUI2sBAAAAAECSUACss2dmHbJVUjVu7aq5v1L3Rrg2x2/EfBNZCwAAAAAAkoQCYDy8ELcGmVnd22QxjItkL5CuAAAAAAAgSSgAxoI/EbMGRZv7B1fHIC6r4jZSJusmXwEAAAAAQJJQAIwDt4fi1R6FaxdM2VLvZlgUPBy3obIgepiEBQAAAAAASUIBMB6DsDxO7XHTL+PQjs6HJj2ueC0D3ti5KUcBEAAAAAAAJAoFwBh4eWBwmaSNcWmPKfppLBqyyCK5fhafuNgtWmC8BRgAAAAAACQKBcAYWLtgyha5bo5DW0x6Kiw03R2X2Ljb9XFpSxRFN5CtAAAAAAAgaSgAxmUgGoK/lxSDp8vsazLzuMSlPC97n+RxKEg+UJ7XdBeZCgAAAAAAkoYCYEx0zpm02qUb69oI1+rt9sr18YuOf05SfYuSbpeTpQAAAAAAIIkoAMZI1fwzMm2o0+HdZR9fXZi6LW5xCYvNv5L8pro1wPTjsJS9gwwFAAAAAABJRAEwRlYXmtYr8gtVn6fdri2XsrfFNTZRteHjkq+qw6HX+Nbqx8lOAAAAAACQVBQAYyYsNbWb/IsjeUyTlgf9Gy6Nc1y650/cFAXBuZJeHsHDbnKPzim/Z/IGMhMAAAAAACSVEYJ4aunou9ZcnxiBQz0waI1nrS4c8EoS4pJv7zlVHrTLtM8wH2pAbvNZ+gsAAAAAAJKOJwBjqlzIXSSzL2g4lwO7OoLxwZlJKf5JO/YDjCyaJalvGA+zXqYzKf4BAAAAAIA0oAAYY2Eh+yUFXpK0fog/elDS58MV2XmdsyZtTlpcuovNKwIFR8n1y2H4+P+oRQ1HhYXc/WQgAAAAAABIA5YAJ0DrrWv2r9Uav2zSByU17slnuXSnuS4OS7mViQ+Mu+WXrrtA8q/I1byHn9Znpsu75mavl5mTdQAAAAAAIC0oACZIy9Legy2yT0p6n6SJu/BPt5m8Te7XdJWa705bXA7veGLsGN/3/S59SPKZu/JvXfqNyb+3qb/6g7ULpmwhywAAAAAAQNpQAEygmSu8ceu6yimRdIbcjpZ8mmT7Sz5Brs0ybZK0SrJO8+iujLbf8XjprS+Nhti0tK+fZqqeJdlJMpsu+Vvl2keSybRJrjWSuk26N/Bo2cpSc0hGAQAAAACANPsv5vKmfpQ1YccAAAAldEVYdGRhdGU6Y3JlYXRlADIwMTktMDctMDdUMTc6MDA6MzkrMDA6MDCYvssvAAAAJXRFWHRkYXRlOm1vZGlmeQAyMDE5LTA3LTA3VDE3OjAwOjM5KzAwOjAw6eNzkwAAAABJRU5ErkJggg==;" vertex="1" parent="1">
          <mxGeometry x="544.3" y="436.5" width="140.39" height="33.56" as="geometry" />
        </mxCell>
        <mxCell id="Qz6fXgYHEP6Uw-YGUnhL-11" value="Data Integration" style="text;html=1;align=center;verticalAlign=middle;resizable=0;points=[];autosize=1;strokeColor=none;fillColor=none;" vertex="1" parent="1">
          <mxGeometry x="325" y="486.91999999999996" width="100" height="20" as="geometry" />
        </mxCell>
        <mxCell id="Qz6fXgYHEP6Uw-YGUnhL-17" value="&lt;font style=&quot;font-size: 17px&quot;&gt;Data Sources&lt;/font&gt;" style="rounded=1;whiteSpace=wrap;html=1;fontStyle=1" vertex="1" parent="1">
          <mxGeometry x="85" y="360.00000000000006" width="100" height="40" as="geometry" />
        </mxCell>
        <mxCell id="Qz6fXgYHEP6Uw-YGUnhL-23" value="" style="triangle;whiteSpace=wrap;html=1;fontSize=17;fillColor=#f5f5f5;fontColor=#333333;strokeColor=#666666;" vertex="1" parent="1">
          <mxGeometry x="240" y="436.5" width="40" height="80" as="geometry" />
        </mxCell>
        <mxCell id="Qz6fXgYHEP6Uw-YGUnhL-24" value="" style="triangle;whiteSpace=wrap;html=1;fontSize=17;fillColor=#f5f5f5;fontColor=#333333;strokeColor=#666666;" vertex="1" parent="1">
          <mxGeometry x="479" y="436.5" width="40" height="80" as="geometry" />
        </mxCell>
        <mxCell id="Qz6fXgYHEP6Uw-YGUnhL-31" value="" style="triangle;whiteSpace=wrap;html=1;fontSize=17;fillColor=#f5f5f5;fontColor=#333333;strokeColor=#666666;" vertex="1" parent="1">
          <mxGeometry x="720" y="436.5" width="40" height="80" as="geometry" />
        </mxCell>
        <mxCell id="Qz6fXgYHEP6Uw-YGUnhL-32" value="" style="rounded=1;whiteSpace=wrap;html=1;" vertex="1" parent="1">
          <mxGeometry x="1011" y="373" width="170" height="207" as="geometry" />
        </mxCell>
        <mxCell id="Qz6fXgYHEP6Uw-YGUnhL-33" value="&lt;font style=&quot;font-size: 17px&quot;&gt;Data warehouse&lt;/font&gt;" style="rounded=1;whiteSpace=wrap;html=1;fontStyle=1" vertex="1" parent="1">
          <mxGeometry x="1046" y="360.00000000000006" width="100" height="40" as="geometry" />
        </mxCell>
        <mxCell id="Qz6fXgYHEP6Uw-YGUnhL-34" value="" style="shape=image;verticalLabelPosition=bottom;labelBackgroundColor=#ffffff;verticalAlign=top;aspect=fixed;imageAspect=0;image=data:image/png,iVBORw0KGgoAAAANSUhEUgAABQAAAAEyCAYAAAClGX1CAAAABGdBTUEAALGPC/xhBQAAACBjSFJNAAB6JgAAgIQAAPoAAACA6AAAdTAAAOpgAAA6mAAAF3CculE8AAAABmJLR0QA/wD/AP+gvaeTAACAAElEQVR42uydeXiU1fXHv+fOTAIJ4IJkJgHcimTeBBEF3BdwA2YSUat0UbGtW92q1rYubX+itlqtbdW6t3W3alwQMjNAUXG3CqgVkhkWRQUz75sgLpBAMjP3/P4gWq0smXf2mfN5Hp5WmPu+95577r3nnvfecwBBEARBEARBEARBEARBEARBEARBEARBEARBEARBEARBEARBEARBEARBEARBEPIIEhEUNiNCK8rL1IARiTiqCKqMgAQ4sc5JsVVLGnb7tGQFw0xGKLors2MoESqZQAx0EumPI294PsIM0qI9giAIgiAIgiAIgiCUAuIALDRmsKodZx7hAJ3IhCMBeAGorfRuGzFeAFGofyIxc3FjTVcxi8YItu3GUD8gxtEgHAigcis/3QjCGwTMj2t6bHmD+31RLEEQBEEQBEEQBEEQihVxABYIw5pW9x8wwHkGMV0KYHcbj1gP4O867rhp2dQhbcUkm7pA22Ga6EoCHYutOUO3DgN4TjNft6yheoFomiAIgiAIgiAIgiAIxYY4AAsAb8hsJMatsOf4+186wXxthcfz58XjKFbIchk17+PhiYTjFjBOSNMjA6z4wsiU6g9E6wRBEARBEARBEARBKBbEAZjHDGta3X/QANfNzDg7A4//N6C/H/bXfFiIsjGarROg+F4AO6b50V8Q+KxWf3WTaKAgCIIgCIIgCIIgCMWAOADzlDEzP92x27WpGUSHZvA1FrT2hRtr3iok2RhB8yIAf8mo/hLdEPa5LxdNFARBEARBEARBEASh0BEHYB6y5/x1O5T39LwAYEwWXvcFtJ5YKE5Ab8D6PyK+OkuD4/pWv+dK0UhBEARBEARBEARBEAoZcQDmGRMWsNPaaM0HY0K23slAO0Hvn+/XgY2AeQYIf8/uCKHzwj73naKZgiAIgiAIgiAIgiAUKkpEkF9YG9t/l03nHwAQUAWox8YuYle+yqU+2D4GhNuy/mLmm+vnRMeLZgqCIAiCIAiCIAiCUKiIAzCPqA22jQPzL3L0+gM7LevSvBRMEzs0EvcC6JeDt5fpBN2Xz85RQRAEQRAEQRAEQRCEbSEOwHyBmQjqDgCOXFWBgN/UzuqoyTfRGBXmOQDti9wJpr7LtM4XJRUEQRAEQRAEQRAEoRARB2CeYMw1pxCQ66umlQ5nPK9OAY5dxC4Q/SrnFSFcNqxpdX/RVEEQBEEQBEEQBEEQCg1xAOYJxPhZPtSDQWeNbW6ryBe5dJnWdwHslgdV8QwcUHayaKogCIIgCIIgCIIgCIWGOADzgNpZHTXMdHSeVGdgp1LH541wiKbnTV2YTxNtFQRBEARBEARBEASh0BAHYB7gcCUmI4ex/7agFP58qMfuC1b1A3hiHnXVhNpZHQNFYwVBEARBEARBEARBKCTEAZgHMPMReVUfIC+cbv029DsQucn8uzWc5NAHi8YKgiAIgiAIgiAIglBIiAMwHyA1Ks9qVF0/d/XOOVdOor3zcMSMEoUVBEEQBEEQBEEQBKGQEAdgPsD8nfyrkzPndWJgz3wTC2n9HVFYQRAEQRAEQRAEQRAKCXEA5poZrADkXVw5rdWOua4DEe2Yd/2Vj3USBEEQBEEQBEEQBEHYBuIAzDFjx0b75WU/aAzIdRUY3D/fxMKEStFaQRAEQRAEQRAEQRAKCXEA5phYmaJ8rBcT8qFeeScbxSDRWkEQBEEQBEEQBEEQCglxAAqCIAiCIAiCIAiCIAhCESMOQEEQBEEQBEEQBEEQBEEoYsQBKAiCIAiCIAiCIAiCIAhFjDgABUEQBEEQBEEQBEEQBKGIEQegIAiCIAiCIAiCIAiCIBQx4gAUBEEQBEEQBEEQBEEQhCJGHICCIAiCIAiCIAiCIAiCUMSIA1AQBEEQBEEQBEEQBEEQihhxAAqCIAiCIAiCIAiCIAhCESMOQEEQBEEQBEEQBEEQBEEoYsQBKAiCIAiCIAiCIAiCIAhFjDgABUEQBEEQBEEQBEEQBKGIEQegIAiCIAiCIAiCIAiCIBQx4gAUBEEQBEEQBEEQBEEQhCJGHICCIAiCIAiCIAiCIAiCUMSIA1AQBEEQBEEQBEEQBEEQihhxAAqCIAiCIAiCIAiCIAhCEeMsxErXB9s9mrWfCYcQsC+AXQHs3PvPPQA+YSCswO8QHPM/7+x+cc204Rulu4WipokddRXRg5nUsQweRyADgBtAPwAAYwOAD6GwhBivK6LgUp/7PRGcIAiCIAiCIAiCIBQ3heMAnMGqbrzVyIwLNfREEBRt+ZdlAKoJqGbQkQz984GVrs+MoPUINN0SbqxaId0uFBOj55lVsTguBKwfM9RQACBsYXQQBgCoB6Oege8nmG8xgtZigr69hzb8c6Vvr26RpiAIgiAIgiAIgiAUHwVxBbg2EJ1ojDcXMfAMCEfZqPeOAJ8PpVuNoPl3Y25HtXS9UOjUzuoY6A2Yv4/F8T6A3wAYmvxTeCyD7nXxwIgRML8vUhUEQRAEQRAEQRCE4iOvHYC7L1jVzwhatymi5wDaNw2PdAI4A/HEcm/QvGL3Bav6iQoIBccMVt5g9EfKmVhGhCsBVKZjuIHwqBE0nxkRig4RIQuCIAiCIAiCIAhC8ZC3DkBjbkd1/67+LwJ8PgBK68MJAwi4rqKrf4s3YJ0oaiAUCt5m6yDveOvfBLoPQCZOsk51Mb1hBMxRIm1BEARBEARBEARBKA7y0gE4apblpkTieQD7Z/I9DOxJxE8ZIXNBfbO1j6iDkK/UzuqoqQuZd5PiVwgYn+HX7QHCy7XBtnEieUEQBEEQBEEQBEEofPLOATgi9MmghJOfZ8CbtZcyJmjFi41A9I6RzW27iFoI+cKwptX9jZD1W+VMLGfG2VkcszsqqDm1s809pBcEQRAEQRAEQRAEobDJLwcgM7k49iCAuhy83QGicx3KsdwImheNXcQuUQ8hl9QFoicPrHSFwXwN0hPnL1l2UQ48M6xpdX/pDUEQBEEQBEEQBEEoXPLKAVgXMn8EYGpua8E7Abi5yzKXGoGoX1REyDb1wfYxRtB6kYmaAOyW4+qMHlhZdrX0iiAIgiAIgiAIgiAULs58qcjegQ93ioNuyh/R0EgQAkbQDDAcl0b8Q5aLugiZZPQ8syqewLWa9RkAHPlTM77ECJgPhhs8S6WXBEEQBEEQcs+wptX9d6rQ/Xp0+Y4JZzzmYuVIsMNBCbWpetAu7S9MpHg26zNm5qc7birrOYrAuxIjrkGLI4uq/o0ZpKW3hGyOi4EVziOJ6DsMOEjhXVr/ycst0+p7RDqCkEcOwBjKf0HAznkoowZCYpI3aN7ZU1b2f+8fs/PnojZCOhm7iF1dlnVeLI6rAeyQl/ME8dUAviu9JQiCIAiCkB1Gzft4eKLHOQ6k94VSXrAeAVANgCEAVByAcgCKN2/pHMSAMwGry4obAfNFgP8SbqgOZrKOw5pW9x9U6fxdN7rPJ6AcAJgAAsMYby7noHlpxO8JSG8KGaWJHd5K65cEXAFgEPf+NWuAKwebdcHola0+z/0gYhGWUMpQPlRibHNbRZdSbchP58dXMNAOwm8ib7r/ka6vWaPnmZWxODbkXVuZvhtpcD+dyzoYQfNxANPybMA0t/o9x6WtjXOiPmj1Z4Br83yuYOVQI1smV62UaVMQBEEQBCEDzGDl3d88jFidDOhjABqZuvFKD6gNa8/OxAmo2lkdA5Uz8SyA/bfz09+G/Z7fSQcLmWDCAnaaG62niLG9Pdo/wgvdZ8upVKGUyYsYgJ1EJyPPnX8AQEAVMe4xxpuLjGDb4aI+gl1GNrd5jaAVgqZgATj/AIA4oX8iPScIgiAIgpB2u3AXI2j+xju+/UNiegHg89Pi/AMA5tN5wOC/ZmQj6dL/wPadfwBwrREyvyc9LWSC9i7r2j44/wDgjLr9rctFYkIpkxcOQCI6obDERvsC6kUjaDbXzjb3EDUS+sqYmZ/uaISsPziUegfgKYVUdwaOlx4UBEEQBEFID7WzOgbWBc3rHUp9COBaAg/LiA3HOLt+Tvuh6XxmXdA8AMwnJ2FI3jh2Ebuk14V0YsztqGbgkiTGwpWjZllukZxQquTeAdjEDgBHFqj8GpQDLUYges3oeWalqJOwLT2vC1rndJd1LwfzZeiNkVJoa+yI0Jph0pmCIAiCIAipUR8wj1PORJiBywFUZPp9Wuvz0vk8BpI90bdrZ7R9nPS8kGbFPj7JfVVlwoVJIjihVMm5A7B2YNsIAAMLWIb9QfTbWALLvQHrbMxgJWolfB1vc3SCt9JazOC7sDloc8HiZOcY6VFBEARBEAR71De1lBlB63ZNmAVgaLbey6DD0vtE8iZdgvgA0QAhrXrNnLweah4vkhNKlZw7q4gdI4tCkowaIr7b2N96pX5OVCYVAbWzzT28AesJUrSAgH2KoU0ENqRnBUEQBEEQbNiGszoGcuXguQCfl+13Ezi9H6FZJ32Ag4l2EC0Q0owNPUR/EZtQqjhzXQHSqMqPXMTpWgxxkGZ6wwhZT6pE4hctjTUfiZqVFmOb2yo2KvoVA5cB3K+4Wqd2kR4WBEEQBEFIjtHzzMpYPDGXgYNzVIW10guCIAilTe5PAGYh5kVOmsV8slZqqTdoXj4itKJcVK0EYCYjaJ3WpdRyBl0FoF8RtlJiXQqCIAiCICTBhAXsjMXpCeTO+QcQXpaeEARBKG1y7gBkRfEilu9AAq538cAVRsiaLupWvNQG28bVhayXAX4QWYznkv0ByzHpbUEQBEEQhL5jdVk3Ajwlpybc5ljUgiAIQgmTBzEA9SclIOfhYH6gLmg+XzvHGi1qVzwYczuq60Lm3QrqDQYOKf4Zg9ZJrwuCIAiCIPQNb9BsAHBxLuvAwH0RX/WL0huCIAilTe4dgBoflIqwGZioNC82gtbt3qfXDBb1K1x2X7CqnzdoXoF4Yjkzzs6HsZQlPpTeFwRBEARB2D57zl+3AxHuBnIa8fzROK0/V3pDEARByLnToh94KYB4CcncCfB5VO5aYQSil3Gsu0zUsLDwhszGiq7+LQRcB8KAUmq7JrwjGiAIgiAIgrB9yntiV4JRkwuTDYTXGXRS2Oc+ZaVvr27pDUEQBCHnWYAXN9Z0GUHzHQDjSkv0vBOI/hBH+RmihgXUa8AUYjRyaTZ/fXW/qtZlogaCIAiCIAjbZERozTAwX5imx33OwGICljBTK0F/rJX6jHRiEwCAXOudHHPEgQrN6HQNcK5pmVi1QXpBEARB+DrOfKgEMzUT8bgS7YO9RA1lzBQIgRcmUlxUQBAEQRAEYduUaedlTOifwiMSzHhMKX6kf5Xn2cXjSBKxCYIgCCmRHw5AR/xx0o4ZyG18DEEQtoFiPCZSEARBEARB2Da1szoGMiWm238CvcTgCyINniUiTUEQBCFte/p8qMSyKUOXEfG/pDsEIW9Z1dLlDooYBEEQBEEQto3DqU8BMMhOWWY8ojrXHhPxi/NPEARBSC/5k7mU6SoALF0iCPkHga/FNEqIJARBEARBELa3reHv2bS45kQWuae3TKvvESkKgiAI6SZvHICtfs8bAJqkSwQh78zYt1s7PQ+KHARBEARBELbNyOa2XcA4zEbRjQntOAszSIsUBUEQhEyg8qkyCa0vAGBKtwhC3tCjlfqRnP4TBEEQBEHYPg7lmALAkWw5Bv62vHGXj0WCgiAIQqbIKwfg8saatYD+HgA59i4I+QDRxcumuN8VQQiCIAiCIPTFdOJDbRTTTmfiJpGeIAiCkElUvlUo7K95icA/BSDH3wUhtxbsDWGf+04RhCAIgiAIQt9gjUOSNrmAF5dOGrpapCcIgiBkEpWPlWr1V9/H4DMAxKWLBCEHxivjurDPfblIQhAEQRAEoW/UzuoYCIKRtN1F9IRITxAEQcg0Kl8rFvFX36+ZjwXQId0kCFljI0DTIw2eX4soBEEQBEEQ+o5TxQ07+ytN8edFeoIgCEKmUflcuWUN1QtcToyCZAcWhCzALzMcY8J+90MiC0EQBEEQhCQtKVIjbRRbu2xyzXKRniAIgpBpVL5X8N1Jnvaw3/M9RTgKgCQjEIR0Q2hjpnPCCz0TIv4hYoAKgiAIgiDYQAN72ij2BohYpCcIgiBkGlUoFW3xeZ53V7jHMtM5kGvBgpAOehi4NQaXEWlw34MZJIl3BEEQBEEQbELEuyZdhjkikhMEQRCygSqkyr4wkeKRBvc9Tu6uBdENAHqkCwXBFoEEkxHxey5a6Rv8hYhDEARBEAQhZYYnW4CVek/EJgiCIGQDVYiVXtKw26dhn/tyrRKjwQhJNwpCnwkz0+Sw39O4vMH9vohDEARBEAQhbXiSLcAaYo8JgiAIWUEVcuWXTRm6LNzg8YPpGABh6U5B2CrrAFwc7nTvHWlwzxNxCIIgCIIgpJ0dky2gOfGhiE0QBEHIBqoYGhFucD9b4XbvA+BiAJ9LtwrCV8SIcE9C69qw33MLplFCRCIIgiAIgpARdki2QEW8vyliEwRBELKBKpaGLB5HsbDfcwt3x7/DwK0AxNEhlDrPgrFfq89zzvLGmrUiDkEQBEEQhIxSmeTv9TvH7yiHFwRBEISsoIqtQZETh30S8Xsugtb7A/yydLFQgqwg5mlhv+eYcINnqYhDEARBEAQhs+y+YFU/AM4ki3WCiEV6giAIQjZQxdqwcGPNW2F/9eFMOA7AB9LVQtHD2EDgq2O0fu/WhuonRCCCIAiCIAjZoRKVThvFOkVygiAIQrZQxd7AiM/TvL4zVgfmy8HYIF0uFCEa4IccCRrR6q+esdK3V7eIRBAEQRAEIXt0b3TY2VeJzSYIgiBkDVUKjVwzbfjGcEP1DQl2egF+CIActReKhRcV1Niwv3r60qluS8QhCIIgCIKQfbSLyEYx2ZMIgiAIWUOVUmOXN+7ycdhfPV1pPhDAv6X7hUKFQWtAdHrY557Y4q96RyQiCIIgCIIgCIIgCMLWUKXY6JbG6jfDPvfBIDodgClqIBQQXQS+ekNnz8iwz/2gBI4WBEEQBEEQBEEQBGF7qJJtORGHfe4HXU6MIPDVkBgcQn7DIHoC0HWt/uoZa6YN3ygiEQRBEARBEARBEAShL6hSF8C7kzydrf7qGcqhRm12sAhCvkGLNdFhYZ97Wthf86HIQxAEQRAEQRAEQRCEZFAigs20TK5aGfa5pynCUQCWiESEPCDKTOeEF1btv8znflXEIQiCIAiCIAiCIAiCHcQB+D+0+DzPuyvc+zHTOQA6RCJCDuhh4NYYubyRBvc9mEFaRCIIgiAIgiAIgiAIgl3EAbgFXphI8UiD+x4nd9cycCuAuEhFyBKBBJMR8XsuWukb/IWIQxAEQRAEQRAEQRCEVBEH4DZY0rDbpxG/56KE1nsDNEckImSQdxXhqLDf07i8wf2+iEMQBEEQBEEQBEEQhHQhDsA+sLyxJhL2u31MOA7AeyKRLEFwlUAr1wG42F3hHtvi8zwvnS4IgiAIgiAIgiAIQrpxigj6TsTnaR4RWvEvlx5wMYh+DWBg0TZWcSzndeCidgDGiXBvPKF/vbyxZm1YhpcgCIIgCELO2HP+uh3KerpPUExjQdiZiZKzQ3t67NitQ4yQ1WSnvsQcY6ADoMWqgma2TKzaIL0oCEIy1AfbPQmd8CriRFms/5J3TtjpM5FKcSMOwCRZ6durG8ANI5vb/qGU+i0B5wNwFF1DE7w+D2pBxahDRDxPab5kqb9G/H5CThg9z6zkWHcZADhig1gWe0HIHmNmfrrjRhVPLJs6ZL1IQxDyA28oegHFemYANJi/tD6Zs/HqSjCfbKcgf+3/6Y38iRE0Lw/7PX+X3izs9WFDudaFGAd89DyzsnuTQ8naVhjUBc0DGLhBQx9OiohB6C7rjtcFo7PI4bi8ZXLVypIVDjPtHfxoRwBY0rXrF5hGiWJqnjgAbbK8sWYtgItqg20PKahbABxcTO1zONCe+8GHtiJzAa4g5l+3+qufkBEkZIIJC9hpdq3dk0jXgfVeYOzBioYSwwPADWBnAANjcQBUDgCIl3XDCJqbAFgEvM/MEVK0KBHHgmXHeVYVq6zqm6P7a6VOB3g/MAaC8AGIgus39Ny/Ztrwjdmqx4jQJ4PKqaeWE6qWFXvBPJyASgbtAGAgGANAiIF5AxM2EKn1zLyOmFdBqWWa4uEBQ2reXzyOYjICcs+okPUdDT2SmbwM1BJjBAAPCLsA2AWAoxvdUACMoAkAnwFYD2A9CJ+DeSWDWokoggS1uAcMWfXCRCreRGRN7DAGtJ8CoAHMuzGwgQivE9RTrb6qt0WjSpwZrIz9249j5uMI9J3ejdlb2kH3LZvifjeNG+HrmHFFYW9YMRjA37xBc0jE77lelCf/5rragW0jSDtHEdgAUEvAUMY37DN0oxsu7l0fGBtA2AjG50RYzcD7DLynwO8xU2t4kbsVM0jn1JYKtns0+BKAT4jFsZdyJuANWmuIdbNDqT8t9bkldFYe4g1ZlzLzjfh2ODgng77LCX2sN2CdHGlwzyu2to9sbtvFSTC0Ul6luZZBBojcBN6JgUoAAxCyKuO9+ySj0gKCZhxAB4C1AEwwVoM4AkZrAiq83F+1CkRcKDKw715hplFz2vfUxLsT806aVX8Cf8HQn3K3bomcOOyT0hpIZiMxbgWwexE0Jx6j9QN6TzvmTqZB8woCrit4aTI2EPGfemjD9bmWaTbYc/66Hco3xY4kxeMZMABUARgIUA+guwB8AEYLiF+vcFe/Lo6LFAyvBe0DEhv1RGgcqAgHMWM8CAPS+Ir3GHgWhGBllXtuMfTViNCKcicPvJOAH21lDfwQWp8Ybqx5KxPvN4JtuxHoSN78ZwKBh6XhsTEALQAWMPA8xx0vyhf4bMztTEbQqmfFEwjqcDAf3ruRSyc9YH6ToeaT4n+FN7gXFsuX6FEh6zsJ5kcAHLDFlRN0p8vJv3p3kqdTlK0E17e57SO05sfBvN8W/jlBjDurKt2XpOogrwtFpzBTqKhmJqZDIw3u1zL9IiMQfRlEhyZnEtOMiN99ddEr8AxWxv7W/tA4CkSHAHwIgEFpfstnYLwG4DWQfjncWf1qNtcHb3N0AjnoyV7n85bYyMAZEb/n0QzvF+8l4MdJFvtH2O85sxTnViNk/RbM1/Thp5sImNDq97xR6LZGXOMoIj6KgQm0eV+abtYR8CqDXwbRy/luqyXlAKyfu3pnnXCdyODvEuhAADtu4+cfAHiOmZ7wVFY9V9RfsHsZ29xW0UV0OYh+AaB/AdsOb4f91fvlfIJqtk6A4qcLWCU0GP9wufCbdyd52ota+WewMsa2TwXxmSAciz6fLqZPwTyTlLpNTnv0cSGb9/HwRNxxIoATsPnkcbZiZXYw4TEH8UMtU6oXFqTwmthhVLY3AzxlO7/8nOHYP+Ifsjw9myRzFCs+nZhOAPCdLLQ0TsAbDH5UOeKPtkwevk5GTvqoDbaNU3BMA3gagN2y/PrPAH6eSD3d1b/rqQ8m7rGpEGU4srltFwep10EYsZ2fPhvudE8utus3wnb0I2Dt6VD85jYcC5utVaYnI/6qaamcvDCC5hsA9i8m+RHQ3Or3HJdxO10cgN9g8y0MazIxTmBCQ4YcDdtiLYBnFNRT/dxDnsvkR9v6ULROM/0b24+HHwfTlHCD+9lM1UUcgEnNd9cC+E0SRZaGF7r3yfVJ02T3pHUHWBM5ge+BcDSAPXJQiw4As6B4Zow3PJdvB4D65ACsb27bNaHUpQScDaCfjfesBvCn9Z2xe7J5tSpXjAitGeZix3UAnYpCjGNHdEPY574893L8ZJCLY2uz6OBIJ28QcFGhfzXp08IbsE4k4msB1KWoeHMYfFnE71ki259vG5UdG83jE0znEjABuc/g/oYivqnlTc/ThWQUGCHrXDDf0cfV8YWwzzPR9rh4es1gVeb8IROdDvDYHDa7B+CAYnqgZZE7UFBGXD45JDY7rM4B4cfIjhO3L0r6KYB/QifuzdSJ1bzYsDGfH26ovkO0sESYwcoYb70BYFyf1AP4od0TRsbcjmokEm1FKMWu8EL3wEzP9+IA7N0nh6J1zDiDQacg/afAba8PTPww2HFbuj5mfqPvg+Z8AEf38efvhTvdtZn6kCMOwL72mXUDwL9KthwTT4j4ql/M9/aNmvfx8ERM/ZCIzmZgzzyq2udEeJwSdEdLo/s/eTE7bOsfxy5iV1d7++Vg/g2AsjS87yMwLgv73Y8X0j1pu9QF2g5jolsA2reQ6k3AgfniuDKC5gsAjigU2TFoDRF+HZ5S9VCx63h9sH2Mhr45zf0TB/P1FR7PtXI1GBjWtLr/oErXWQz8HNk/adQXhV/JoD96KqvuLYRT3nVBM8yAt6+/V1D7tvir3knKAJllueMu/QvS9NM0X8dOx+y+jKH/UOn2PCLjq+8bO63pYhBORV6f7Oe3idSfWt+sejTfnbwjQtEhLqY1fbYrGSvDfvfIUrAbBcAIRP0gCiRR5N2w37OPLcdBoG0skVpUjHJ0cvfOSxp2+zTDfVXSDkAjYB3NpC8l0CTk74EPZvA8Uvhr+A3P3HSsD73hG1Yk02YmmhTxuf+ViQaKA3C7GkBGyPoLgIvsmY58WdhXfWO+ts0bsvwE/ALA4cj/g1evMejPkYVVM3Npq6mtO17aduuyzDd674iXpel9u4LwqBE0X/IG2sYW+3hrbah5ObzQMw7AWQwUxhVQRks+nVoj0GMF0t2dIPq/DZ09I8M+94PFvFGpn7t6Z2/QvEVDL0L6nbNOEP12o2UtGD3PrEKpMoOVN2CdPXCAayUDtyAfnX+bB+gIIr67vctaYoSs4/Pb6bBmWDLOPwDQ0H0+AVg7q6PGCJo3J5z8PjH9Iv+cfwDAtQS6r8uyltcFrXMmLGBJBLYVRja3eY2Q+bRmWgrCWcj7sB60LzM/bIy3ltQFo9Mwg1W+1tSVUIcmZVcSRtTOaT9YtLJEIJqeZInR9cF2j71XYW2xbvkHV+4qcWAzhDdkHWsErUUgnk+gyXnudCACTYamoHe89VZdKDol1QfGmQ9Ius2Mg0RzcjETMBlB83bYdf5tNoYH5GPTjIB1tDdkvUFAc+9+tBBuXR5M4CeN8dYSI2RNz5UdvkUDcbNzTr2esZNrRIcSqTeNoPn3UbMsd1EPvBmkw37P38uc2JPAVwPI6yQQBPpDPtWnh764D4R8vp7BIHoC0PVhn/vaYr7iPnYRu4ygeYlOuN4j4GcAHJkTKg6Jx/GiXaO+kKmfEx1v7N++kIjvBqOmIOwLwAvmmUYw+pI3aO6dj3UsTziSlmWfEnQ0scMImBcrR2JZr4FVUQBdtjuD77K6rMW1IesQsZC/Nv6C7R5v0LzLodQSME5A4YXxqGPQ48Z46526oDk1P3ejySe+IebTRDuLnxGhTwYBaEx6f6rjttbKcGf1GgBfFKEoV5ZC7PVs4w20jfUGzeeIeV6OQ3vY3ONhH2YKGUHzBSNkHpiC82CXpMsw7yIalG3jnMkItd8GonNT0xu1PJ+aVRc0pxpB8+3NDniML9DeqQPzA1aX9W59sH1ytl/+LQdgfShaR+SYD6A6C+8+I+Hk9+qC0Rm7L1jVr5jH4LuTPJ2t/uoZDMdoAIE8reaS1q6qR/OpQit9e3WD+eY8dXosZE2HhH3uaWF/zYfFrL/GnKivy2pfAuDP2Hbyn3TK16tZPztm5qc7ogSYsICddUHzOq3p9a1kPSwE8/IwAhbXhaJX1ze1lOVTzRJQSTusNdE244/WB9vHGJXWayD8JT9P/G2X0Yr5ZSMYfbCkT9wCQBM7vCHrUg29koBz0OdERnnL3gw8Uxc0Z48IrRmWVzVTSDqrLwHfK3Y7UQBcHJsGG6dtHQR7H1+nUQLgfxabHAl4SrQpfYyZ+emORtC6nUi9QcCRRdCkI8B43QhGH/Q+vWawDfs86Q9jTESiSdm1aYw57fcBfF6KT4qzUz2XD03yzonubgTMIAPPABhTLFtsDT3HCJqB2jkf12bPDPt6DeZ2VGumOQDvlMWGVzLoqv5d/d+tD5jHFft4jPiHLA/7PY2kcDSAfEp2oJnpp/mYaS9GG24FEM6jKkWZ6ZzIQveBkUb368WsryOb27xG0ApBUxDg2qxXgFDfXdb9UD5fZ0sHo2ZZbqvTXMDAFcjgycqs7eGY/k9XDH6rLtS+bzH214QF7DSC1g291+ALPXskAXRaLI6l3oA1qRTt5Pq57SOMyvbnifkmAJXF1DYGGl3sXGYEopehifNibklQ4lUbxXas6OzXCKHI4elJFyF8snRR9bIU3vkHAJ8VkRDXOp34i+hSmpwOQeu73WXdkV5HiqO4WkenodzZWheMTpOeLjIbdYD1MJhPT4MRcV948pBo7m1u8yJK0BIQfEXabX6lHUvqgtEZ2bDVvrmpTiTuBLBrjhq+lybM8gbN5/L1Clk6aZ3iea7C7R5LwEW9mfxyvAPkayMN7tfyUVYrfXt1E+tzAOT6OkM3AX/QcUdtpMF9TzFn0xwz89MdjZD1B4dS7wA8JcfVaTDGm+cWq6xr51ijE05+I9lA2vlvV6KeWb9uBM2LiqlZI0LRIVanNbc3k1oxbQaGEPEcb9C8ZewidqEUmMHKCEV/pRN6CcCHF3FLK0D0h7pK68VRISvnGYyXTRm6DIyWpPchyceGEwppLZxt7gHYWAc1ZqVij4X9NR8yYTqATUUgxk5S+P67kzztolGprvWfDDJC1v0EfhJ5k9k3E6Yaqhj0uBE0Z45sbpNrugVOfVNLWXuX+RgY30+DbkS6y8t+mdP2NFv7WF3WQgA3F+hNm2RwMegqo9J6xRvsGJnJF33lADRC1nQAOY8XQ8CRBLzlDZm31s9dvXMx9/LicRRr9Xtu5e7YXmC+E0CuTt8907rQc00+y6q1oeZlBl2WwyoEHET1rX7PFcumDinewMpN7KgLWud0l3UvB/NlAMrzxES5fmTz2qHFJm5vwDpRaX4N+ZrkI3XKAdxsBM2HhjWt7l/ojamf036oi+k/IBxVrHsBAn7WZbU/W+zxN0eEPhlkjLeeAtMNAEriaikDhySY38qLhD2KH7RRanIpxoUtFUjRabBxtZCg70/13RGfp5mACQDeLWARLiJSh7VO8Twn2pQadaH2fV0ceyctJ6gKh+MdSi2unxMdLxpQoDZqU0uZrhz8OIO+mwaLYXkPxY95/5idP8/ZOAxGf6wVv47iue7bVw4kJN42AuYZmXqBEwB2X7CqH3fh93l0Od9JjAt1ouxUI2he7a5w317MwWwjJw77BMB5I5vbbnUox5+zfOJq/saKjT8ohNNsEb/7z0bIqup1TGXHIAUiIP55q696TrHPNt7m6AQo62YG9snD6g10qMSVAM4vFnkbQfNMgO9B4SUZsMOpAyudu42Z+elx75yw02eF2V/WaVrrfwAogdNxfDiDX62f2z6pZXLVymJr3cjmNq+TYzOTzQpdJAwC89NGyLox/GbVlbla+3XM+bByJq5DcqdonZr19wHcLFu94oMIP7RR7INWf/Ur6Xh/q9/zBpjHGMH2o6BwEDF7eTtxYL89dbILwPFJvroTRCF7UzV3M9MKAM9G/FWvg4hFk1K0hYPmD5n131AYCb3Sza5a08tG0Lws7PfcItpQOIwIrShnHvgEbCRR2tLeNxF3HrVyanVOknDuvmBVv/5d/W9j4IwS7tIKEP5uBMyDY2r9eSt9e6U1iawTACo6+5/FNrKyZWETshOAm60u60wjYF0SbnA/W8w9vbyxJgLA5w2ZjcT4C4CMXtUh4J9fdMbOXOPfo2CuPYSnVF1RF7KYgcsza4niE2j+v6pKzz3Fnkmtdra5h8PBf0zPF6OMzgdnjpplXbN0qtsqdJnXBaxTGXw3Mu38Y2wA+B0ASwgUJsVRkMNMJOIbAYCUcjFoEAEeaB4O4mEAjQawL2wEYt/OoDqsu6z7pdpZHZOXTR3SVkj95Q1YZwN8J7aQOKtYYWBPTuhXjOY2X7ix5q1iaVd9KHqSZrqfsxvrjwG0g7EWhE70Zh0loD9vjoO8C4GrAGQrcQ6B+bK68VZdT+iTU1f6Bmc9C+qyqUPavMHofAIll/1u8ymxm2W7V2ROl2brIDtxhhl0f1qdXkQcBp7F5j9Js+f8dTuU9/R8lmSxjrDPLTHYcr7oMRmh9hsAzvaVRw3gMwI+Y+ALgNeDKAGmgQTeiYGB2Jx8L1sfH7+8uTHKXeE+V7JJ5z9jm9squlg9w8AxaXjcOz3Ex66cOqQjF20ZGbD2dHTpJ3v3IbnmMwA7IJcHNQg/cWGgUT93dUPL5OHr0vVYJwAw4cw81+1RIJ5vBM1nHax/trShJlzMAzni8zSPCK34l5MHXkKMX2fgznscwK9a/Z7CCxJMxK3AFUbQagX4dmxeGNMqGwbucOnuGUsadvu0mBVtbHNbxUZFv2LgMgYVwhW4soRLnw7gxkKWe23IOoSZ/45MOZOI3iLogNZqnqey6k07xtvYRezqNKOjQepYAk4EMDZNC+Deypl4du/Ah4csadjt00LoL2/Q+jmBb8qwARAH6D/MHCEgzIT3wbSOFTY4mToTHHeAaSAUDVDgIQCNZEItmOoynJzHDaUWeJujUyON1S8UvJMhZJ6lGXcis7EbN4F5EUi9RqwXEavln2/sWb5m2vBtZyltYseoAe27a+iRmmkMAQeDcBAYgzNV0c0JQuLPe59eM6n3JkJ2l3OmB0BIzgHIvJ83aO4d8XuWQCgaiPRpdhKLOgkPi/SEVKlvailLBK17QTglw6/qYeAVBbwBplbmROv6jYnw9taHsYvYtXGtORJx1GkoA4rHEmNiBvZAX+dMq8saMqxp9Q+2u34JOWP0PLOyM47Z6clOTYu5OzZpZQ7sAWBzTHSleR5A2Qj10QXwYoAWAfweEd6PJ3hVOcWsT7vUpq/r/O4LVvUb2Kn6d7PL7XTQHhr4Dpj2UsBYBsYh0+GyGAfphOvF2lkdk9J1gIJ6hf2fAtL1bhDdrGPq90Udi60XY25HNSX0dQw+LS2bFsILzPhZMRjPtbPNPcjBdyR9gmCr44vnOgiXtviqW4taqZipLmiexEQ3IXdJf2wvTmG/e1yhin7ULMudcPJ/kP6A0h0guldT/L5lU4YuS3e965vbdtUOdTYzziKgKg1K+PLGik3HfjAxe6ePvc3WQaQ4uURHhDYwajJUpQ+I+Sl24HnVz/FSy8SqDXbXCE4kJhLjKBCd0HtyPt2sZ9YTIw01iwt2LQ1GfwnQDciMI3ctgGeYMHvDhtizadssMVN9wByfIJqqCCdm8MryEkecjsn26ereaz5RbD7dkszAvDHsd18GoWicL7py8McAkkxAQC+F/e4j8qktNk8AfhD2e/YoyHk1EH052QRmDJoR8buvzpc2DGta3X/QAOdMZpqUoVeYxHhSE+aVObHg3UmeznQ8dOwidnW2mwdD07GZXR/ope4y13FfjwXXm9zt5iSfc3vY774gI/Zd0LyXgB8nWewfYb/nTBQwvfNNCMDBqbsH8GoPuXy5uBEAAHVB8wAGQgAylf9BA/g3Mc1MUOKF6orqd9JxunVEaEW5Uw8aSwpHgflEZDZe4SrlUMemIzQPGaHor3qDYBcaJoGvbF3oeaCYs7F+ZSDNbR+h4/pX2JypLFlPMwP0MgO3Rvzup4pNNnVzzKNY41fYfPSZbEwIzxLr37U21Lxc7HrUO8HeAuCAAm2CjhF7VvqqOwpT/tEn03zV+kMCXf9FZ8+D2fhCOyK0otylB54Kwm8A7J6SbwO4L+L3/CRbsrflAEw/m0D0OCf0/ZEGz4vpjtc0IrSivBwDGjXT6QB8SOMpUwbaSatDw41VKwpt3HkD5u+JcGWaH8sAniXw33tow6x0x2fZhg6fAeAHSHt8KloWo9jRK33D1mR1TgyZdzPj7CR3Km3hDe5dMY0SEAoeo9k6AYqfTlpjCWe0+jz35uGG/LMki4kDMEcMa1rdf2ClaxbSc3XyG7Yqg/8FVn+r9FQ1Lx5HsYz3RbDtcECdBeAkpD+x1TsuJyZ9mV1aHIC5Z8zMT3fsLuueA+DANKz/L+m4asjVwar6kHmk1piViSy/DPyHmO+B0zkzPHlINNNtGRWyvqPB32PGWanuk7aCpaAmt/ir3kmpx41g9CmATixYy4HoLdKJi0vBeQNsPkGkXexnxiQAR2PrnvL1DCxU4JdZOx4pxE1b0hPI3PYROp74LhRNhsa4rU4kjA1EWKiBf3ECjy87zrOq2GVTO6ujxuFKXMWMM1HgccyI2FeISVm8AWsSEc9N0+M2EeFa2vDJTS3T6nuy3ZYRoRXlLgy4CJp+m9qCTceG/e75WZF/bh2AnQS+mx3Om7JhgGw2qKJ1mukKAN9Hb7iPNLAKDsch2WpDWjZFIfN3YPw6jY9MAGhSmm5oaXTn5PbE6HlmVSyBn4FxPpI+Pbft/k1o52HLG3f5OIvz4sFE/GrSRj3RpIjP/S8IBY8RMp8G44Qki23sLiurzmWGyi0hDsC+bMjzwwE4IrSi3MUDZwM4No2PjRPo4Tjj2uUN7vdzsxdavbNOuC4B4+K0OlSI3tIxNWHZ1CHrxQGYW/YOfLhTjMrnEZByxmYGz93QGT8xV9e864PtkzX0TKTXaR1nxuMA3RFpcOfG7m9ihzGgvRGaLwDhqPRuhPFJIqEP7c0dYe8RdUEzXASZ8JiAR3soflm2v17n3Knw9JrBKHfWgKiaNDQj8anD6fy85Yshq0r663gTO4zK6DBi7MpwlJPSrgTUFy7AXPpm1apSODUKbL5iVbGx/89Z44pMfFnJBcT0y9YG902FNUMxeUPW25SWDMv8slb6rExc9U3egF4zzMWue2xnLmesrPC467LxdTxHDkAG476Y4stzdWrVG+wYSUj8NV2bHAJerapwTyiEwOC98Rv/lMbOnKsc+EXr5OqWfGhf70bvN9icHT1NCUT4bVXhONzulXRbToSgFbERy/LhsN9zGoSCpleH25DkzRZmPBJp8Jyab+0RB2Bf5tE8cAAykxGyHgSQLh1iED2pKf7bfLDNvtwfUj/XL8H8M6QpqRsBC3po/RQXD/wpxAGYE0bPM6ticcwHMDoNjwturNh4UjbD8Xyj3wJtYwnqhTTuTzWInmJWv4n4hyzPG1t08/7jegBpC1nBoDVxih1k1+/lZGQsvlF2fQLAD13sPN4IWX9V/el32TRec0lv4O5PAEhA7K8zjRJh4ENs/lOSeENmo+rCzQzsmcP8RWlHK+0utDobwfajQOlw/uGW8ELPz/PFgb3SN2wNmP11ofZzGPznpI1MwoiNluUDMKsIh+ASTXTuMr/71VxWotcImlQXiJ7Mim5ONaYhA4e0d1nXArgin4VfF7JOYeZ0fSj4CIrPjUypDuVTG3szwv3caG6/k5S+m4GJaTCn9tVd+jE08dTsfUTkhwFcm2ShE2tndZxXCrGgixkdd34flHwAdSJ6QKQn2F4fguYfmShdzr/3WPOZkUbPC3m4P7y8drZ5t1L4WzpOITEw0cUDH2PQywQWRcoyo2ZZ7licnwUwKg2Pa6pwu08NZ+ED/JaonW3uQYQAkCbnH+EFaFwY9ruX5lu/RRrdrwOY4A2ZjYp79+UpN5eHueCaVTurY4IdO0ghsxmEsk0FmC/TXbqlLhidBmaS6UIoNeqbrX3qgubzxJidjkkm3yBNOxRepfmiVPdJTPSLsN9zcd6dXiXiVr/7LiJ1CAA71+mnFd8o5IcqtD5wmS+3zr+v09pQ/UQiofcBI2UnFgOX1QfM4/J4c3dAb6ZtSrmpzHfquGNUOM+cf18n3Fi1otXnPoqZzgGQDoeY36hsvzVb9Y9R/H5svlqdlL3ncMZPkhW/0Bd0snOK8+NwZ9XzIjzBDkbQPJOJLk3Do+IA3bixYuOoSGP1C/na3mXHeVaF/e5jCPRTAOlI8HA8gEtEk7K8twu2exJOfh7pcf496q5wn7I4R84/79NrBjscCAFIR7bfzwBcHH7TfVS4wbM0n/sw4vM0f9EZGwWiG2zYPFuwUHk/ciaeqW9qSfoGiMLmJAjFxq4MetwIWf82QuaBMm0IJbE4zF29szdo3qIVL07PSZB8heOFVNu9Ax/uBCCl7HLMdG7E5/5TPrez1Vf1tnLExjGSi3PIoGHFo5rYQODvhf3V0xc31nTlW/WWN9asDfvdDbz59F4qaz9pwt9HzbLy7jSuMbejmglPI/V4Mp9B03fDDdWFccqMiCMN7nu0SowH8G4alPk8byh6QTaqvtI3bA0DL9potFwBLmibpX0EbCQkI+BBSQAj2NK5OdHxAP6a+nyLNmY6Iux3X5ar65PJrg+tfvfdgB4NordSbz4PE23Kot42t+2qWb8MoC4Ndurfwgvdp+YqjMvYReyiMsczaQo/N98RJ2/Y77mlUEJ7rZk2fGPY575caT4Y9g5N/O96eGRiwOCkb7soAJ8X8ZjZH4xXjaD5t9HzzCqZQoRiZOwidhkB82KdcL1HwM8AOIq6waQK6spXQvXzAXClYGj9OdLgvqcQ2toyefi6yEKPn8BXo48OJi4wh+42WMegSa3+6qZ83whE/J4/gOi7AFLZuAxJuHBDXrWtiR2USDyS6jVnMFocROPCje6ZhaaEy6YMXba+M3YggIdTVhWmm2rnWKOzo5bJX+lkYELtbHMPCAWJjiemw8Yp3bjWD4r0hGTxPr1msNb0JFL9OER4HcoxLmfJBVIg7K/5cP2GnkOZ8YhoRGFgBNt2Y6UWgDAi9afxXeFF7p/m0lm20bKuTjZu6BaXf6Ibwp3uKUunuq1C7NeWxuo3Y+QaA/DTqdtquCDZWzlOAB9h65lkiwEF4MxYHCfXBazfUdfaW3ORNbNYGdnctotS6kwCTdnWFyFmbISiRdB4ONzgflYkl6aFIWAd3WVZfwGl5Uh4YcC6oOI6MutJKdxEfLeHNlxZUP0zg3QrMMMIRBeC6GFsJ0sppWHxywM+Smg9KZWMXFnfCPjcz9SHTL9mPAO7oUCYpxvBtnvD/pqX8mI+rLSuSMPp5/nd5WUn51t20WRYM234RjBP9wbbVxBxKsH2y5XmR3ZfsGp8pk+5uBz8VCyO25LURVIKPwTwe7EGCm0dZ6KQdYqNKGJvFNI8K+TRZrDccTcDu6bodrg3RuvPWzl5r+6CXh+AU70h621ivrF3nyzkId5gx0iGfg5pOXFJfwz7Pb/KZXvqQ+aRmnFZio/5gpmmRfzueYXevyt9g78A80neUPv/Efgq2N8skib83ZjbsU948pBon+ZDgEslecQOTPxHXTG4pS4QPVmmlTRMTIHo6Q5Sqwi4HuDDGdhza39AqAfz6SCebwTNf8mJzBQ3us3texkhqwnE84EScv4BYIWWQqovgcbbLauZL17pK0xDM9xQHXQQjQPw720I54UKt+eeAlfJDq0SxxbiprTF53meNR8H+ycBCazuGLuIXbluS32ztQ+A36Y4WB+rcLv9hez8+29biCMN7msIdC5SizUzql9X/4yf9Hx3kqeTQE/Z6LPTJd5zAdowoehhtmIUS/IPwZa+WdMZ9N0Urc+7wn73mYVqk/0vEZ/7TwychnTEIhPSzsjmNi9RYkFarlsT3RD2u3Pq/Ns78OFOmnEfUnM4m9B6YqSh8J1/37DV/O6rmfnHAFK5ETUEOvFPzOA+yVcR1GslNaIII5ioqS4UnTsq0GbIFGMPb9D6ORHdbzN19zGxOF4Z2bx2qEgyOcbM/HTHumD0T1C6Bcyl6MhOcMz5VqFUdkTok0EMjLRZ/MVlDdULCrmzlvrc74U73YcCOAtA+Gv/1AXQjRv7b5ySqyDEaeJzBXXssilDlxXsJqCx+gVFfBrsxgQk1HdZ5tm5bEN9U0tZQvEDAMrsPoMZj4Q3uE8tcH38Fq1+910g+glSiPlIwIXegDUp03XVWttx7uxVF7L2F+ug0FB24jf28KZYk8hOSAYj2LYbmG9J5RlMfFPYX30uiIoq9W3E7/knQD+GOAHzilGBNsOh1PMphzMBwExXhX3uy3PdpjiV34fUTuCu0AkcHG6seasY+zzSUP0ANE0DYP8DA2NC3bj2n/dpBe6hWAAovVzezDQpQerdupB594hQdIhMN33HG7R+TuBUExLs5VDxBeIE7CMzWBkha3p3WXeEQT9HCjHlCnrcAi8WRED+Xpy6ey/Y/NpFRH8rik6bRomw3/P3sN9TB+jdGRhdofWQggmevQ1/BUAnt/ir3in0LmrxVT8J5hSumtNldrKQpW1eqNz5SgL2sV99eiLS5T69WBMLhH3uB8E4OwVbjxTxHbsvWNUvk/WMNHheJOD95NcFSQZSSPTqUdIZnJlpduTEYZ+IBIXkULdjO6FItjn5Mf8p4qv+ZbFKJ+x3P8TA9FL0BeQj9cH2MQlSLwGoTn3LhJ9HGtzX5LpNvTcvp9pvCK1hxccuO86zqpj7PtzonqkY05DCSUAmvsY7J7r7dmfFlb5hawh4rUTHmZMZZ7tAYSNknYsmdkDYJmly/n3JXg4VX1A7q6NGJLsNmYeiRxjjrcVgfgCAu5RloUBPFFJ9STmG2ywaK+suCxafoVnzYcTvWZKPGXJtGCTXhP3u+cXTN54bmTDbZvHhumJwTpwwo0LWdxhkO6YMAa/G8MVpxZ5VNNzg+QeBr7Gv79izX1f/SzI7YRKD2EbyEv7BiNCKcrEWCoOKrn7HwY5Dhliu/wpJ2s9mIwC/7XmP6cnWRbmNm5YNIn7PP8EphtAQUtfXQNtYTfpZALukaqIS46Kw3/OXXLdpWNPq/kx0YwqP6NA6cUxkSvUHpaADLQ2e2UBKtzb6k6Y/bH8/DYAZt5X0iGMMBvMdRqX1dn3IPFKmoK1MTOl1/n3JXsopTsAtMSK0ZpgRjD5ITAsAjBGJ4Isecv6zkCpMzDaPu/PSd07Y6TPp8rxdM56LLKy6tqjaRMQ6oc8A8LHNJ1yei49ocfCfYT+r40cqTt8tlphO26PV57kagO0rlMS4MtNrtYJ6EMmfRNnZqQf5i6KTZrCqD7ZPNoLWbUbADBoh81Fv0LqqmELW2DyxaXkq3HNl8RH6Sn1TSxkxUnGAvLmhq2d6LjOmZpOw330dwA+J5uSG2mDbOCLHfDAGp/ioBIHPaG3w/DUf2jVogPNyALvbLN4FrSeXWuKn3lO5v07hEdOMYNvh27a1AIS73E+ACyuwfobYWzOeM4Jm86iQ9R0Rx3/JkPPvy23FSHEC/pfR88xKI2he62Lncmw2lCXA+WZuXekb/EVBbXQI9pLdkFop3Z23dLGDzyzGTcHyxpq1DLrIns5ihLey/fhs1tcIWscQ47gUDMsTlk51WyWjuUSsKtQZAN612ccDlEtfl8kqLvW53wP4FRtNm174dpa5tzHeel1DzwH4fBB8YHyfwDMSpFqMYPRB79NrBhdyG3sTwNmJJ/nPFyZSHILQR3Tl4HMB2N3LfaygpvZmzC2Z9SFGG84C4XXRnuxSP6f9UAX1PMA7pfioBEA/bvVX35cX7Wpu25WZfmF7DwU+v1hj/m2PiM99A8j2rTcC1C3b+ii/OTbVNEqQ4l/KEPyKhgRzS13QvL5+QfuAUhdGZp1/X+mqOAGZqS5gnRqLYxmA3wDoL0PxK0wdd9xYeF2KgfYsV71WujxfjWS+upivIkT87qcABG3KZnoWBxcx+Pe2ixMuLkXDsmVi1QaG42QAnTblflpdqH3fzPatrUyvU0Y2t+1SqP1SFzQPIOAlAPtv3aCn06jM+WJ9sN1TqO2Mx/F92IhhrLRk/xX6zojQJ4NAtq+0MkA/bvFXmaUmt5W+vboTmk4FsF60KEt77FD0CJ3QcwCb+4X/0sNM08J+d96c4tQOx00AKmwW/0vEX31/6e41iHVMnYFvJlBMhjHeAdZPtrqmfvl/Wn3Vcxi4T4biV5QzcLnu0su9AevsUo0PmB3n31faXrJOQG+gbWxdyHqZiR8CIIlRvmWN0QWFlPzjvzs2tpUYgZWcdMhTwhVVuY+pknmrTV0CG0GIiTElW0m16oNWIwHj7c0nPDcyxf33UlXiiH/IchDZ/eirGDqjMbFiyvUEgGTjhJYpB32/EPtjbHNbBQOPoS9x8Qj1mvU/Cngtt/ORYElLo/s/svwIfcXJsfNsX6Vk3FJM8X2TZXmD+30iXCxalI29nzWJmOaAkOpho24CpkUa3E/nS9tGNrd5wfxde5snestd4f5VqevHsqlD1jPwPQA9tsTIuGLCAnZu0ZD7+n9s6IydD2CRDMlvUE3EdxuV7W/Uz2k/tKQmpqw6/75S15JyAtbO6qgxQtb9RGohA4fIcNuiTtzReyqp8GrO9hx5xKWd7CV/N6+4dvE4ihV7O8ONVSsAftRGUVeZzo4TRhPPsFm0wxlXPwJRSWc8DE+puovBc20OhJNqZ5t7ZKpuK32Dv2DGzOTrRQV5DbjL4bgUycRIIvi8AWtSobWzPhStA3isjaJyOEHoM8OaVvcn4CKbxVvXd8WuLHUZtvo89wJ4RrQpcxhzoj4ifgap3/bqAqix1e+ZlU/tU0r9Cv/jZ+ojPcz8Iwn5sJmI37OEmezedtmjvcs8cYv98/X/WDNt+EaHM3EigFUi8m9ZlmO11i95A+bDI5vXFv0Jrdw4/76yboveCbj7glX9vEHzCuVILAPz6ZA4f1vZZ/Jcd0XVRQXbAMIGe8UwTno/37oSkUinu6lU2utgvh42spAx4YeZrlvdHPMogGxdQyXC5SUV92/rgmCH5nOQ/Ek7AHCSE5nNCKzoQRtjdPzI5jZvIXXDhAXsBPM5NrrvwoJbz9lW8o+4gnoUgtBHBg4o+xEAm9fk9bklFfdvGyS08wLYDRUhbGePbTZA09Own8DsSzoVoTHfTqyObF47lIBTbBa/NuL3LBEt+S+eyqrrQGQrZA1jy7c9vuWZXTpp6Gql9QSAlonIt2BzEU5xqPgyI2j+ZljT6qKM0ZZb599Xoi5aJ6A3YJ1Y0dW/hYDr0nDsu5iH25xNFZtOKOSvQMyw5WhgYM/6Zmsf0YF8Ukf8EdMoUSrNXdpQE2ZCwEbR8WNmfrpjRiun7Z7uoMWtb7rvF2XeTEtjzUdEfJMtSTLOyGTMvcibVc8CWJ1sOUXqtELqg96v83Y+KvuM5va9CqahM1ixjQ0hAXNKMRabkJLhdZ69YvRk2F/zkghwM8sbd/mYQX8USaSXumB0GgFPAyhP8VGfsaZjWnye5/OtjQ6VuAiAnRBIK1TnJzeKlnyTFyZSnBO4YPP2MGnGbSkjsNqaUdhd5jqACbNF7FukEsC1Aytd4bpA9ORialh+OP++Mv2Kygk4srnN6w1G5xDxUwzsKcNoGz1PuKfCXTX1g4l7bCpoO5Rg+6RRgvAb0YR86UhsoP6qqfTanfwpLACOnrLuIzI2jwasPRnw2xuOfH4xZm9Ohf4JvgHARzaKViilzsxYxWaQJuARG2vH6YUUs5mhzre7TLIjcXbBbHoPsCYCGJ5sOQ1J/iEksYcJRY8AMMpG0R6Hk64QCX6TDZ09N9pcH4QtYATM7zPoEdhIhPQ/0/+nSvOkSKM77zI2b06emvypdgBgpstbptX3iKZ8m819zTNtyZXUpf/7d1u9m/3+MTt/HvF5poLodACSkXLL7MZETUbQfKE+2D6m4BfOvHL+fTXJFbwTcGRz2y5GIHqHQ6mlBJosw2abRKHpxFaf55xiiLXm0NRqW/OJTzICUb+oRF7waMvEqg2l1mhH59pmED5J3qmBiRmrE/SPYC+uzKxWv+cNUeVvsrixpotA19mao4CMxtzTcNyH5L94D60baE0oBNnXzY3WA3yY7TWC6cyxzW0VhdBWm9d/18Xpi4CMUqHvkwadZW+DzLe2TK5aKQL8JmumDd/I4KtEEqljBMwzQHgEgDOluRRo1woTWhqr38zLub6TjwcwyMYi8Uo+JTHJy+lN6SthL0Ffw/+Gr9uuER32uR8s7ynfC0Q3wGYWkhLgCA292AhGHxw1yyrI4P356fz7SnUL0gk4dhG7jKB5kUM5loPoXAAOGSpbJcbArU7urg83umcWS6OGDKhqQSoxVIj+7g12jBT1yPUUpB8uxWa3TKvvAdsKBH5UprwIRGQrroxSfJ0o8pbp7666F8CHdvY0RsAclal6RfxDlgN404aaFMQ1YJ2gC5Fa/N8du0j9IO9toea2CjCfaGPifWylb69uGaFCXxg9z6wkYKod+zOOxC0iwS1T6fY8AhvhGISv7bFD5lkg3AN7Hy+/jqkcfOSyKe5387WtduNAs5JbT9tj2ZShy8CwczNHOVT8pG/8RV9KvXPCTp+Ffe7LGY69AQSlC7YsXIBOSzh4ZV0wOmNEaEV5oVQ8v51/XxmCBeUErJtjHtVlWW8BuBngnWR4bGvWx3Ng7Bfxey5a0rDbp8XUtBcmUpxsbGC/hgfQz40MWHJlPHd8UeGufr10hyeeszMF7r5gVb9018UIRQ+zEz6BiOe1TKleKKq8ZRaPoxgx7NkACpnN+kw2roAyn7T5GlL+MmbmpzsScGrq8sEF+a5fGx2OEwAMTFq1tJbrv0KfiSfoeFtxtYn+udI3bI1IcOvrA4hvE0nY3A8GrZ8S426k7vz7SDnUYa2Tq1vyta0jQtEhAB9jo+iiiK/6RdGWPkxXTv4z7MUCnPZN0y0JIv4hy8N+TwOYjgGjRbphi8bYAAZd5eKBSwohPmBhOP++Em7eOwGN5va9jJDVxBrPwl4cklJiBTFPCzd4jg43eJYWayM1cUpH2gk8zEH8VrHFGy0c+NliuI5ulzInnrNhbKj+nf1HpL0nSJ1kawxq9RfR423jdOFeAF8kPT8xfgDmjGWxd+pNjwFINhZspe7iE/JZ3t2u7h9hczzpVBnjDVgH5/kqaONEJi/P1ytuQp6u1My21geVgKwP26G8u989YGwQSSRHXcD6BYPvRGonvQHgA53AhHy/pl6m6fuwccWZwJJspo/0OoDtfJg/yAi27fbVvGfn5eEG97MVHve+AC4G8Ll0xxbZi4majID5bCavyKRCYTn/vpomRiqnfj7fnID1C9oH1AWjM6D0EjCLo2bbdBL46hit37u1ofqJot9Yx9QTAFLNHrsDEz1uBK3bM55hVfifXYWthbZoeHeSp52AZUlvqhR70z77MxpsFPswsqhqvijydvu5k4FHkx8e2LM2FB2bqXotadjtUxA12xi4+XsNmJlA9NN0PU4Rn5+vTTXmdlQz09HJ6xXdJ6NS6CsjQivKwTjaRtEXWxrd/xEJbpt3TtjpM4AfEkkkMfcFopcxpcOxRcsS2nnosuM8q/LeXCZbNwJWV1V4JPZfcnaXnZAFxHB89yu7we7LF4+jWNjvucXlxEgw/gZAMuttUdw4CoS3jID5l3zauBem8+8r1a/NJyegNxj9UaJLv8egq5B6WvdiRgP4uyNO32n1V88oldg+S6e6LQBPpWU2AZ/XXda93AhEz6tvaikTlcrGXl29LcYGtyZfhtIau7L3Q9oeyfcf3SuZf/uGQ/E/7JRTREdmduWwdRX0qFHzPh6ej3L2BtuPBbg2jZuBk/P1ZgTF9SlIPv6xdjoTj8iIFPqKE4OOsHP9l5n+KdLrqwHKj4oU+mqvRC8D0R/S8KhWONTE5Y27fJzvbd5z/rodAByQvGLRP1+YSHHRmr7jqXDPhY0EvYT/HlBK9T463p3kaQ83eM4mUuMAekm6ZYu4QLi4u6w7YoSs43NvfBay8++rZTvnTsD6YLvHCJrPEOg+AqpEzbfJmyAcEvZ7zup1iJUWjGuRvo8kQ0B0u64cvLIuaP6sd9EVMtRzcYez5MNdMFMk2TKakdYrwEx0rK2CDv2gqHHf6I2TmHzmck1HZLJe7krPPABmksVUIqZ+mI9yzsCJPZdy6TPycu4gWycxn106aagkHRCSmYTsxB2LaU7IyaM+0rqo+lUAH4skto0RiF6TFucf0VsJrY8ITx4SLYR2l3d3HwobyS6ZWT72JMkLEynO9g6WjN878OFOQBocgF9NDL6qt8N+9xHEPA32ssmVAm4wz6wLmH9FE+ckI2xxOP++mjZy5gSsnWON1qQXw17GsVLiYxCdHva5Dwz7PP8uVSH0xjhM95fm4QzcUt7T87ERNP/mDbSNFXVLOx+t9A3+QsTAy5O3XbFjOmtA4MNtFHsnMqX6A+m/ZOSMWTYKHZpJm+aFiRQnO5sEotPzbnMYbNuNAV8GxuhPxy5iVz61tb7Z2gfA6KRbAkjyDyG5oc6U/PrAmL+8sWatSK+PbD5J3ySC2Jo+MRlB888g+m0anrZIqZ5jCko/Sdn5EPhuxO9ZIspjR934cRvFHAkqPxxIowPwS1obqp9Y3xkzAPwWQKd00RY6jXCBUWk9Naxpdf9svre4nH9fSTPrTsC6OeZRKsGvglEj2rxVupjpqvWdsb3CPveDIOJSF0hC60sYaM/AoysBnEmkFhlBc2FdwLywPtjuERVMgz0DSGZAAORAh43N1cC0VWBzkomkEx0Q8WzpveTQ2k68PQzyVkTHZLRiTtiJCWfUBtvG5ZeEHefDximJPoy3mk3tZl59kGSyk/wDX1Rq/YyMRKGvjJ5nVgLY18YCP1Okl6TIWIvMtmKjeEPWzQAuScPDXtZxx5Etk4evKzAhHGFDbrNEeeyxrMvzEoDPkhc5JgAZcAACwJppwzeG/Z7f6bhjJBHugcQH3BJTB1a6nsjWSUAjGP1ltpx/BLzPhNkAvwwgC3HeuFY5E8+OmmW5M/2m+lC0jjWeshNrpIQIsOL6SIP7mjXThm8UcWxmeWPNWtL0U9hL395XxjHhVg29pi5oPu8NWGd7n14zWKRvD034RKQAKDjsnIJMmwPQG1q7F4AhSa9FhID0XnJEFle9YetDBTkyeg14c+Y7TjoeJ0HlTTKQYU2r+4P4Jxmbr0D5kwxkBismshMQ/onFjTVdMhKFvhKL67EAkj/9qtWLIr3k6FGdbwIQu/4bW1AmI9T+VwJ+loYN9AuqwuFbNnXI+kISQf2C9gEA9ku+vfysKJBNplECwCs2DPoDNv9PBlk2dUhbq89zDms6FMCb0lvfwl9XYd6Q6ZcYwegvAbox85MgVpLC0a1+z3ciPs/UsL/6cO6ODyXGbVmQpZFw8oJMOgG9T68ZrJlCACTm2pZZpIkODfs9jXLtbsuEG90zGXR1Fl7lYGAiEd9N5c6oNxid4w1Gf/Rl7Aehz3OaOAABIM52jNG0OQAVx/exUaxzSD/P29J5STKDNIGTNioJvG/mK0dJXw0lwin5kjBpUKXz+2Bk7oMMY4I3aO6dFxvC8R3HAhia/H5Qy/VfIcm5R42xUcwMN1atEOklR2/yPtnPf0kTO+pC7fcCaYjryght7L9xSsvEqg2FJgbdFd8PgDNZG011fvpvUaJUVIYW2Cg0ZsICdjqzUcFIo/t1MB9YFzRPYqKbAOwq3dbbD0Q/94asf0V87n9l4vlZc/4B7yZYH7V8yjfjFUROHPYJgAuNoLkSwF8AUAbrYCSc/PyoWdaRmUg0QeWOPwPYTbT2W6wF8Ltwp/u23i8SwrbmQ1/VNUbI3BOg6Vl6pYtAkwFMjlN5zAiaCwj0tNPJM9+d5GmXHtk6iiWMBQAklNpISHpopy/EhcKoZM/NEvCmZJazvaN+A4wTkyy1V8btpe74w1TuvBFA3x16jMGoGDwZQM6vgzPovIx3HfO5AM7LfVttXf/9oNVf/YoMQCE5XYMdp7ckrbTPywCOKHkpNLHDqDTvY1DKp8wJaO5R60/+YOJe3YUpDDXSRqGPuGLnqXWBqIwom2jGABtelf7RTe11zqzVkohbgSfqF7TP4S59JW++J99Pug9EzHeNbW4ble5rD96g9XOAs+P80/qobQUrDfs9t9QFrU0MvhOZdQLWJZx40ZjbMTGdmZPq5phHscZ0Uddv0A3QLTqufldox9VzPeLDM/jHxnirB8CZWX67C8CxDD42FsftdUHzJSZ6wuXgp8QZuIXFVYFFCnmwwWOMslFMvizbF/i/bSzTGXcARk4c9okRNOcgyeRbic0btJw6AL3N1kEAZyEeIZ225/x1V7x/zM6f56qt9QvaB+hOfVyyKsSg+yVesJC0xgOGDaV5TSRnDwX1qi7xyF4TFrDT7LTuB+iUNCjwY1X93ae9MNFTwB8saS8b0Y0MJpKkMimpjr3l0qG1V2W7si0Tqza0+j1XOpyJkQA/JN0HANiji9TZaTU2s5fwY7vOvy9p9bvvZs54DDQAXIuEXmDM7ahOnycAV4uafoNnHaz3Dfvdl4nzzwYzSId97rMJ+EPmx8PW1wAGJoL5jlgcbUbAfNYIWeemddwIQnrMnD2TXwZYrv/aXe7iLjuy2zkr8Ua1nWvAfFzOY6ESZyc+H2FAv56enGY/TnQlTrIRJ5mdhIdl9AlJT/WEPZIvQ2GRnD3iCb2slNtf39RSZm20moiQsvOPGY+4+7tPK/zbCjxSRkYhzZmqVuXq5UsnDV0d9ldP18xHAnhX9jf4xYjQivJ0PMobsM7ON+ffl0Qa3Pcw8c+QFSdgYm5vdrCUMIJthzNwiEwZABgtYDom7Pccs7ShRgyolMY8cavfcwWDTgaQayeqA4SjwHwHEok1RshcIAlEhDwaLMmHXlCOlSI3e/R+1Ek6jIYqd47IdN3UxrVBbA47kQxl1M81LVfyHD3PrCLCSTaK2loXGHReb+bsXI1XG1fi6OWlPvd7MvqEZNh9wap+YHiSHiNxlvh/dteHt9wfIisJHvOPEaEV5YkBg58A44TUt1O4O7LIPb0oQpVw5m8ACOnsLx6pcl2HZQ3VC8IL3fuC6HRbmeeKh6GuxCBfqg8xgm27EfGtWahv0s6/L4n4qm8D+EJk/uTT6Hicr0nZlIXjxzJb0KcALnZXuseEG9yStSmNRPzupxiOcQwszJMqKTAmfJlAxAiazXUh65TeLF+CkGWD+5NBACedvGaTy/m+SC+VdQ/JO1CJMu4AbJlW38OER21YvDnLBhyL4SwASX/gZeIrAbJx2oZrjVD70blo68jmtUPJRnwwIpbkH0LSDNhYMRTJJ7TsWbbJ/ZFIzyYzSBOwqtSaPba5rcLFA5uJcVwaFtgXIj73uZhBhX+XegYrEL4jA6OgGK7yQ3lIh33uB/v1lNeC6AaU6JcFUnxS6k9RF9kxNJPEtvPvS8L+6tvBfAEy7ARk0LmbN5D2mLCAnQxuKOFJIk6Ee2Kka8N+zy0SVD8zRPxDlnsq3AcDuBjAZ3lUNReABmZ+WHdpywiaj9UFzanpOq0sCNtVwETCTmb3tbmMgVYMMDjp01jMesesVE7byBTLOKh2zse1WRdkEztAOMtGfTfEUfYgmO+y2YPn50JvlIpPB+BIstjGTa6yp2TUCUlrOemdbey2VknCulTXB5TUCfvR88zKLlKzARyTJgEeXheyjisG2YzYf90ASE6HQqNG5VNt3jlhp8/CPvflCa3HMHhuCU6ok9NwbSPTE0rKzr8vCTdU35EFJ2B/p47b/hJubbTGAdilRCeIZ8nBY1p9nnNW+qo7ZL7MLC9MpHjY77klRjwSjL8ByDcDtQLA9xh4xsWDonUh825voG2s9JyQURzazjV0UwSXKip5GTKycko40lCzGDZCx6iEOiXbUvRWth8PIPkr7EQPrvQN/qK7vOw+wFY28sba2eYe2W4vAT+0UewpcdgLtvZNbMc+15LwLPX9asnsCUbPMytjCQRAOCqdCywzHvYGzb0LXT4upStlRBTcAK5W+Viv5Y01kYi/egqYjgGjpYS6ZGcjFN3VdukmdgDYPYOm3bJ0Of++ZLMTED/PqEGqtO1rScQ0pgQnhpXEPC3s9xzTOrm6BUJWWemr7gg3eM7WCexFhHsA5OGpS96JGWcTqUVG0FrkDVhnpyPepiB8ezoiGye4+VORXKqC1+uS39LQwGxVj5iSTyJHNB0zOKt2r7J5Eo+x+eTf+8fs/DnDVnIMpZx0TjbbWhtsGwfYyNjNJNd/BZvTFO2Q/Niy5VAXvklJJP/bc/66HWJxPAvGhPQvYhhAwOwRoeiQgh6DCQyU4VB4qHyuXLjB/WyFx70vgy5Ffl2Ly9xAIjXabtl6tDqQ/NWLZCzuH6XT+ffffvbczMDzGVRz+9cVmetLakEnviym1o9qbah+QqbH3LLsOM+qVp/nHAeRl5j/BGBdftaUxxLx3bE41tQFzetGzbLc0ntCunBotnG1hOQ0UarLPankZZilE4AAoBJ4CMl/HNnNu795WLbqOCrQZjCS3zgSsCDi9yz5qq0O/ivs3JRgPmP3BauydjWLoOzEWfw43FW1QEacYG+e4v425rb1IrlUzT5sKPYm7h34cKfynp5/ATgwg6/Z3aXxdH1TS1nBjkEdk/jgBddpWK3yvY6Lx1Es4nf/WTli32HgVuTftbg0T6qcn1k3id4K+zz/zuAL7sjL7iCUQhZUBvghBTUy7Ku+caVvr5KMwZmvLPW532ttqP7F+s7YMAL/JI+ShfwvOzJwRcLJHxiB6B2j5n08XHpPSH0OTt4BSGCZw1I2RThmo1jWTgEvneq2wPhX0rrBlLVkIAlyXAAg6bAuGnT71/+79yT+SzaqsEu/zn7fy0ZbJyxgJwHfS36s4kGJxybYJ/kP/My8QeSWotRVcZ+iHBGKDolR+QIA+2dhf32orhh8Z+EqA8QBWHjMVYVS05bJw9dF/J6LHKz3JuJ5RTupMuXnUVrN72S24XpxPjabUNwTGwMLWdMhYX/19BZ/lcTNymPWTBu+sdVffV/E79mfWY8j8J8B5GMmu34gOjcRdyyrC5rX7zl/3Q7Se4LtpQfkTHpeI6VFcimuDcQJW2M/m+uzvcyxJ49tbqvIdN1qZ3UMBPhUG0ZHW6W7ava3/pr5dlsyUupn2egLc6M1BUDSp7/jWj8oo02wvT6QdiY/xOQDUepbQtpUrG0bNctyu5ieI2CfLG42f2IEoucVpN8CzgoZEQXFeh133KQKrdbaSYqZVLH2ClOeXssm9M/k4x2MvJxA2MbX+0KCCJ0OoEvmw8Ii0lCzuNVffWnY594dhIMA/AXA6jyrZn8GLi/v6VlRF7BOlV4TbK0NxD02dicSjzL1Nd/Gx6/snqzpqtg0G6Bk4z0O6lTq+Ixvipzx6QCSjl/Jmu5ePI6+dfqyv8fzDICPk+8S3q8uaB6QcXVh2Jnj31jeWBORwSbY3xSqHhva6hLBpbw5KsrDEfXBdk/Cwc8ByH5yDqJb6uaYRxWazBKU2CgDomDYRMTfWzZ1SFvBONL2Dny4kxGy/sAJegvpSsOdj3Mq82d5uhk4ojfJSGbarSlfJ73ijhXCmKAVv2UEow9K7LZC3KQTh32ef4f9np+Hfe7doPVYEP0fgDcA5MspqCFM/JARNAMjQmuGSacJSRmXdk4aEMmVlJTXhuRlyJTduFAfTNxjE6Aft9G407Igv3NtlIpxQv19S/+weBzFmOkee8u8vUQkfaX3lHejjXEqyT+E1EwghaTXB+bsnlQuTtMTRfeRrb65bVfN+mUQchX73ckaTfVz20cUlC4kWGJqFkRH4QWt6IBWX/UcAHDme30nLGCn1WWeEye6Om/j46UTRfkZ6J9R461oPyMC3JPuR4+eZ1bG4rgkT0fMOjuxtwtN6wA6LeHkRiNgXl3hcd++pRMIQt5bZBwG3sLmP9eOnmdW9cR4ChFNAehYgHfKcQ39Lna96w2Zp0d8nmbpMKEvOAhdOtkpmCQmTRo2eAOSXvpYbchBRR8A46fJqQcdO7J57dDljbt8nIkqGQHraJCtBGJPLps6pG1r/1jm4rticVwJIMm4ZzRt1Czrl0unuq1MtLcs1jMNSPqWSA9vijXJSBNS2powOpO9pqMIg0RyqQpeDwQVzwUpI9i2G0M9D2DPHFdlZ07o5j3nrzvw/WN2LohkZqxcGyj59AwWmP8iAynDfUMqpgiWAv691Od+7+v/ltcOwNpAdKLVZd0M0Oji98H0mmms37VbtuXkupgRsjYhQ3F4iPgv3lB0WcRX/WK6nlnf1FLWk8A/CdgjgxbCF/YbjZZS0T0AO4Lwly7LPNcbNC+N+D0BmT4Ll3cnedoBPADgATSxo35gx0GJhJ5CxFMAGoOcXG/nnYgxywia/xf2e34nvSRsV2OgPk36MCvzQJFcyhvrgUlPEJT9zJBhn+ffdUEzwoA3GR+AkxI/AHBThgw5WyfuNNHt25vT64LmUwz8MMlHl8ed/BMA12emuXxasssJM82OnDjsExlpQmrzlF5HSTqiGKgSyaW8ISyaNbZ2trkHgOc4DftQJr6JNt9a+I19mwfesp7ux9DEDYWQIInj2JBspGYGKNJQfYMMpNyRl1eAR4Ws7xhBc6Yieh7A6BLqj3VhX7X9oP5EDOA/GaxfBTEFjWDb4el4WH1TS5muHNxEjOMyOjlRKglM+O0SXNlHEtBsBMxg7ZyPa2WaLAKmUaJlStUrkQbPr8P+6v3gcAwlwhkMngsg26c9CcC13qB5VybDCgjFssGL2zkVPwwzWIn0UhqkuyVtUDI25KiyDyW/yeIfZaIq9c1tuwJosLHp+88yn/vV7f1OM91usz9/OmEBp/2jv3dOdHeADk2+QizXf4WUcbKysz7UiORSZngxNKJ2zse1yoGXkZZDKPTHiK/6l2Gf+/8APJ7Sk0CTjQHtvy8EGSZcyZ/8J2DIiNCKchlGuSOvDOTR88zKumB0RoJ5KYDjS7A/5vU68VLh0QzXsRKsgnWBtsNSMpJ7nX8Apma4vh9FNnhesVu4osq9GMC6kpwdCD6lHUu8QfOWMTM/3VGmy+IhPHlItNXnuTfir57C3fFqJpwNxnMAEtlTL5xjVFoPiaNG2KaR0vlp1IZe9q8fG5V4k6nASDoOEROsXFQ1nnA+kLSOEOrrQu37pl1sSv0UNm7XEHBbX34XaXC/BtBiG1Xb1drQ3ph24SfUdCR5/I+B9kq3e54MMiHlsa9Vh41i1ZlwhpfY/mCvwl/juFZpx4sAhqb+KFwX9rt/tVk2xC4nzkj5AAnzZYWQQG/lmztvAJKOxUmO+EBxxOfSts6TQUhGyJoei2Mlg64CSjRAK1HK8VAqtP4bgA8zPPEPYKiQXSdgFp1/YPBVqRyh3hwLj0v5KqyLgJ91l3W/ZwTNi+TEVvEROXHYJxGf52/hBs/RjjgNZeILGViYpdf/oG6cdYv0grA1WqbV9wAwky7oUCNEejaZwQqUfCwkBb08F9XtjeW3IHnTU6c1GciI0IpyDZxho+hnLmcSH2+Z77Rnu6U/GQhR0teRQcAjEmdYSAfL3t7FBNCdZDFnR3fH7iI9e4yeZ1aCUV0Ee+5DAaQh+SH9MdLg+fXX/+bdSZ5OHXc2wE7m9q9P9cR/M0LmgfltL5AG472k7QUXGzKackfOHYDegHWwEbLeBPMDADwl3BfRjf275qb6kMWNNV0a+iRkOnttrxOwfk57Ulc/suv8w30Rf/X9KTdV0YMyVWBnADcbldYibyh6hIijOFk61W1FfNW3Rfye/cnBowD6IwhtGR2nhAuMQPQ8kb6wDZL+qMVMe4nY7GGMjw5H8kkddGf/Te/nbC/HyWeUZeCUsYvYla46uDDoe2Qvvth9707ydPb1x+u7Yv8EIfn4eYSjjIA5Km32e7N1EMBJhwlRWrL/Cml0PgBJh05KaC3OB5skemgEchJDOh+hP3518u9/WDZ1SJuGPh7AxhRe0A+MmSNCa/L7RoNC0h//WNNo0Z9cdlmOqJ3VUWMEow8S8SsAxpV6RzDRnz6YuMemdDxrmb9mETNNBvBFRitNGKC1nuttjk7oy8/HLmKXrhz8OLLg/APwuKfCfXY6HtQ6xfMcCK/LdAEAGENMLxhBs7k3cK5QpLROrm4J+92/Cm9w7wpNJxLwaubmEvpT7RxLjAFhy+sjsCz5MnqMSM7u0q7syG51umwYO3zR1fMUgM+Tayequkzz2PQpqq0Tdsxw3JVMgTXThm8E0732+hbnpG/atnWC8p2WRvd/ZJQJ6Vsf+L3kC9F+Ijl7aAf2ESkAAN24Neff1/fjAKU653pccM0a29xWkceySNoBqIC9RYdyR9YdgMOaVvc3QtZvlTOxHKDTIF8RAOCjMgfflc4HRhrcrzHTFGTaCQhUkqLA9pyAYxexq8uympCd2I6Puyvcp74wkeJpGyisrhE1/QYNyoEWI2heO3qeWSniKGKmUSLc6J7Z6vccCsJBIHoC6Y8V2E9pfkCumAtbMS6X2ihzuMjN9pbajuxW5LLGm51ieCp5NaHp6Xi/0dy2H4D9bTgv5kX8Q2xcnU7cbmceZsLpI0KfDEq1vfVNLWVQNC151YKc/hPSuzpALUm+DA4QydldHvgwEQLdGPa7L+vLL8N+90MA3ZiizPfrJMcDYM5Pn4nmpNd/BkSPckhWHYDekNk4sNLVAuZrAIjToHcMKKhzkrn+0Ve+5gRcn+E2VJKi2VvLDjysaXX/Lst6Allx/vFD4U73Kel0/gFAi79qLjKfYKXQ6A/gN7EElnsD1tmSzKH4Cfs8/w773NO0StQDmJXmx4/xDrB+IlIWtrBZW2KjmDEiFB0i0rOxitpyntLy3CuKtuNcOi4tSa4cjp/ZrLStrL5hf82HAObYKDrQxT0pxz5MVOzSAMbgJIvFFanHZIQJaR32jHdtzHIHp/P6f4lJvMQdN313/n01Xy+suoIJs1N6K/FJ3pB1eT5KRDnUMhvFhhvN7RKqJVd9lo2X1IXa9zWC1ovEmI20pNouJkMbf+11LmWEXidg5q8DAwMB9aw3aN5SO8cajSZ27B34cKe6kHXKwErXYmTl2i8/FO70/DiVpB/bIkZ8EVIM6FqkSlxDxHcb+1uv1M+JjheBFD/LpgxdFvZ7jgf0ETYzUm5Nl35Xv6B9gEhY+Obcq9/ZvFwmZy87tZIvzElSO6tjIIAxNjbhOQ+TEfZVvwwkHYy83yZXz7RU3juyuW0XMH/PRtEPI53uOXbfq6But1eSzk/1JAkRJ+1EJGBOi7/KlFEmpNcE5XdsFNthg2keKtJLjlGzLDfAI0tXAsk7/wAAM0g7+qtTYO9j5tfn0N/VBc2p+SaVfvH4WwB6kh67xBNlVOWGjDoAvU+vGewNmrcw64U2r5QU+0Qyx1PhvjTTb4k0uF9jnRUnoIuAnynN/zEqrXicytcx88MAshFs93F3hecnmXL+AcBKX3UHkWoEY4Po7hatsIO0pjeMkNVU39y2qwik+An7a15yV1QdyMCVSD4T35aMmyrdqc8UyQr/O/cCiCSvUHysSC9Jo9CljwLgTF7UiZdyb1IRM+ihpNtMnNI1YAfRGQD6Jb9m8p2p2CwtviHzYO/qtVE/x7K98fI+vWYwAJ+N7pGEakL67ZBF7laAPk1aH1XyOlzqaAeOQcmG7rLp/Ptyvp5YtYEVH8dAeypLNDMe9gbNvIqft7ixpouAhcmPQZ4soypHtl4mHlrf1FLmDVmXUrnzPQJ+BkDiOv2v3Qee63Lyyem+qro1Io3u17PkBMwFaY/5tzVafVVvM+gkAJ2ixVuez8F8sibV4g2al48IrSgXkRQ3L0ykeMTvuZ5IHQQb2Vq3sEv8ad7GORFyuWi+kvxkhO/KNa9k5czft1FqVUtjzUd5UX+lH0CSp0UZOMQb7LB3qmUGK5CtIO/dLhfdl+JcyWDcYWsjby9hyebXljm+B6AsyWLrurGhWQaYkHZmkAY46SRlxCQOwGSXB7J10rkIdjZ0QyrOv6/24lOqP3Ao9V2k8sGcMICA2fkW4kQzXrRh1/nSEoJDSN5USvcDjUDUryt3XkLMNwHYQUS8Rf5R6fYcl4m4f9uceIrTCZg1599Xcmxwz1OKJ6b4FafIF0sMIOB6Fw9cYYSs6SKQ4qfVV/U2HI6DACxN7UlcWx/qkCxzwv9MKWTnhNkuG9vNo0V6faM3oVODjb55MV/aEJlS/QGApHVFIf5DO++rG281wkZoGwI9+u4kT8o2RHd52X32biXQVCPYtpvNzbCNGIL02ErfXt0yyoSMrA9saw6qMwLmKJFe39g78OFOAErvVD3RDWGfO22x91qmVL3C4J+m+JjdXRpP1ze1lOWNnJStMVi+qWzT8TK6ctBd6XqQN9gx0giaARAFABopot0inxHTaWG/58zF4yiWE+O4uJyAWXf+/XcCr17odCbGAfiXqPU2GQ7mB7xB87l8O7IupJ/w5CHRGPGRAMKpPEdz4kSRpvANneiJzYGdrKeM74v0+kZPHFNhI0Gbhn4xn9pB4KSTgTDodDsnjxmwdZKOlL4jHW19/5idPwfxwzaKOkDqrGQL9QZtTzqDqtJasv8KGYPBc23OFT8S6fWNOMpPRPInfwubNDv/vtqL+6vvB+PmFOt2qK4YfGe+iKrMwa8CiCU/BumHMrqyT8oOwL0DH+5kBM2bCYmlAPwi0q3Yx8A/XE7Utja4H851ZSKN7teZ9ZF2YmbkETlz/n3J0klDV4d97skAzgLhE1HzbU3wOJKAt4ygdXtv/CChSFnpq+6AVlMBfJaCYXOUSFL4xrp14rBPwJx8ogmmE+WKSZ/naTubYc1xZ159CKMKxxM2TsXtXheMJpUUoNcZZueE6ZstU6oXpqu9ivBXJJ8kB2CcvfuCVcnFLlR6OpKOAcbLWxqr35QRJmSKcINnKWyEIGGiUyVMRF8nVj69tNqbGeffVzrb5f4FgGCKi/ZPjED0vHwQ17uTPJ1g2LmpcfTI5javDLDsYt8BOIOVEbKmx6g8AuAiADKBbsXQA+GQsN9zZjque6RtM9VQs5g5cUyBOgFz7vz72gLBYb/n7+Xd5SNAdANsZEEqIZwAn0flzpVGIHpZXh1dF9Jr2DRWrSCmC1N4xL4TFrBTJCn8j8WSfAwxwoDu8k1ni/C2TX2ztQ9sOLMIeHHZ1CFt+dSWlolVG0A8M2lnAFRSV1tZ6QtgJyA+0e1pba+vuhWwtfEaUtFZcVLfG8xEwA+Tl2uKsQ4FoS96Rphto5h7o2keL9Lb3voQ3R+gw0qmwRl2/gEAplEiRq4fgtGSYl1vqZtjHpUfYuNH7BRzKLpIRllq7L5gVT9vs3WQN2h9t35O+6H1c1fvvG1z2gbe5ugE73jrLTA/QECViH2LfAyi08M+94Fhn+ff+VjBAnUC5o/z72u8c8JOn4V97ssZjr2R6hed4mdHEP1BV+68xAhE5dRwkdLqr3oEwBs2i/dv7zZrRYrC/zggHsfmE/XJ2pcXyQeHbZMg/iVsOLM04dG83L8pSv7KKeF7Y5vbKvq0IV7QPoAAOydi1m7s39WU9vYy23IqMvU9GYgRih7GwJ7JqojTmXhERpiQcTQ9Zm8M0JWSeGw7onWoX5RMY7Ph/OtlpW/wF1qjEcDaFB7jZI2m+rntI3Ituk1l5U8D2GRD6NPldpg9RoRWlBuB6DX9u/q3k+LXCPyk1vplnXBZ3oD1xMjmtUO3VC4pB+CoeR8PN4LRB0nRAgIkSPuW6QLRDapCecM+94Mg4nyubIE5AfPS+fcNefqHLA/7PQ1gOgZAqwyHbU74I0EUMILm/PpQtE7kUXRGFBP4z3aLs1Z7iRCFrxP213wIsnHSiVGjB+wisQC3YdsRYZqNojFsij+dj21qfcO9AECymYkHdZE6rk8b4o18GmwkuiPg7x9M3GNTuttbVemZyaA1NooeWBtsG9e3nyobyT/w7NJJQ1fLKBMyb39XvQ5glY2iY4xQuySL2greOdHdwXxCKbSVQTOy5fz7kmXHeVYB+rtI7QbZzpzQzXvOX5fT5KubY9KSnWzvFarc+QsZbckxep5Z6eKBz4PotwAG/s8/O4n4JKUS/x4ZsL714a5PDsCxzW0VdcHojETcsRywk/2rZAiw4vqwz315y8SqDYVS6YJwAhIey3fn3zc2qg3uZ1XnJ/sC/CsUV9blTHC0ZnrbG4r+cUTok0EijuKhv+YAbH0NBMB6qEhQ+PZSgIdslWO+akRoRblI8Nsk4o6rYC+My7zIicPyM/7tDNLMsBNzuW82LvO5Np6tEwnck4nmvjCR4kT2nk1Q240h1Rsr8KRkn82AJP8QsrQ4EBPxQ/YK69+KALe2dqoZAIo+JAuDZkT87qtzsmf017wE8M9Tqz+8ZT3dj6GJHTkW5T9t1v+iEaE1w2TE9Z1YHHcBOHjb6zsPcxDP/N9Yp9t1AHqD1ne7HGoFg64C0E/EvUXxLtZEh4b9nsbIlOoPCrEFee0EJDzm7u8+rVCcf1/SMq2+J+yv/qMjTiMB/AO2rq6VDGXE9Asnx1u8QbNBxFEcLG6s6QLwli1jgJVcBxC+hdOBx+2sUwzsWaYHXSgS/Cb1wfYxAH5sp6wizmvnDrG6H8kmxyAcWx9s92zTLm6OTgBgJ6t98+bTHhnaDEDfBaA7eRMLPxwRig7Z1m/6b+w/FcCOST76i0qtn5FRJmSLRMx5N2xkIgXosPpQ9CSR4DepC7XvC+aiP/iTS+ffl4T91beDOaWsvgSabAxo/30u26E2rA0BiNoo2t/Jzmtk1PUNY07UB+DUPv58dKfZ/g07b6sOwPoF7QOMoPkYgZ8Eo0ZEvUVMIpwRXli1/zKf+9VCb0xeOgEL1Pn3dZZOdVthv+dMIjUO4Jdl2Gyru3kYAc11IfNuycxWNLxv07nQX0Qn/C/vTvJ0Avi7LSOf+P+259wpNTT0H2EjHjQB77ds8MzM57aFG6tWgJBsDGZnArztRBekzrdXo/Qm//hfVvqqOwh4ykbRctf2nMAMO06AJ3o/AglCVuhNSGQrDrdmujHprNhFDjPfjFQShhZCG/PA+fcl7krPz8B4LsVOu6wuZP4kV21omVbfA+Zb7O0BMb0uaB4gI2/b1M7qGAhNdyW5p5r+jf/e0o9GNq8dqrv06wC+J2LeIt0A3RgjV22rz3MvZlDRnOzKKydgETj/vk6rr+rtsM9zBBg/ACAxcba5fuHsjZb1lFzZKwboC5tKIA5gYSskbgdgZ10YqKF/J/LbTF0gejJsZP7t3Rj+CdMokfezDyefDITAP96G4V1DxFNt7DJXhhdWPZfp9mq26WRkOm9rV8dGzzOrABybvOy1XP8VcoD+i82Ce/TfWPFLkV/v+hCMTgP48KLea+SR8w/YHMpBOWPTAKxIcQ91uxEyD8xVO2Kq7E4An9so6mDgXtn7bUdIrsRNAIYnp+vY9+vJjr7lABwRWjPMqeIvARglIt4is5RDjQr73Zet9A0uythu/3UCYl3urPbicv79t13E4QbPYxVaexk0A4B8Hd/6ZNVYxgOfyIN4FkJqPWkr+6omtV5kJ2yJsL/mQwCP2Sz+E8k+DhhzO6qZ6A6bxTvWd8XvK4R2bipzPQZgY5LFRtU3W1tMdKcc8Z/CTrxEwm3Z+FgcaXC/BmCRjaK7eQdYvi1u5uL4gY02f9Dqr35FZishB+vDS2C2p3vM/+cNtI0tdRmOnmdWadBfi7yZz+ST8+9LWiYPX+dgPRX2HGhf0g/AU1vLAJtpVvoGf0GA3evMdS4MlJicWxNO0JzKjLNtFO2PJ/7r9/uGA7B+QfsAFztmM7CniPhb3ogWgI4N+z3Ht0yuWlnszY001CyG1rlxAhar8+9rLG6s6Yr43Vc7nAkvCI8h2ThFJTPs0GhUWn8USRQwBFux/Ij5cxGesDWUQ10Ne6cACUT3lfRVYGZCIvE3ALvYLH7bmmnDNxZCU98/ZufPAcxOuo2kv3Xltb6ppQxEZ9moRpeTux/M2pRL9jZeCryVq83JJ/9j0P0gErtGyBV/sFnOSaTurW9qKStZyTFTT5wfIKCqyFv6Sb5WbGlDTZiZvmfTxvlyEq5xOBKzxza3VeTG9Fe3wHYSQFxWF2g7TKaxb2IE23Zj4F6bxc2v39r4hgMw0aVvBWhfEfE3VPhTMF+uuj7ZL+x3zy+llocba97KuhOwBJx/35jkJw1dHfZ5fqA0HwgkHauoVLhETuwUsjEJr71NrDgAha3TMrlqJRh2nSpDGPqer1+HKCXqgtYFAOzOqesczp7bCsqKs5GshIlOnbCAv5H5MlE5+CQASTuOGXhoScNuWQur8sWG2KOg5De3zHRs7ZyPa7/+d/WhaB3AyZ6IYifZysAsCOnZv/g9IYAW2yw+WlcMvqFUZeedY55PoMmiRbkl0uCex6DLUrO/eb9OcjyQC1unxV9lwv4pQCeTetyY21EtmrCZzY5cmglgZ5vK8OzX/+srB6AxJ+ojm5ngipQ4MW5Tjp4R4YbqG1qm1feU5CKaTSdgiTn/vjFRNla/GV7oPgSMMwFYMvy+tYO7e/Q8s1IEUViMmfnpjgBq7ZTVZC95iFA6OFyJGbAZRoGBRm+wveSumRjBtsOZcJPt/QTxVS2Th68rpDa3bvD8i0Frkizmbt9oHvNNEwW2kn+wsn3V2hZrpg3fCCY7pwRIJRw//cY8DDXdxmNeXupzvyczlJBDm5GZ9KUp7EcurgtYp5aa2OrntB9KTDeJAuUHEb/7z0S4J8WhcJI3ZF2ei/p3l5VdncKethqJ+OOSEBLADFZdDsf9KRzS09B889f/YrMDsIkdSNCNMtS+2hg8z8B+rQ2eCwvN0M0EWXEClrDz778DnHS4wfOPGLlGAvRHAD0yGr9iaE+MLhUxFBax8k1Hw2YGOYeKLxEJCtti6aShq0Fk96oXiHhGKW3yamebewDqSQB2r7e1VlZ57i64hk+jBAGPJm8L0lfOr/pg+xgAB9uwKF9eNsX9bvYbnbgdQPJJWgg//upj2wxW4O1kRN7yuJLkH0LOifiqX2RK/vr/VyOX+J5Sigc4MmDtqbV+GoAkYMgj+le5LwDhhdS22PhdXdCcmu26v3/Mzp8T+IoUan5Yl2X+vVRva3xJ3TjrFjCfbP8JfE+4seatr/+NAgCjwjoZhPqSH2WMlcQ8LeL3HBXxe2Tz+TUy6gQU5983WOkb/EXY7/6Vcqh6ED0hEvlyU4GL5RRgYaGZTrE3FdMa+fgi9IUYvrgR9jPmERP/zRuwDi52Oe0d+HAn5aA5AIbYNpGYfr54HMUKsf2K9P02JqLje08xQ0NfYHPhuj0X7Q37az4kIGSj6A7xOJ0KAHUHWBORZKZBABs3ucqekplJyAsbRNMlsBuHDOhPpILeYMfIYpfTnvPX7eAgbk5lfRAyw+JxFONN8ZMApHKqWjHjYW/Q3Dvb9W9d6HkAwBsp7P6mGyHrT6Xa/0bI+i0TLrAtPeB9HXf+6lsK0WvlnF/i4+sLEF8WU+tHtTZUi8NlawZlJpyA4vzbKi2Tq1aGfe5pTDQJQKtIhHeKxfB9kUNhsDl2FI6zNy3oN0WCQl9Y6durm5kuhP1ESv2IEKhvju5frDLaO/DhTjEqnwdwrd1nMGF2pME9r2DXU191K5LPjtuvu6z7pL0DH+4E4Ac2XhutqHI/nTPnB9tzPjLzhWAm5uSTfwB4qjfxiiDknOUN7vcJnEo8PzchMb++uW3XYpXRnvPX7VAe65kDoE40Jj+JnDjsE0V8HFLJDEwYQMDsEaFodp28M0grxRcC0Ck85RJv0Lqq1PrdGzSvAPM1KTwirjWdumzqkPX/+w9qZPPaoSA6pFQ9CgA/pKBqw77qG1f69uqWaWbbpNUJKM6/vk38Pve/3BXufZjpHAAdJS0MwjTRiMJAM90Im9d/me1f2xFKcI5scM8D4+8pmAI7aaLnvM3RCcUmm/q5q3eOUfk8AsanMPF+6nQkLih0WbCtq6l0WgL9zgCQdCZFAt+TyxOTEX/VvwBaZmOdra+bY04G84k2hCzXf4W8or/b83sk7/z/OrtqpZ71zonuXozrQ3lPz7NgHCSakt+0+KpbifgHsBPa4b/s7tJ4OttZrlumVC8EcF1q2z+eYQTNP5fKdWBvwPw9pSoz4usije7Xt/RvSlHCD6Dk7lYT8CqzHh/2V0/vzVQj9JFwY81bSvMUpOIEJHogvMF9qjj/+sYLEykeaXDfw91xA6A7UlwACpmJuUppnyq1cz6uNQLRy+oC5l+9IfOsUfM+Hl6snWSErOmwn2U0EVe2rq4JJUxMuX4B4KMUjIIBRNRcG4hOLJpxOLejWsddL6Xm/AOYcebSSUNXF7xANiUeRdKxdfkwJrYTfzYW166/5dbQJQbYVhZGzXQ/gIFJSQq0Jryo6nmZjYR8YvE4ijlYTwewMYXH7EVMr+biCmWmGD3PrEokXM8DGCdaUhi0+qrnMJBa8jKiQ3XF4DuzXXd3hftqAK+l+JhLjDnt901YwM5i7eMJC9jpDZp3EeHKlLoZeLWqv+farf27ItKldvrvYxCd3upzHxZpqFks04k9Whqr39QJjANoTpJFO8B8fnhK1Y8xjRIiyeSInDjsk7DffX5C61E2ZF8MuDY5nfsVWqXrAuaFSjveAdEfmHABMe5JxB0fGCGrqdjiy9QH28eA2X7WS8LLK33VHTLahWRY6Rv8BRNPRyofRwgDFNFcI2SdW+jyqAuaByCRWJiG+M7/iDTk7hprutdPgAPJ29Hw2NhkPbO8cZePc91mHXfcC2C9jc1DVbJlFPghzCANQcgzljbUhAFckdJDGDUEvFQfMo8sdHl4A21jY3EsJGAf0Y4CW8f8nusBPJzSQwg/MQLR87JZ7xcmUpwVnwLgs9TGIZ9udVnPjppluYutb71PrxlsdVpzCTgnxf5tY4fj5G0dslIAjS6RMdNF4KsrtB4Z9rkf3PxlVEiFZcd5VoX9bp+DdR2DLgXodiLcs8U/wPXQdOL6zthu4YbqO0T+qbG8sSYS9rt9TDgOqQWGLThYc0ElLDKC1mlMuBVAv2/vl/hkQmKpEbRuy3pcjkwsXsGOkZp0EIDtZC3MdJuMcMGWYeyrfhHAjBQfUwbmO4yg+dCwptX9C1EOdQHrVAYWABia4qPe03HHJcWkIypLV1QZ+vZ8aO/m2D/8SDbeFdf6QZmFhHwl7HPfykxPpviYHTXjX3XB6AzMYFWIcvAGzR8QqZcA7CpaUZhsrNh4FoB/p/QQolvq5phHZdVGm1L9AYHPScOjjki4+K1iSuBWG2wbR+XOhSCk2ifdxDgxPHlIdFs/coIwHMXtimEATUrrX7U01nwk00b66f2yFhZJ5GLD62keEVrxLycP/DkxrgRhQPG3mncrlJqObW6r6AL/eTs/cwF8vovpNG/QvH5DZ+yWNdOGbyy0XvE2RycQEk+BsXMKj1kV6ax6Rka2YHuTt9B9nTHOOggEX4qPOnVApau2bm70x62Tq1sKoe1jZn6646ay7j8z+MdpsJw2KFInhbcQPLqQGVLpDlldlgUgk6cHWiNTPC/lS5sV4a+acQ4yG+7njeWNNRGZgYS8hYjjoU/OcHF871QSIgFwMOgqY7w11jXPPOPdSZ72gnAwzOoYSM7EH1M+XSTknA8m7rGpPth+gt6cMM9uOCEnazTVz20/oGVy1cps1b3VX91UF4juz0SXpvQgRg0Rv2AEon+IqQ2/L9Q8DhMWsNPssn5JwFUAylOe5sDntvqrt5t1WYGxUxFP9m8R6yPCfs/3xfknFCsrfXt1R/ye6+F0jCTCPUgt01Lew6BBhVLXTqWOBLBLH38+iIDrB1SWLfcGoz8qpK/LRtA8kxTNA1Jy/oGAmyU0gJASM0jHlOsHAJambkhhPCfobSNk/SHbQbOTHoOBqH9TWc8SAn6chscliHBqi7/qnWJTjxcmUhyMRzNqeoL+mk+3HFp81a0gvJhhe1uSfwgFYC8P/kKRPhGpZFP9Lw2xBFqNoHVavre7LhSdopyJpWly/nUAdLtoU47ndX+VSaSmAuhM4TE7c0I37zl/3Q7ZrHvrIs+vQPREGh7lAtFvXXrg4rqgeUCh9aERMEeZXdWMnP8AACuwSURBVNZrvck+Unf+EV/T6q++ry+/VbCZpTHPscA4M/xm1fjWhpqXZZoQSoHw5CHRVp/nHKX5IKR6NDyPYRRO8FdiTvqKBYGHEeg+Y7z1tjdoNuSzI9AItu3mDZmzAPwNQIoOElpGnZ/cJSNZSMcmTydwHIBoWgxM5ssSlYPfzMfYT6NC1neMkNUEogCBh6Vplr2o1e+ZVaz6oUhl0lm1voec/8y7NoMzuWHv4U2xJpl5hEKgxVfdqggnIumEQFs0SAcD/KARNOflY4IQI9i2mxE0H2KmENJz5Xe9hvYBvEI0Kfe0+qreZqbpgP27nAx4y3q6H0MTO7JW8Rmk1Ya1pzKQnqRRhHoGXjNCVtPIgLVnvvfb6HlmZV0wOgOExakmaftvR/Kdrb7qq/puE9gIDpzHxBi4tbusrDbc4PmHBCMWStK4aax+M+xzH0zM0wB8WGztI9DnhVJXBVqTyhpBQLMx3gx7Q9ELamd1DMyXdu05f90OdUHzekBFiHFcmh57Ycu0+h4ZwUI6WHacZ5WC8qXLxiFgH814zhs0n/M2Wwflun0jm9cO9QbNuxLMYTCfnLYHM24O+6uL+nRHi7/qHQb+k4lnM3DfSt/gL/KtzUP6e57h1Najbew7aPbmBCuCUCBzgM/zPBH9BEhbEKxjCXjHCJoP1c4298h1+4y5HdV1AfOvgFoO4NQ0PbYHTCcu89csEg3KHyIN7qcJfE2K+6rJxoD232d1DE6r73E4YicjfSHEFJhPdhC3GkHzz7WzOmryra/GNrdVeEPWpbE4VjHoKqR8cOKrDnwsvMhzQTJFnABHARpY6AOACbMpoX4Raawqqa8SY2Z+umO3MzYEDj1Ya+7vVLC6UbYmHw3QXCyAKhYfrkkNAgBNic8Qd7UtmzqkregbT8StwBOj55mhWAJXgHEpvp2EolDHenuh1NXhwnM6js8BpHC8nkYS46/kTPzOCJj3OaDv6Y27mROng1PFz+eennMZ2DGNj24K+93zxZQT0mpg+qveqQ1ZU5TmuemKj0rAkVD8mjcYnatAd1VVuIPbyrSWbryBtrEgdRYhfnra53SiB8ILqy4tDe2gBwH+U7qXJ631nfnY2hcmUtwIWfeAcU36Rcly/VcoOFp97keMQHQHEN2G9MTHVABOVQ58zwiaM4n1bdm+hVYXat+Xmc9EIvEjJlSk8dGawKe1NnieFc3JR132XG3MsWrB+L791YsvqwuZy1t9nnuzZqNNHr5u1LyPJ+m4418MeNP02HIAlyhn4gIjaD5JwC2tfs8bueyfEaHoEJems7sIFxJzuuMPP15R5Z6e7KE3J4hawBhZwEbcMij988iU6lApDPKRzW27OJRjCgFHMvjIbnRvPtLNgCKCZsCFGIyg+QXA/yHQq5qpOeKver3YM++OmvfxcB13nMCgyQAORCKxk1aELz/wKSjAmYARND8D8CYT/cuRSDxRzPEh353k6QTwmxGhNXe52HEdQKcis4HAM46DqaWQ5F8XMm9kRjq+rO0AwsUJqIuNoLkEQBORCra+OeQ/mTztXDurY6DDoadq0qcQ4scwkO5rAquc3P1TMeGETLDM5361fk77FK11M9LotCbQZAYmW11W1Bsw71NO/memkoWMmmW5Ey6cCOBMMO+XEUEx3xle6L6gVG5OlDn54VgcfwDgSuNjn8vnRBgx6LtcoF8jDbGGvlIboL3S7Z4nM41QiIQbqu8wglEC6K9ptI1dAKYxqWneoPkfIv6nA+qppT73e5low+h5ZlU8TicycCazHpuBVyQIfFarv1qu+eetK4R4fdPqnwyodH0nlSulzLjdCJmtYZ8na2Gklk4aunr0PPOIWJznArRvGh/tAvADBn5gBM0lIHrCoRNPZusAxYQF7GzfaB7DjB+A6WRQ+g/hEOj+1s6qMzEu+djpTmYsJOCEAlT3dcSYUVVZdWc2v77nipHNbV6HoisBmgZweR88eYMAOoyBw4j4ciNkvYuQ9Se1Ye1jxXbNzhuwDibiXyXiaASg+nCif0cAxxLzsVqpG42AOZdBv480uF8rVv1Z6Ru2BsB0b3P0Xii6mYB9CrQp7HDqtwpqXd7wyU1cObgRwIFpfOzeAPZm1tca460ODlgvEvErgH5bORJLWyYPX2f3wXvOX7dDeU9sf4APAHA4kDicgXLKjN+4m1mfvKRht0/FghMyRcuUqlfqm60JWvE8pD/7azURruQEXWkEzdUA5iniefGY8zW7p833nL9uh7JN3fsqRZMYPCkBHgPO3IcbYv5Tq9/zSzQU90fCr/PuJE+7ETTnAWhI4yYsr69Or/RVd3gD5pNEOCVdz1TghxePo5jMMkKhEvZX314XtOK8OU5mWj9wErAPmPZJgG8wguY7AM1XzK90K359pa+6w84zR4Q+GeRM9OynFE1iomNjcd4X4EytDz2K+JQWX/WToin5zZppwzfWzuo4npyJNwEMtfmYfmDMHBFaM75335i19XjP+esmlnd3B0B0aAZesTeY906QusYImmGAXyRSryhH/KWlk4auTtdLRoTWDCvTrglMPMnqsiYDtEvmpEa3t/qqLrR7uMupSM1l1tcVkI5rgB+JES5d6a/uaC3yAT16nlkVi+F3IPwkxYVpNJgfSFTu8ntvyDwv4vM0F7psRoTWDHPBeSuYU3FgKxB8BPbVBc1mDccvIv4hy4tVnyKN1S9gBu9n7N9+KphvzMBmOLMQvf3uJHd7IVW5ZVp9T+2sju8qp34e4NoMvGIIEZ8E4CRAQScUjKBpAlgG8EdMsABlQmO9Iv0ZGMxAlwI5NFAB4sEgNZw1vkPE9ejpqUV2kkMxgc8NN9QsFtNNyPg4bHT/p35u+6E6oecD2D1DrxkO4EzNdKb672nzVjBaQPgIwHoCf6GhvnAwxxg0iKEHMdEgAjwADAAGenqGQ1Hvp6zMHtgm8NWtDdUzSlEnFPEDmildDsCP3P2rAuF8bzTT7SBOmwOQtHpQZheh0Gn1u+82QpYF5n8C6J+h14wBeIwm/NLFBCNofgDGe6TwnmasAtM6EG8gTRtJsWbQILAeCGAgE9XQ5iuSBjj23/WBM/rN5jMwndzil2u/hcKyqUPavIG2qUTqJcD2FXCPC65ZY5vbDlvcWNOVrbq/f8zOn49tbpvURepJgKdk8FUGQAYz/zQRd8AImusArACwgkErCfwZUa+tptVnW9m87EDMLoB3A6ldAR7BwBhiVHHmv6MmiOny1gb3Tak8xNnqq3rbCJqtAOryfu8PLEgounjZFM+7xT6Ixy5iV5dlnReL42oQdkifDHkYGLONkPWEU286p1BP3tSHoidppr8hjVe6GGgkJCbVBaJ/3VRefu37x+z8eVEq1wzSYeDBMTM/nd1d3nM5mC9GGq8EZXTvwlyQXyGXTR3SVh9sn5AAz83S6UvP5j+EzWsRA4TNh4h6/Qn66zMrMyj7F8Mv6Wu6ekFIBy2Tq1bWzuo4RLkST4KRjUQeOwI4GISD/7vOEAgMTb3jEpSrmAydDJwV9lc/WrIKsWHdbFQOXgsg5a/0DNxVCLdRIo3u142guQjAuDQ87p2WRvd/ZGYRioGwz/2MN2AdTcRPIzsfx3cHYXdmHEUA8KXjQHHvxx/Gl4ZZttcIAt5XrBtyFW9aSGGOb6hZXBeI/oiJHretOsz7dZLjATBPy2b4sMWNNV1g9htB81cgug7ZOYyw8/+3d+9xclR13se/v+qZhAQEAyTdMyTKLcl0BhUIF7kTEJN0d8iiSx7WB4K66+1ZBVdZZEUl6K7K+ugCrq6rKALusxrWFc3MBAgSVuSyEC5CZqonhGvCzHRCIJDM5DLd9ds/grrrA5LLzHRVzef9esE/SbrO+Z1fV536dZ1Tko6XdPxvf3Z1/+39kr/e9+O//c9H7jvq2mym87tK2Z/v6Uf9NrDXxTyfn5TZOV3F3Bndc7OpL/61tPeVBip9KyVdLQ1d8e8PvtznVm3sPflb1zclLz6VKyK3xRralxD81hg3+/SY7dtX5dv7/kKLPEhrnj16zoSNYSF7WS2KjpRsaQKaPGiZzA8TW3woTuob06CT3G3UL6Vw6bNhMXcNUzWMtO75E3uy47KnyuyqURyGJ6PATiwXc/86mnNhx3YoNhT7Wm1vqNoPktJvMw3Ni0pcvPwDqVIuZe+tRQ0zJd0/isNw+3bzd1L8S66uUtPNJn11z64T/qctHZXL6nCB8rDUdJVL8yVje6DfX3BXSTqhq5j7+VB8WiBJjQ36rqRKDHvbb/Irt4zfckRYyN6S9qFtaV8/Ld/e12bSEslG4sUsedVq97Qs7T04KTHKd/T9rckXaZiL7SZNkvS9/LF9K/LtPaemOe9WzWsuh8VsQW5nyRXfF2y4fhjOmdib5Fg/NjvXXy5OWmCyj0naNAqvYFXJP14u5r7CxRz1ctcsq4aF7GVmdr6kgdHVe1va4NuOHQ0/pu7UJDiKhqKItXjl/GwlKX1+ZfPgv8q0YU/P5YEFPyaDkL458YHPD9qm0831j9qJTcVTZJvLPh0WsnN2d39CxEfXg9nPSdqjYpFJX5reUTmpHu0vF3NtQVQ7UtIDjKbfFIzPzAxLuZVDNvf57U2pmz4fo55GLl0fKDi8q9i06JlZh2xN87C+re3ZCfn2vqtNtZWSiiN8+EOsZssOXfbifnGPU0tH78flunyEb5aOkoL/yLf3LZn+i75D0pyHYSl7x/hc9iiXfVrSxpg1byDw6G/Tcf9t3lXMfkeZzHTJbxpFV7BNLp0TFpu+JSAOE+RC9l8yHh0j032j4ftnrovCByeVeOnO73XOa3pA0p5Nqk2JOqetXTBli9y+v4c3hks7i5P6yCCk0erC1G1dpdwnJJst6fnRcDk0C04oF7PfGMklnxhGiywKxgfnS9qTH/sygfxr9bs+Nz83Pps9We6XSdo6CkfxFXO7ICw2LeycNWnzUH7w75Y3ludmr3P5rfXuqUsPemQnl4u5D6Z+crHIg3xHZeGgjS1Lulg7Xlldh4KEDh87OPi9OIcq39H3TnP7Rh2bUAoy6pzR0XvlzCU949Oakg8dY4PlYvYbQWbwMJeulVSLRcNcl3fOa34uTbEO50zsDYtNC910tqSnU32uc3Vaxk8oF3NtzMoQJytLzWH4QPZkd/uIXJtT+v3rCKLoiK5S7ptaZBGj/ofx8R/twT9+JCzkErhcsPbtPbm+RzKW/yL1wmJ2mW+rvkNmNyidTwNuN+krW8ZvmdlVmPQII54unbMmbfbA57u0+y9PdJ0wbUlPSz3vS8NS01VBJnibpNH0Qpq2IIre1lXK/mg4Pvz3+5uZedVqH5Kppz7zU1vr0v8uF7LHl+dlU/9r/PS23ln5YyuPyP2GV5eb1nsCfG5LW++FcYxV6+LOMYp0nepVIP29ce72hYEgWJXvqCyUu6U1PzvnTHmxXMxdHCg4RtJ/1LMtZn5bOJD9ZlpjXS7klgzaprykTw3Bsqy4qZr01cFg08yuOU2dAuJokUXlUva7QUNwlFwdKepZRa4/C0u5Ytp+QBlKUa3hJu1mMcykRF6bwmLzs6bdzvUXq/YKP+ZgVCi/Z/KGsJB9v3l0mvb0aeEYcenOwPyormLus2lfaTeq83du0zOZIHivpO27+xmZTOa4+t+XTlodFrLvNtOfS3ohxUP2XOCaHxZz84Zz3vY/XnCwujB5rSLN1sgu/9sis6u8GswoF3P/L+2PHh9x2/NT8u29NwZmd0p6e5zaZoF9vXX5un1iNznf+4CPydQaoyYdJPcbZnRU7p7e3nNMmvO1szjp0bCYO93cF0h6dsRzUipnou1/pgVWS3OcVxembguLuX/Y1jjmMHe7IhWFQPdfu0fv7Crm/mZ1Yeo2pmHJZRrc9fFzJe472zln0uqwlCt6ZCeadE+Ch+xFk1+5bcyY6WEpxz5tb6B7/sQeM9+NJwvspXGR/ySp/Y7cdnPpsv2Yc/qQznOS+1Su2W4UjjyRudNVar47Oz57lLt9REleFuzqVGTvKRdzZ3YWmrp2L2d3fdzNo2ErMpr7rrfHlOr7iv8xt5k76dcm/+ju50z0ppicb7yrkPtBVM0c6tJnU/bQxMtyfa6xQTM6S7lfDPfB/r83nIal3EqPrCBpuDcAdUmLgyhqCQvZy7rnT0z1hvgzl/SMn9Heu6hWzayS7IKYXhQOiAaiD8Uqbiu8UdKn4hkunRQoeCDf3ntja/u6XJrzt6vUdPOm/sG8zL4gqX+EDvtErZo5czTtV/XUWfu/XC5lvxiMCw52s0tUh6LrEHgyMD83LDWdUi41PxSXRgVWa9jlf+P+IrenUnZ80/OSdu2mzfRMUvtbnpe9r6uQPUWm87Rn++eM+ATSZYsGrfGQrmLToqfO2v9lsnfnRL5bS1qve2hec2JfIlMuTrpdsu5dPi8OzYtTUuktDRP6JQ3u0lzSbGOCu7zr53m3xC41vWuWVcul7Hc39Q9OfXWOlqRC4OPmviBckX17OC/7sz07X+76uLsN61Y3uzxXjuSPj6ZzU1ex6XqT795WWhbEKs+750/cVC7mvtKY0VslfVLxfJHtztpupu82NmhaWMr93WOzcyNyjx283uQ3yAQnSuoalqOaPWwenRYWc/8r9ctS3C3fXrlgIBM84bIrJO0V6/aaLjm844mxcWnOlkrf+ZLeEuuIyS6IFK3Kd/ReGqfYDbW1C6ZsCQvZL0XVzDQzfVfD+au16b5M1U7pnj+xR6NQ56xJm8uF7NfD/uxh7vbeHW8G3/3H90fICpnOy47PtnQWmv4tbo0b53po138ttKXc0u646THzu3YtdL4s0Z0287CQ+0lYzL0jMJ3ppl8opk/qmFSW/NIG33ZIuZi9cnXhgFfI2l2zuX/wFu3a6peqB9G3k57jkv/TLv6rB159cQpe51wp6eFdq0RE/5nYFJJ2dSn4wN5euzsN8+FyIfv1oH/DoZItlDyuRc3IzG8z6U/CQvYdXaWmm4diH9jNA9t/JWlXrjORB2oftjxs2OU8dHnD7aPt/NTVn7t0N+a1W4Ng+6/i2J/HZuf6w2LumqiamWqyjylZbwx+3t2uCBS8tauQ+8hjs3PrRvLgf3QPs5krvHGgr+9TMvuShmL/NdMGub4U9mf/Me1L+iRpenvPMRkFV7t0UqIabnZOWMjeEoem5Nv67pDpzMTEzrXa5J/tKjXdnPb8bllSOUGBX2PSsUP4sVWTvmb9GxZ1LmjdLvzOkT976c3bx2w9J5IWmOxM1X9PTGnHI+s/NUU/7Co1x35SP6Otconbzr7RzO8Oi02nknk7tHb0nRG5frmz1/ogGJzWOWdKqp6gbL113eFRLbpQ8gWSTavztWazm252s+93F7L3kKFDcH5o71306g+1OzMAN4bFpguT3ufDOzbs26jBUK7mnel0ZHYK+fYGedTR90F37exblj1QcHRncdKjiezsIg/yx/atkOyonbu90OVdhdyX0zju+SU9R3smeL9J75PrgPrex6nHI/3QI13XfXZuWJ68y3dUPi/3L+7c5UrXl4u5Dw5r/Nt7fyrZe3by+vmDsJT789F4fjp02Yv7jd2+/V5JM3byFPWdsNj0scScf2/tbVVVH3Cz8yVlY9a8mlx3BYF/Z+K43C2v/mBUp1PETpj+i75DMg26zF0flNSwG8d5weTf2jpm7D+MhiUp03++vjloqH5VsvN3NsaxYnZDWMi+v+43W8vX7RMNRC9IStxTdS7d6YH9Vffc7GOpTvZFHuSPW3e+uV/h0qF7+GnLAgWXJnYiPIJa/n3tAcGYzBkuzZLZ6ZLyI3j4Xpndbh51vNJfXbJ2wZQtiQncYs/M2Kev3d1mv8HffDaIolN5ccIf5F1H79fM7ZI3muCY+byuQlOqn56c0bHuKHm0wF3zZJoxQtf6p820zOTLqoMNt6V965QRn3Ms7hwT7b3/HZKd8gYT53K0rXpy+T2TU7H/UMuS3tMtsKV6oxUqrr8KS7mryZQ3vs607F253aQz3nCuaPpmuZC7KMndzS9ZN1WZ6L43Knq5/NZM/4vz0/7j7o6HZ9ad5oGfba6zJb11hA79uLuWBKZfdD2YfXC43/g+c4U3DlQqHZLe9UbtGrTGk4f7yfRpS3oOzFhwn0yHv8E97sNBsP2stP1AuSuO6KgcVnO/X9KBb3Cte8oyg8cmMVYzV3hj/7q+ExXZu2U6y6SjJWXq0JSqSXe72c2ZQf37yvnZWCxX3qUJ6/Sfr2/ONNT+1OV/Ktkxksb9kQLIOjPdqZot3rLPwNLR8IahHZPHAz4m6YuS9k1wV54Oi7lD692IGe198126JcFxrJrrO9YweEXaLzQzV3hjf6VybiD9hUun6XW2F3gNL8vslsCib3XObXqQO4fdPPe0r8tFFp1mriNdOkJSq6SDh6AoMSj5SskektnD7v7rcjGX6H1TDl7+9F57DYz7tkkfeJ2/siJjdt7KQvZJMusPL+xuLR2Vz5i0SK/9w0yvu32gXMreNprCMm1Jz4EZZU5R4KdJOkFSyxDMAfpl1u2Rhya/V55ZFs6b9ARJOLwmL14z7k17j1kk+SWvfR2zpYMWXbi60LQ+Tf1uXdJ7XBTYjyRNfY0/HpB0cVjMXUeG7Jwjf/bSm7eN2fYTSe/+I3/t++Oz2Y89dIwNJj5/djwd/S+SXuttodskfTs7PntpPZ94qWuxRTpJ7qdIPlOyvPZ8O6htMj2sSP+pQPdnMrV7V84+aE2d5lNXm/Sh1zpfutu/7TU45kOPnjNh40i05+239U0arNoPJZ/7Gn8cmfTjWjXzUX48+905/2a93jZbZg+rZuelZd7Reuua/b3acKabnSRphsvyJp88DIfaZDv2jr5b5r+qDTb8Oo75tts3h6cv94b1m9e11jL+FkW+vxSMlfkmmW1oyFTDepyI6qmlvfJek39N0iFp6M/Y7WMnjNQJ+/Vj2vc3JqVgqYC9JPmV2fHZb42Gyc+rv8K9ywOfaZHNcNPEQDrApX6TXnHpOTOtNOl+bd7wa5b6DtPFbvm6fbS5NsMDa5KsKXJNMtMkySea+X7uVpXZgNwjlzaa2UZF0Usu9SnQM+b+THZ80/Npzdl8R987Jfuo3A/aMVPV04HU1lnMLkn72+j31G9/DIzcTjHzN7u0RtIdm/sHf5aoJ0KHOUbKVKebgqmScgr8QHMdKLMG9+hNJmtwt40WyE3+kkvrFemFwIJyLaiVy3Nyz5KH9R2/oKFWkHymyQ5y15Muu7lcyt6b1j7PXOGNWyp950RuZ5spK9MLLltRVXRj2gqeI8LdWjvWz66pdrHJjpO0v6Qtku4JTF/pLOTuTFt/W9rXvVuBF811iEyDkj0SDQbfH637Ob+mxZ5p3Xf9IVG1Nt0Da5Zbs0mT3H0/C2yMXPvI3RVYv9xfkWyrWbRBsmdrkT9tGT2d2yu3Nk5zsyPaevJVyywwU6vkDeYqRx79tF4vgmtpq5xopvmST5eUMenxahTduGpec5kE/L3Ji9eM23f8mPe6+Wna8aRqv6Rn3W1pecWkZcP9FGm9Hbrsxf322r69JXJvURAcaFG0n5vtZ2b7yX0/Sfv8kRPeK6bgFTdVLPLno8C6M7VaOSkrh4z038NJ4tLK2zORX+3SrHRdx6Nj6v0Gz3x73/ck/UV6omrdCqJPhXObOvjmAAAAjJL7hZ+vf1P3Iwf2p/2mGgAQbw2EYPe03rpm/1qt8QqL/C+9PmvKh5VZZv96t8Hlky1VNWqfrsja8+19t2TMLmGJIQAAQPqx7BAAEAcBIdg1M1d4Y7697+KoNma1SRcphcU/SZJp77o3wVP7K+mf1NzDlva+aw7v2LAv3yoAAAAAADCcKADughlL+84cqFQelnS15BPS3FePYpAbpjTvDddo0kWNPvhkvr3vYi32DN8wAAAAAAAwHCgA7oT8knVT8x2VxR7pDu14wyZGgiX/zWg74UBJV+f3rtzf0lY5kUEHAAAAAABDjT0A/4jW5ev28YHaJa7oMrnGEpER5j6a3oB4jJnfk2/va5Oij4fF5mdJAAAAAAAAMBR4AvC1LPIg31FZGA1Eq112hUTxDyOmJAVd+Y7KV1uXr9uHcAAAAAAAgD1FAfAPzGjvOz5/bOVeud8gKUtEUAfj5f6Z2oCH+Y7KQrkbIQEAAAAAALuLAuCrDu9YOznf3nujS/dJOp6IoN5MPlnuN+Q7KvfNaO8jJwEAAAAAwG4Z9XsAzlzSM37A7BOK7HMyseQScXS8S/fm23v/JVMN/nrl/GyFkAAAAAAAgJ01qp8AbOnomzcQBJ0y+yrFP8T/u2oX1DK+ekZ776LDO55gX0oAAAAAALBTRmUBML+k5+h8W+/d5vqFpINJAySGaR+XXdHob3p8RlvvuQQEAAAAAAC8kVG1BHjakp4DgyD4vKS/lJRh+JFgU91scb6t75eSPhmWcisJCQAAAAAAeC2j4gnAmSu8Md/ed3EmCJ406SJR/ENamM6U6ZEZHX3/PG1Jz4EEBAAAAAAA/KHUFwDzbZV3DVQqv5F0taR9GXKkUIO7PpwJgu58e9/FWuwUuAEAAAAAwO+ktgA4fenz0/Ntfe0yXyYpz1BjFNhf0tX5vSuPt7RVZhMOAAAAAAAgpXAPwLe1PTuhGuz1GUX+VzKNYYgxCuXN/NZ8e19bze3iVaXsU4QEAAAAAIDRKzVPAJ6+3Bta2iofrtrYbrl/RqL4h1GvlDEPW9r7rjm8YwPL3wEAAAAAGKVSUQBs7eg7ozJQecjM/1nSRIYV+J0xJl3UqMGwpa3yYS3ygJAAAAAAADC6JLoYcERH5bB8R2Vx5PqlpLcznMDrcDWb+T/nj638Z0tb5UQCAgAAAADA6JHIPQDfflvf3tWq/3Vtx1LfvRhGYKcdY+a/zndU/i2o1S7pnNf8HCEBAAAAACDdkvUEoLvlOyoLB6ta7bIrRPEP2B0m93OjIAhntPcuOnj503yPAAAAAABIscQUAFuX9h6bX1q5R+43SMoxdMAeG++yK8YNjFuV76gsJBwAAAAAAKRT7JcAv63t2QmDNvbrUaT3SzKGDBhyU+R+w4yO3vdFpo+W5zY9Q0gAAAAAAEiPWD8B2NJWObEajF1p0gdE8Q8YVu4222r2+Iz23gVEAwAAAACA9IhtAbClve99Zr5crmaGCRghpn1c9uOWtsoXCAYAAAAAAOkQywLgjLbK+SbdKGkMQwSMODPzK/NtvV8kFAAAAAAAJF/sCoCtS9ed7ObXScowPEAdmX2+pa3yYQIBAAAAAECyxaoAOG1Jz4FRFC2WNJahAerPzK9tae97G5EAAAAAACC5YlUAzATBtZKaGBYgNsaa7Hot8oBQAAAAAACQTLG5qW9d0nucpPMYEiBufGbLsX0LiQMAAAAAAMkUmwJgFASLJBlDAsTxRGGf12JnX04AAAAAABJ5Xx8DLe3rp0k+h+EA4smlQ1vHV4pEAgAAAACA5InHE4AenSee/gNiLTK9jygAAAAAAJA88SgAmpdG8RisIQ0TJRrFfS+cvtwbSAEAAAAAAJKl7gXAmUt6xpt01CiM/YDJr/Rt1aNIw0RZau4LJD03Cvv+pvUD648gBQAAAAAASJa6FwC3yo6QNJqeKnLJb4yqmaldxaZFY/Zu2EoaJodJUVep6eZgfNBq0lclbRtN/a957R1kAQAAAAAAyVL3AqAHOngUxXuFu50cFpsu7J4/sYf0S67OWZM2dxVzf5NpqE2V/KZR03ELDmb0AQAAAABIlhjsARjsn/oom3rc7SPhg9njy6XsvaRdeqycfdCasNi0MHI/w6XfpL/Hvj+jDgAAAABAstS/AOjemOL4bpXp7xozmlYuZb+rRRaRcunUXWpaXu7PzpTZ/5FpQ1r7aen+vgIAAAAAkEpBDFrQn9LYttXcWsNC7nOPzc71k2qjwAKrhYXsP43dNvZwmV0laXvq+mjBZgYaAAAAAIBkqXsBMJLWpymgLv3GI58VFnPzVpWyT5Fio8+j50zYGBayl2U8OtLMb0tV5zzawAgDAAAAAJAs9X8JiNVWpSSWL0r6ZLk/O7M8r+kuUgsrS81hV6FpjtzOkqszHScMCxlZAAAAAACSdj9fZ92bmldL2pTgGA5K+oex28ceFhZz12iB1Ugr/HdhKXtHMLDhaHP7a0kvJ7kv1lh7hBEFAAAAACBZ6r8H4I6C2Z0Jjd8dlvGjwmLuU4+eM2Ej6YTX07mgdXtXKft/fVv1MJeulZTAQrF1r5x90BpGEwAAAACAZAni0AiX35KkoJlUNvNCWMyd1TWnqZM0ws4qv2fyhnIxd7Gi6DjJ71ayEv8WRhAAAAAAgOSJRQFwc3/1J5I2JiBeG+V+2XbbdGRXoWkp6YPdFc5rfjgsNp3qprMlPZ2AJrt78ANGDgAAAACA5IlFAXDtgilbTPpOjOMUSX5TY4Omh6Wmq1YXpm4jdTAUyoXckk39g61yv0zx3gvz5+XixFWMGAAAAAAAyRPEpSGWGfyaZC/FLkKmu4LIjg6LTQsfm51bR8pgqK1dMGVLWGq6KtNQa5X0r5I8Zk2sBZEtYqQAAAAAAEim2BQAO+dMeVHyS2MUmzUyuzCcmz2jc172N6QKhtvK2QetCYu59wWBHy/TfXFpl7lfzXcAAAAAAIDkCuLUmLCQ/b6ktro2wrXZTJdvGb9lWljI3igzJ00wkjrnNj0YPpA92eQflNRX5+Y8Ps79C4wKAAAAAADJFasCoMx87PaxF0jWXYeju+Q3RbXM9K5C7svPzDpkK+mBullkUVex6fqompkm2d9LGvl9J00bMmbnPDSveYABAQAAAAAguYK4NejRcyZsHLTBd5n01AgedkVkdkpYbFrYPX9iD2mBuOieP3FTWMx+JmPWKrObR/DQLwfmc1cWsk8yCgAAAAAAJFsQx0atLkxeu92qp8ns4WE9kKlHsoVhIXtcdyF7D+mAuFpZyD4ZFrIL5HaWXJ3DfLjnosBO7Zzb9CCRBwAAAAAg+YK4Nmx1YfLaxoyfKum6Yfj4re76cjAumB4Wszexzx+SIixl78junT3SzT8h6cUhP4CrI1O147rnZh8j2gAAAAAApEMQ58Y9NjvXHxZzH3Kz2ZJWDsFHRjL9OKppRrmUu7xz1qTNpACS5q5ZVi0Xmv4xyAxOdelaDc3+gGvM7YKwlCuunJ+tEGUAAAAAANIjSEIjy4Xs7WF/9kiZzjNpd5bq9rt0vUtHhoXcn3WfnXuaoUfSdc6Z8mK5mLs401CbavJvSHphNz7mMXf7yKb+weldpeyPiCoAAAAAAOnTkJiWLrBaKP1E0k/y7T1vNQ/OdtMJkt4h6RBJ4/7b335R0irJHlakO6IouKN7/sRNDDfSaOXsg9ZI+vThHU98tkH7nhZE0btldrRLMyRN1O8L/Vsle1aKOiXdn3FvW1lqDokgAAAAAADp1pDERofF5mclffPV/yRJkxevGTdhfLTXAXu/ZdNds6zK0GK0WV2Yuk3S7a/+9ztH/uylNw8O9gx0LmjdTpQAAAAAABh9GtLSkbULpmxZK21hSIH/6dFzJmwkCgAAAAAAjF4BIQAAAAAAAADSiwIgAAAAAAAAkGIUAAEAAAAAAIAUowAIAAAAAAAApBgFQAAAAAAAACDFKAACAAAAAAAAKUYBEAAAAAAAAEgxCoAAAAAAAABAilEABAAAAAAAAFKMAiAAAAAAAACQYhQAAQAAAAAAgBSjAAgAAAAAAACkGAVAAAAAAAAAIMUoAAIAAAAAAAApRgEQAAAAAAAASDEKgAAAAAAAAECKUQCss1fGbKnFMjHM698uUxS3uLhUI2sBAAAAAECSUACss2dmHbJVUjVu7aq5v1L3Rrg2x2/EfBNZCwAAAAAAkoQCYDy8ELcGmVnd22QxjItkL5CuAAAAAAAgSSgAxoI/EbMGRZv7B1fHIC6r4jZSJusmXwEAAAAAQJJQAIwDt4fi1R6FaxdM2VLvZlgUPBy3obIgepiEBQAAAAAASUIBMB6DsDxO7XHTL+PQjs6HJj2ueC0D3ti5KUcBEAAAAAAAJAoFwBh4eWBwmaSNcWmPKfppLBqyyCK5fhafuNgtWmC8BRgAAAAAACQKBcAYWLtgyha5bo5DW0x6Kiw03R2X2Ljb9XFpSxRFN5CtAAAAAAAgaSgAxmUgGoK/lxSDp8vsazLzuMSlPC97n+RxKEg+UJ7XdBeZCgAAAAAAkoYCYEx0zpm02qUb69oI1+rt9sr18YuOf05SfYuSbpeTpQAAAAAAIIkoAMZI1fwzMm2o0+HdZR9fXZi6LW5xCYvNv5L8pro1wPTjsJS9gwwFAAAAAABJRAEwRlYXmtYr8gtVn6fdri2XsrfFNTZRteHjkq+qw6HX+Nbqx8lOAAAAAACQVBQAYyYsNbWb/IsjeUyTlgf9Gy6Nc1y650/cFAXBuZJeHsHDbnKPzim/Z/IGMhMAAAAAACSVEYJ4aunou9ZcnxiBQz0waI1nrS4c8EoS4pJv7zlVHrTLtM8wH2pAbvNZ+gsAAAAAAJKOJwBjqlzIXSSzL2g4lwO7OoLxwZlJKf5JO/YDjCyaJalvGA+zXqYzKf4BAAAAAIA0oAAYY2Eh+yUFXpK0fog/elDS58MV2XmdsyZtTlpcuovNKwIFR8n1y2H4+P+oRQ1HhYXc/WQgAAAAAABIA5YAJ0DrrWv2r9Uav2zSByU17slnuXSnuS4OS7mViQ+Mu+WXrrtA8q/I1byHn9Znpsu75mavl5mTdQAAAAAAIC0oACZIy9Legy2yT0p6n6SJu/BPt5m8Te7XdJWa705bXA7veGLsGN/3/S59SPKZu/JvXfqNyb+3qb/6g7ULpmwhywAAAAAAQNpQAEygmSu8ceu6yimRdIbcjpZ8mmT7Sz5Brs0ybZK0SrJO8+iujLbf8XjprS+Nhti0tK+fZqqeJdlJMpsu+Vvl2keSybRJrjWSuk26N/Bo2cpSc0hGAQAAAACANPsv5vKmfpQ1YccAAAAldEVYdGRhdGU6Y3JlYXRlADIwMTktMDctMDdUMTc6MDA6MzkrMDA6MDCYvssvAAAAJXRFWHRkYXRlOm1vZGlmeQAyMDE5LTA3LTA3VDE3OjAwOjM5KzAwOjAw6eNzkwAAAABJRU5ErkJggg==;" vertex="1" parent="1">
          <mxGeometry x="1025.3" y="436.5" width="140.39" height="33.56" as="geometry" />
        </mxCell>
        <mxCell id="Qz6fXgYHEP6Uw-YGUnhL-35" value="" style="triangle;whiteSpace=wrap;html=1;fontSize=17;fillColor=#f5f5f5;fontColor=#333333;strokeColor=#666666;" vertex="1" parent="1">
          <mxGeometry x="960" y="436.5" width="40" height="80" as="geometry" />
        </mxCell>
        <mxCell id="Qz6fXgYHEP6Uw-YGUnhL-36" value="" style="rounded=1;whiteSpace=wrap;html=1;" vertex="1" parent="1">
          <mxGeometry x="1251" y="373" width="170" height="207" as="geometry" />
        </mxCell>
        <mxCell id="Qz6fXgYHEP6Uw-YGUnhL-37" value="&lt;font style=&quot;font-size: 17px&quot;&gt;Data Consumers&lt;/font&gt;" style="rounded=1;whiteSpace=wrap;html=1;fontStyle=1" vertex="1" parent="1">
          <mxGeometry x="1286" y="360.00000000000006" width="100" height="40" as="geometry" />
        </mxCell>
        <mxCell id="Qz6fXgYHEP6Uw-YGUnhL-39" value="" style="triangle;whiteSpace=wrap;html=1;fontSize=17;fillColor=#f5f5f5;fontColor=#333333;strokeColor=#666666;" vertex="1" parent="1">
          <mxGeometry x="1200" y="436.5" width="40" height="80" as="geometry" />
        </mxCell>
        <mxCell id="Qz6fXgYHEP6Uw-YGUnhL-40" value="" style="shape=image;verticalLabelPosition=bottom;labelBackgroundColor=#ffffff;verticalAlign=top;aspect=fixed;imageAspect=0;image=data:image/png,iVBORw0KGgoAAAANSUhEUgAAAxgAAACmCAMAAABui9nOAAAAGXRFWHRTb2Z0d2FyZQBBZG9iZSBJbWFnZVJlYWR5ccllPAAAAMxQTFRFAAAAHER+WYebySA1HER+WYebWmWRySA16XYt7JEtHER+WYebcJmmySA16XYtHER+WYebWmWRcJmmySA16XYt7JEtHER+HER+WYebWmWRcJmmySA16XYtHER+WYebySA1HER+WYebWmWRcJmmySA16XYt7JEtHER+WmWRcJmmHER+WmWRHER+HER+WYebWmWRcJmmySA16XYtHER+WYebcJmmySA1HER+WmWRcJmm6XYtHER+cJmmHER+WYebWmWRcJmmySA16XYt7JEtPUZ19QAAAD10Uk5TABAQECAgICAgIDAwMDAwQEBAQEBAQFBgYGBgYGBwcHCAgICAgICAj4+Pn5+vv7+/v7+/z8/Pz9/f39/v7xZ6BREAAAkYSURBVHja7d2LlpvGAYBhaImTUjfjtR2o3dBOnAsJZeptaIobSm59/3eqLisJECAGZhAS/39ycmLvhl1GfOIqcBwiIiIiIiIiIiIiIiIiIiIiIiIiIiJaQI+/bGIYiIBBBAwiYBABgwgYRMAgAgYRMIiAQQQMImAQAYPonvps1x9avvL28dR/tzAqf/6u5fv/+GLX7xhTuoP+t+ublq98+Ut3jy3f/4+fdr1gTAkYwCBgAIOA4bz88tR/thoqf34LDForjGpDjkoBg4ABDAIGMAgYwCACBhEwiIBBBAwiYBABgwgYay+UT4WMBTDomCqfUozFTcB4u71yEBjAAIZ+wAAGMIABjPtjMKRLVL74aXAMOzCAAQxgAAMYwAAGMIABDGAMzleHgAEMYBwTh4W5BMbdUdE/XPvRi2b/2jP469kXgAGM9cA4z/p5jOMmiw8MAsax4wIogEHAAAYBAxjAAAYwgHHTMD7/ft/nwAAGME59/du+r4EBDGAAAxjAAAYwCBjAIGAAg4ABDAIGMAgYwKC7gfHsYdszYABjyT1/+fLl81lhvPt52ztgAGPJPbY8oRsYwAAGMFqWayG8w3/74ilvGozNFNw7gNE6NP5KYHyz6zMDMP78xa6PbgaGF6XZ0xQLFfnV5VKOheFHyWGauZL+rDACqfKn/zsJvUlD44bJaWikr/ub9SlyD1+rvXe42/u8e0uCMaRhMNpaMIzw+FI/lYVTYfhx3phmHrkzwfCT4mx2Rq8p0vPZ0PrN+r5ZtL2MoshjqcoYGNeGIZqL8G5ZyqfBaKuI5oDhq5YfnQejhqZ9WrlNGH6ZeEJseMTAuCoMNy37Mwdjw823DkN2/Oh0xJ6OvDA7NmAo5WzelQpflD4wrgjDy8oZYZRFYBeGmxlBuZ+WKueH4W/+c/NPLp0sBsb1YPhFOSuMsgxtwnD7mBd6MtyLbxk2YIhy8+JGcRk4sQLG1WC4eTk3jMFbCCNgXFiWc62tqcsurMHI8s2vCowrwlDl/DAK1xqMS7OTasxKXF4FhrdZV5TC3fw7k8AYvffX05DJR83N8FTK4wkAAzAKFUuZqHGLpz6M5mipVKZq3HbcGfFctQyNrZ1vsdnBCEpvsTBe/6bX6xuD4dZ2MPLw8Fbux4UBGFl0fGWD+uIZ2IHh1RfasOWHF4M3pvL6uYvDrHhRbhmGXySBu/k5cx6u3V44eOiHDYwfKn9+bgXGm/enPuxgfKj8zbdXhpF0nmNwZTERRlJ/v6udK8ntwKjOTi7aV4xDZybsXmeGhVUYjp8XicxmPcG3e0J3R49WYOzXEl29vy4Mt7ogNXeJvYkn+HqPfQY2YFRXGJnbsZjn+iuMQnTu4luBsb2eRUazbkcBo2sPo/C6X1AzMGpHeVIbMJJOF46Tam7GBb1H0ZRlGFfZrwBG25IqHPswqns0rgUYRc9hWf+0iaeLLHKAsS4YlU2PxJkBRnW7PTQPI+hlfnwTKDSRZc4KYMx/VOrh3an3ewyVv3lzVRiV5dSbBUZlwz0xDyPp3SVOtM4v+v2EVw/j0+/P+/EJwY8tX/vU+OHaUHV0ekfr+o6L04573xVtwLjwE6fByHp3I6TWyur0nlE4wBjW/Zz5Vn2b0ZUFzRwMX+tgsiaMytmFlnKtA7ayf9UGjLuGkfdPozQPw+nfeJsEQwzdxNRamNvXL8C4axjlwIXYIAyl82svAoYABjBuGkZkB4YLjPXCyGeDkdiDIU3CKAf6BsZdw1CzwZALgFEAAxgr2pQyusbIgFHt9692/ckADP/8bkHAmAmGnD66qv904NpgvPp11z8NwFAts7s0GEX/sVMbMHKd889jj0olJmH0H5VKgXGHMFT/FacWYLgWT/AJrbPqF4r7Z17rogBg3BqMpP891gIMvY9FjD7zPf2jDJHBq2VuDUZLK4Nx4YIgCzBUaWobpHeHOZo8usLg9ZXAuATDaAZG1Ou/hNQ8DN/qZeex9qf0Bq1+EpswAmAsEEZlV7jtHgHmYSi9rZ3xn8eYvspIe2+DNQ5G0XcozQfGcmDI3s+aGoch9c4laH+CLx97y8Hezczzj8lqwuj7JEhm8Dk7wDAGo3r3gMQ6jFD39k66MOSAm3G6Q8kUfTK0YETdY+yZ3PoDhjEYtfvNKM8qDDexfvuc6mfKi9ZhcWUxdGZk1614tGH43VtlqclzL8AwB8Or3letqD/Ex516X6mgvkTOcMO12gW2SRO6G6YaM1O/qW9SG2VX7zNcede6J9IdEWDMBKN5gVEWh7srWSKZ5gZu0ankbnKhzGa6RWf952TR4ZIcIeThaWGDZyZo3KEzkWI/M2mmOTRh+5MI3Li8kS2pFcK4s5s6G32mQWxsaKorn8OK1Jd5eSsrjDXCGPAMCNMwCouPAQhMzowyNTSieXtopcbfhH2xMD55ve+Tu4AxRIYODNeci1EPjgkNzszlByoNndqF3ypz7wGG1ou6fBgDXv5w1O81/Xlfox41JgpzymtH7SZNLbxpF+uE4TjRhWVJGIQRu45dGJeeKagFwwlMMeuZULJ4F2uF4XiJmW2f8wNDzQ/PiRFjqP044z7oheZubuM4c3Nqw1embscY54HjAGOhMDY04o5n8RWJ7gvnRWnXpPxRY6gNY7M0d8xNHum/O3dOrEhDV2+Mz42loeMAY8EwdscPmzsbKg5HXnMkojRrTisYO4b6MLabLsnZ4pzFY6+g8iPVWKZVEo2ZmKg+q0wl4UI3on4d3FcXpqRx62VTv/zx3pMmL8v0RCB3hWK6N/8wsUB4U95cRsHYzkwgk8MgxVJMXAhdIfZzE4mJk/K25wkXfTHtTcNYQRNhEDCAQcAABgEDGMAABgFjCb1q9rc9g3+ffeHjIQcaaj0drYzOvsCwA+P2pNzQeQxg0MJgPAx54Cowpucf1rI+YwEMImAQAYMIGMAgYACDgAEMAgYwiIBBBAwiYBABgwgYRNeD8fDu1N93MD5U/uYNMGidMPYPXO3qPTAIGMAgYACD6OOvdv3FAIxwf3cuj0Gle04bBtHaegADETCIgEEEDCJgEAGDCBhEwCACBhEwiIBBBAwiYBCts2ddH2clIiIiIiIiIiIiIiIiIiIa3P8BUGiwDwKpX1cAAAAASUVORK5CYII=;" vertex="1" parent="1">
          <mxGeometry x="1274.36" y="436.5" width="133.27" height="27.93" as="geometry" />
        </mxCell>
        <mxCell id="Qz6fXgYHEP6Uw-YGUnhL-41" value="&lt;span style=&quot;font-size: 12px&quot;&gt;Raw - untransformed data&lt;/span&gt;" style="text;html=1;align=center;verticalAlign=middle;resizable=0;points=[];autosize=1;strokeColor=none;fillColor=none;fontSize=17;" vertex="1" parent="1">
          <mxGeometry x="540" y="481.91999999999996" width="150" height="30" as="geometry" />
        </mxCell>
        <mxCell id="Qz6fXgYHEP6Uw-YGUnhL-44" value="&lt;span style=&quot;font-size: 12px&quot;&gt;SQL based transformation&lt;/span&gt;" style="text;html=1;align=center;verticalAlign=middle;resizable=0;points=[];autosize=1;strokeColor=none;fillColor=none;fontSize=17;" vertex="1" parent="1">
          <mxGeometry x="780.1700000000001" y="481.92" width="160" height="30" as="geometry" />
        </mxCell>
        <mxCell id="Qz6fXgYHEP6Uw-YGUnhL-47" value="&lt;span style=&quot;font-size: 12px&quot;&gt;Transformed and &lt;br&gt;integrated data&lt;/span&gt;" style="text;html=1;align=center;verticalAlign=middle;resizable=0;points=[];autosize=1;strokeColor=none;fillColor=none;fontSize=17;" vertex="1" parent="1">
          <mxGeometry x="1040.5" y="471.92" width="110" height="50" as="geometry" />
        </mxCell>
        <mxCell id="Qz6fXgYHEP6Uw-YGUnhL-51" value="" style="edgeStyle=orthogonalEdgeStyle;rounded=0;orthogonalLoop=1;jettySize=auto;html=1;fontSize=12;" edge="1" parent="1" source="Qz6fXgYHEP6Uw-YGUnhL-48" target="Qz6fXgYHEP6Uw-YGUnhL-40">
          <mxGeometry relative="1" as="geometry" />
        </mxCell>
        <mxCell id="Qz6fXgYHEP6Uw-YGUnhL-48" value="&lt;font style=&quot;font-size: 12px&quot;&gt;BI &amp;amp; Visualisation&lt;/font&gt;" style="text;html=1;align=center;verticalAlign=middle;resizable=0;points=[];autosize=1;strokeColor=none;fillColor=none;fontSize=17;" vertex="1" parent="1">
          <mxGeometry x="1285.99" y="476.92" width="110" height="30" as="geometry" />
        </mxCell>
        <mxCell id="Qz6fXgYHEP6Uw-YGUnhL-49" value="&lt;font style=&quot;font-size: 12px&quot;&gt;Data Science&lt;/font&gt;" style="text;html=1;align=center;verticalAlign=middle;resizable=0;points=[];autosize=1;strokeColor=none;fillColor=none;fontSize=17;" vertex="1" parent="1">
          <mxGeometry x="1291" y="511.92" width="90" height="30" as="geometry" />
        </mxCell>
        <mxCell id="Qz6fXgYHEP6Uw-YGUnhL-50" value="&lt;font style=&quot;font-size: 12px&quot;&gt;Reverse ELT&lt;/font&gt;" style="text;html=1;align=center;verticalAlign=middle;resizable=0;points=[];autosize=1;strokeColor=none;fillColor=none;fontSize=17;" vertex="1" parent="1">
          <mxGeometry x="1296" y="541.92" width="80" height="30" as="geometry" />
        </mxCell>
      </root>
    </mxGraphModel>
  </diagram>
</mxfile>
